<svg width="115" height="19" viewBox="0 0 115 19" fill="none" xmlns="http://www.w3.org/2000/svg">
<path d="M17.2441 2.46826L17.4764 2.44392C19.9203 2.16237 22.3945 1.90861 24.8283 1.68267C25.0067 1.6653 25.1818 1.65834 25.3535 1.65834C26.5461 1.64934 27.7039 2.07248 28.6255 2.85409C29.148 3.27235 29.5787 3.80029 29.8892 4.40307C30.1996 5.00584 30.3827 5.66974 30.4264 6.35095C30.5013 7.32451 30.2926 8.29898 29.8272 9.14915C29.4586 9.83588 28.947 10.4295 28.3292 10.8871C29.494 12.3054 30.6587 13.7479 31.7965 15.18L32.086 15.5276L31.6316 15.5624C30.5094 15.6458 29.3874 15.7362 28.2653 15.8335H28.1441L28.0667 15.7362C27.0365 14.45 25.9762 13.15 24.9192 11.8674C23.8487 11.9682 22.7581 12.0794 21.6742 12.1942L22.0915 16.4141L21.8593 16.4384C20.9134 16.5357 19.9708 16.64 19.0249 16.7477L18.7926 16.7755L17.2441 2.46826ZM21.3745 8.97536C22.6302 8.84675 23.9025 8.71813 25.1616 8.59994C25.4032 8.58467 25.6396 8.51997 25.8569 8.40957C26.0742 8.29918 26.2681 8.1453 26.4273 7.95687C26.5821 7.77981 26.7001 7.57171 26.7737 7.34554C26.8474 7.11936 26.8751 6.87995 26.8551 6.64223C26.8353 6.40451 26.7682 6.17356 26.6581 5.96378C26.548 5.75399 26.3972 5.56987 26.2152 5.42287C25.8887 5.14442 25.4773 4.9942 25.0539 4.99879H24.8485C23.603 5.11698 22.3171 5.24211 21.0211 5.37768L21.3745 8.97536Z" fill="black" style="fill:black;fill-opacity:1;"/>
<path d="M33.4087 1.01467L33.6409 0.997282L36.5999 0.80957H36.8321L37.6266 15.1933H37.3943C36.4451 15.249 35.498 15.3081 34.5532 15.3706L34.3176 15.3879L33.4087 1.01467Z" fill="black" style="fill:black;fill-opacity:1;"/>
<path d="M44.4873 3.69918C42.9927 3.75479 41.4778 3.81737 39.9866 3.89384H39.7542L39.6028 0.640288H39.8351C43.979 0.435203 48.1835 0.292688 52.3307 0.250977H52.5663L52.6033 3.51148H52.3711C50.863 3.52886 49.3414 3.56015 47.8703 3.59838L48.1497 14.739H47.9141C46.9749 14.7633 46.0324 14.7946 45.0899 14.8259H44.8542L44.4873 3.69918Z" fill="black" style="fill:black;fill-opacity:1;"/>
<path d="M61.7157 14.9573C60.7523 14.9694 59.7962 14.7832 58.9033 14.4096C58.0103 14.036 57.1984 13.4825 56.5148 12.7813C55.8153 12.0931 55.2585 11.2652 54.8784 10.348C54.4981 9.43078 54.3025 8.44333 54.3032 7.44563C54.2811 6.44369 54.4643 5.44821 54.8408 4.5245C55.2172 3.60078 55.7785 2.76965 56.4879 2.08561C57.8916 0.695203 59.6151 0 61.7595 0H61.8773C63.9644 0.0278081 65.6475 0.695203 67.0142 2.00914L67.3508 2.33588L67.1758 2.51316C66.4891 3.20837 65.8046 3.90357 65.1223 4.59877L64.9641 4.76214L64.6276 4.4493C63.8722 3.70684 62.8662 3.29782 61.8234 3.30916H61.7595C61.2252 3.29762 60.6942 3.39724 60.1979 3.60207C59.7017 3.8069 59.2505 4.11277 58.8712 4.50144C58.4794 4.87235 58.1687 5.32523 57.9597 5.82992C57.7507 6.3346 57.6484 6.87948 57.6594 7.42824C57.6506 7.97764 57.7522 8.52296 57.9579 9.02972C58.1636 9.53648 58.4689 9.99372 58.8544 10.3724C59.226 10.7706 59.6722 11.0866 60.1658 11.3011C60.6595 11.5157 61.1903 11.6243 61.7258 11.6203H61.783C62.7946 11.6372 63.7744 11.2557 64.5232 10.5532L64.8598 10.2473L65.0146 10.4281C65.6509 11.1615 66.277 11.8984 66.9031 12.6353L67.058 12.8161L66.7214 13.122C65.3679 14.3482 63.6168 15.0034 61.8167 14.9573H61.7157Z" fill="black" style="fill:black;fill-opacity:1;"/>
<path d="M80.6073 15.6526C76.9851 15.3224 73.2991 15.0513 69.6568 14.8427H69.4211L70.192 0.458984H70.4244C74.2113 0.674498 78.0455 0.956045 81.8258 1.30017L82.0581 1.32103L81.7854 4.56762L81.5498 4.54677C78.8567 4.29997 76.1133 4.08794 73.4169 3.90718L73.2923 5.9337C75.4973 6.0797 77.7358 6.25002 79.9407 6.4412H80.1763L79.9138 9.69128L79.6782 9.67038C77.4868 9.48271 75.2684 9.32282 73.0904 9.16639L72.9322 11.7629C75.5679 11.9368 78.2442 12.1453 80.8833 12.3852L81.1155 12.406L80.8429 15.6526H80.6073Z" fill="black" style="fill:black;fill-opacity:1;"/>
<path d="M96.328 17.3905L94.2673 17.1124H94.1598L94.1028 17.0185C92.1197 13.9353 90.063 10.8452 87.9793 7.82453L87.1175 16.2608L86.8852 16.2365C85.9393 16.1322 84.9967 16.0348 84.0508 15.9411L83.8186 15.9167L85.165 1.57812L85.3974 1.60245L87.5484 1.82493H87.6528L87.7134 1.91182C89.8442 4.93596 91.9514 8.0296 93.9812 11.1094L94.991 2.69393L95.2238 2.72173L98.1652 3.118L98.398 3.14928L96.5468 17.4252L96.328 17.3905Z" fill="black" style="fill:black;fill-opacity:1;"/>
<path d="M106.474 18.9683C105.54 18.8083 104.608 18.6542 103.677 18.5059L103.444 18.4678L105.11 7.45571C103.595 7.21238 102.081 6.97949 100.65 6.7605L100.417 6.72574L100.863 3.5L101.094 3.53476C105.215 4.13959 109.375 4.83131 113.466 5.58561L113.694 5.62732L113.142 8.83568L112.91 8.79396C111.443 8.52283 109.948 8.25518 108.46 8.00143L106.706 18.9996L106.474 18.9683Z" fill="black" style="fill:black;fill-opacity:1;"/>
<path d="M0.584351 4.75489L0.813274 4.72012C3.9742 4.2022 7.1856 3.72251 10.3566 3.29497C10.5095 3.27405 10.6636 3.26359 10.8178 3.26367C11.6842 3.26614 12.5197 3.59651 13.1661 4.19225C13.8125 4.78799 14.225 5.60774 14.3254 6.49637C14.3914 7.29 14.2156 8.08508 13.8227 8.77058C13.4299 9.45608 12.8395 9.9978 12.134 10.3199C12.8979 10.4464 13.6024 10.822 14.1445 11.3918C14.6867 11.9616 15.038 12.6958 15.1468 13.4867C15.2684 14.437 15.0241 15.3986 14.4664 16.1649C13.9087 16.9313 13.0821 17.441 12.1643 17.5849C9.13467 17.995 6.03772 18.4574 2.99798 18.9544L2.76572 18.9927L0.584351 4.75489ZM5.57655 15.2072C7.57947 14.8979 9.61606 14.6024 11.6359 14.3313C11.6511 14.33 11.6657 14.324 11.6776 14.314C11.6896 14.3041 11.6985 14.2908 11.7032 14.2756C11.7077 14.2612 11.7077 14.2454 11.7028 14.231C11.6979 14.2166 11.6886 14.2041 11.6762 14.1957C10.4038 13.1946 9.09428 12.1797 7.78817 11.1855L7.59968 11.043L7.74103 10.8483C8.72061 9.47531 9.72713 8.08839 10.7403 6.71536C10.7486 6.70441 10.753 6.69096 10.753 6.67712C10.753 6.66329 10.7486 6.64984 10.7403 6.63889C10.7331 6.62648 10.7227 6.61637 10.7101 6.60964C10.6977 6.6029 10.6838 6.59979 10.6697 6.60064C8.61292 6.87873 6.53256 7.17766 4.48251 7.49398L5.57655 15.2072Z" fill="black" style="fill:black;fill-opacity:1;"/>
</svg>
