<svg width="154" height="45" viewBox="0 0 154 45" fill="none" xmlns="http://www.w3.org/2000/svg">
<path d="M22.402 17.191C22.3265 17.1287 22.2776 17.04 22.265 16.943C21.441 10.663 16.659 12.195 17.711 10.311C19.111 7.8 18.211 7.638 18.211 7.638C17.802 7.68 16.639 8.845 16.639 8.845L15.994 10.401C17.886 3.465 13.14 8.992 12.123 10.009C11.0467 10.8842 9.88247 11.6453 8.64899 12.28C7.15656 13.0843 5.94837 14.3292 5.18899 15.845C3.25199 19.822 3.95499 28.682 23.941 38.518C13.627 31.959 15.084 22.291 18.871 22.926C19.8715 23.1304 20.9123 22.936 21.7715 22.3842C22.6308 21.8324 23.2406 20.9668 23.471 19.972C24.638 19.152 22.885 17.586 22.402 17.191Z" fill="black" style="fill:black;fill-opacity:1;"/>
<path d="M15.193 7.9021C15.193 7.9021 10.628 11.3121 13.263 15.1681C12.8211 13.9029 12.7688 12.5342 13.1128 11.2389C13.4569 9.94362 14.1815 8.78129 15.193 7.9021Z" fill="white" style="fill:white;fill-opacity:1;"/>
<path d="M18.536 16.7619C19.1323 16.4501 19.8089 16.326 20.477 16.4059L20.256 16.5109C20.3364 16.6878 20.3616 16.8847 20.3284 17.0761C20.2952 17.2675 20.2052 17.4444 20.07 17.5839C20.1195 17.65 20.1766 17.7101 20.24 17.7629C20.24 17.7629 19.14 17.5159 18.84 16.7439C18.7399 16.7281 18.6375 16.7343 18.54 16.7619H18.536Z" fill="white" style="fill:white;fill-opacity:1;"/>
<path d="M21.435 20.929C21.4162 20.9168 21.3951 20.9086 21.373 20.905C21.331 20.893 21.273 20.879 21.19 20.861C21.03 20.825 20.803 20.785 20.529 20.739C20.255 20.693 19.929 20.651 19.588 20.611C19.247 20.571 18.873 20.543 18.502 20.533C18.14 20.5173 17.7773 20.5234 17.416 20.551C17.1014 20.5726 16.789 20.6197 16.482 20.692C16.2655 20.7437 16.0545 20.8164 15.852 20.909C15.779 20.943 15.724 20.973 15.685 20.994L15.628 21.026L15.683 20.989C15.7346 20.9529 15.788 20.9195 15.843 20.889C16.0411 20.782 16.2503 20.6972 16.467 20.636C16.775 20.5493 17.0903 20.4914 17.409 20.463C17.7747 20.4302 18.142 20.4195 18.509 20.431C18.883 20.446 19.255 20.479 19.601 20.522C19.947 20.565 20.269 20.622 20.543 20.679C20.817 20.736 21.043 20.793 21.198 20.839C21.276 20.861 21.337 20.881 21.378 20.896C21.4001 20.9009 21.4208 20.9105 21.439 20.924L21.435 20.929Z" fill="white" style="fill:white;fill-opacity:1;"/>
<path d="M21.06 20.515L21.048 20.505L21.007 20.485C20.97 20.469 20.916 20.447 20.845 20.421C20.705 20.366 20.501 20.298 20.256 20.221C20.1334 20.181 20 20.1403 19.856 20.099L19.409 19.975C19.098 19.892 18.762 19.815 18.424 19.751C18.255 19.719 18.086 19.69 17.918 19.667C17.75 19.644 17.585 19.626 17.424 19.616C17.344 19.61 17.264 19.606 17.187 19.603C17.11 19.6 17.034 19.597 16.96 19.598C16.886 19.599 16.814 19.598 16.745 19.598C16.676 19.598 16.609 19.605 16.545 19.611C16.481 19.617 16.42 19.623 16.362 19.632C16.304 19.641 16.248 19.646 16.198 19.658C16.148 19.67 16.098 19.677 16.054 19.687L15.934 19.719C15.861 19.737 15.806 19.761 15.768 19.773L15.71 19.793L15.766 19.767C15.8184 19.7417 15.8722 19.7193 15.927 19.7L16.046 19.659C16.09 19.646 16.138 19.634 16.189 19.62C16.24 19.606 16.295 19.595 16.354 19.583C16.4151 19.5698 16.4769 19.5598 16.539 19.553C16.603 19.544 16.672 19.536 16.739 19.531C16.806 19.526 16.882 19.52 16.957 19.518C17.032 19.516 17.109 19.518 17.187 19.518C17.265 19.518 17.347 19.518 17.427 19.526C17.59 19.534 17.758 19.551 17.927 19.571C18.096 19.591 18.269 19.619 18.44 19.65C18.781 19.716 19.117 19.799 19.43 19.887C19.743 19.975 20.03 20.076 20.271 20.164C20.512 20.252 20.711 20.339 20.849 20.402C20.918 20.434 20.97 20.461 21.005 20.48C21.023 20.49 21.037 20.499 21.045 20.504L21.06 20.515Z" fill="white" style="fill:white;fill-opacity:1;"/>
<path d="M21.088 21.142H21.072C21.061 21.142 21.047 21.142 21.027 21.136C20.987 21.136 20.927 21.129 20.852 21.126C20.701 21.119 20.485 21.119 20.226 21.126C20.097 21.126 19.956 21.126 19.808 21.137L19.342 21.162C19.02 21.182 18.677 21.215 18.336 21.262C18.166 21.285 17.996 21.312 17.83 21.343C17.664 21.374 17.501 21.41 17.346 21.451C17.268 21.471 17.192 21.493 17.118 21.515C17.044 21.537 16.971 21.558 16.902 21.582C16.833 21.606 16.765 21.629 16.702 21.654C16.639 21.679 16.574 21.704 16.518 21.73C16.462 21.756 16.404 21.781 16.352 21.808C16.3 21.835 16.252 21.857 16.205 21.884C16.158 21.911 16.117 21.934 16.079 21.957L15.979 22.026C15.915 22.066 15.874 22.106 15.841 22.126L15.793 22.164L15.837 22.122C15.8777 22.0812 15.9208 22.0428 15.966 22.007L16.066 21.931C16.102 21.904 16.144 21.878 16.187 21.849C16.23 21.82 16.279 21.792 16.33 21.762C16.3831 21.7302 16.4379 21.7012 16.494 21.675C16.552 21.646 16.613 21.617 16.678 21.59C16.743 21.563 16.809 21.534 16.878 21.509C16.947 21.484 17.019 21.456 17.094 21.433C17.169 21.41 17.245 21.386 17.324 21.365C17.481 21.321 17.645 21.284 17.813 21.249C17.981 21.214 18.152 21.185 18.324 21.161C18.669 21.115 19.015 21.087 19.339 21.07C19.663 21.053 19.968 21.058 20.228 21.064C20.488 21.07 20.704 21.09 20.855 21.105C20.931 21.112 20.989 21.122 21.029 21.129L21.074 21.139L21.088 21.142Z" fill="white" style="fill:white;fill-opacity:1;"/>
<path d="M22.947 19.281C22.962 19.281 22.979 19.323 23.03 19.381C23.0615 19.4115 23.0949 19.4399 23.13 19.466C23.1484 19.4804 23.1678 19.4935 23.188 19.505C23.2086 19.5171 23.23 19.5277 23.252 19.537C23.2706 19.543 23.2897 19.5473 23.309 19.55C23.331 19.55 23.35 19.555 23.369 19.55H23.397H23.424C23.442 19.5517 23.4601 19.5517 23.478 19.55C23.4947 19.5513 23.5114 19.5513 23.528 19.55C23.5419 19.5479 23.5561 19.5479 23.57 19.55C23.5758 19.5494 23.5817 19.5505 23.5869 19.5532C23.5921 19.556 23.5963 19.5602 23.599 19.5654C23.6017 19.5706 23.6028 19.5765 23.6021 19.5823C23.6014 19.5881 23.5989 19.5936 23.595 19.598C23.585 19.61 23.5744 19.6213 23.563 19.632C23.547 19.6447 23.5296 19.6554 23.511 19.664L23.479 19.68L23.44 19.689C23.4114 19.6954 23.3817 19.6954 23.353 19.689C23.3224 19.6856 23.2926 19.6768 23.265 19.663C23.2374 19.6498 23.2107 19.6348 23.185 19.618C23.1014 19.5587 23.0329 19.4806 22.985 19.39C22.92 19.296 22.936 19.282 22.947 19.281Z" fill="white" style="fill:white;fill-opacity:1;"/>
<path d="M22.117 22.135C22.0626 22.148 22.0075 22.158 21.952 22.165C21.7081 22.1969 21.4608 22.1928 21.218 22.153C21.1099 22.1356 21.0033 22.1102 20.899 22.077C20.845 22.061 20.792 22.039 20.738 22.02C20.684 22.001 20.632 21.98 20.578 21.963C20.4693 21.9277 20.3588 21.898 20.247 21.874C20.19 21.862 20.133 21.85 20.076 21.842C20.019 21.834 19.962 21.823 19.904 21.818L19.734 21.802C19.678 21.802 19.623 21.794 19.568 21.792C19.459 21.785 19.353 21.783 19.253 21.783C19.203 21.783 19.153 21.783 19.107 21.783C19.0615 21.7839 19.0161 21.7872 18.971 21.793C18.928 21.793 18.886 21.801 18.847 21.809C18.808 21.817 18.77 21.82 18.736 21.829L18.636 21.852C18.527 21.884 18.545 21.815 18.604 21.783L18.704 21.741C18.7414 21.7252 18.7798 21.7118 18.819 21.701C18.8618 21.6867 18.9056 21.6753 18.95 21.667C19.0487 21.6443 19.149 21.6296 19.25 21.623C19.3048 21.6179 19.3599 21.6156 19.415 21.616C19.471 21.616 19.529 21.616 19.586 21.616C19.643 21.616 19.703 21.625 19.761 21.633C19.819 21.641 19.879 21.649 19.938 21.661C19.997 21.673 20.056 21.684 20.115 21.697C20.174 21.71 20.232 21.725 20.29 21.741C20.4056 21.7723 20.5194 21.8097 20.631 21.853C20.686 21.875 20.731 21.897 20.791 21.92C20.851 21.943 20.891 21.964 20.94 21.982C21.0379 22.0183 21.1381 22.048 21.24 22.071C21.3319 22.093 21.4251 22.1093 21.519 22.12C21.6621 22.1359 21.8063 22.1393 21.95 22.13C22.005 22.1266 22.0597 22.1202 22.114 22.111L22.117 22.135Z" fill="white" style="fill:white;fill-opacity:1;"/>
<path d="M19.812 16.561C19.7029 16.8539 19.7029 17.1762 19.812 17.469C19.9279 17.1775 19.9279 16.8526 19.812 16.561Z" fill="black" style="fill:black;fill-opacity:1;"/>
<path d="M33.271 22.595C33.495 22.544 36.171 21.787 36.407 21.713L34.401 22.721C35.135 22.753 37.715 30.228 27.35 38.521C28.314 37.872 38.669 33.144 43.62 27.332C48.526 21.573 49.515 12.076 42.145 8.846C40.7447 8.27638 39.2141 8.10567 37.7228 8.35278C36.2314 8.5999 34.8377 9.25518 33.696 10.246C33.3632 10.5497 33.066 10.8903 32.81 11.261C32.2797 12.073 31.9097 12.9789 31.72 13.93C31.5671 14.3675 31.3212 14.7667 30.9993 15.1C30.6773 15.4334 30.2869 15.693 29.855 15.861C28.271 16.481 25.779 17.522 25.709 17.995C25.8168 19.2058 26.345 20.3408 27.202 21.203C28.0275 21.9053 29.01 22.3984 30.0664 22.6407C31.1227 22.883 32.2219 22.8673 33.271 22.595Z" fill="black" style="fill:black;fill-opacity:1;"/>
<path d="M27.349 21.263C28.2238 21.6394 29.1689 21.8246 30.1211 21.8061C31.0732 21.7877 32.0104 21.566 32.87 21.156C32.9357 21.1166 33.0139 21.1033 33.0889 21.1189C33.164 21.1345 33.2304 21.1777 33.275 21.24C33.353 21.385 33.215 21.671 32.381 21.957C31.539 22.1882 30.6588 22.2459 29.7938 22.1266C28.9288 22.0073 28.097 21.7135 27.349 21.263Z" fill="white" style="fill:white;fill-opacity:1;"/>
<path d="M27.027 17.457C27.027 17.457 28.81 18.398 26.396 19.38C26.396 19.38 27.928 18.442 27.027 17.457Z" fill="white" style="fill:white;fill-opacity:1;"/>
<path d="M34.168 14.877L32.486 14.302L32.646 14.575C32.5717 14.701 32.5365 14.8462 32.5448 14.9921C32.5532 15.1381 32.6048 15.2784 32.693 15.395L32.618 15.639L34.168 14.877Z" fill="white" style="fill:white;fill-opacity:1;"/>
<path d="M35.334 10.4961C35.5754 10.6426 35.8075 10.8039 36.029 10.9791C36.1428 11.067 36.2516 11.1611 36.355 11.2611C36.4719 11.3678 36.5729 11.4908 36.655 11.6261C36.6909 11.6869 36.7114 11.7556 36.715 11.8261C36.715 11.9031 36.706 12.0021 36.7 12.0971C36.688 12.2921 36.675 12.4971 36.663 12.7101C36.638 13.1391 36.621 13.6041 36.631 14.0991C36.6327 14.62 36.6661 15.1403 36.731 15.6571C36.7932 16.2271 36.9276 16.7869 37.131 17.3231C37.2479 17.6238 37.4119 17.904 37.617 18.1531C37.7378 18.2964 37.8794 18.4207 38.037 18.5221C38.2197 18.6427 38.4271 18.721 38.644 18.7511C38.8708 18.7754 39.1002 18.7512 39.317 18.6801C40.0914 18.4251 40.8098 18.0238 41.433 17.4981C41.6365 17.3254 41.827 17.1379 42.003 16.9371C43.531 15.2061 43.773 13.0441 43.874 11.0371C43.5328 12.9812 42.7246 14.8133 41.519 16.3761C40.9369 17.0155 40.2305 17.5293 39.443 17.8861C39.2377 17.9998 39.0093 18.0655 38.775 18.0781C38.6757 18.0636 38.5809 18.0266 38.498 17.9701C38.4005 17.9078 38.3125 17.8317 38.237 17.7441C38.0722 17.5474 37.9392 17.326 37.843 17.0881C37.6463 16.5972 37.5028 16.0866 37.415 15.5651C37.327 15.0511 37.261 14.5461 37.215 14.0651C37.169 13.5841 37.14 13.1251 37.115 12.7011C37.103 12.4881 37.092 12.2841 37.083 12.0901C37.075 11.9901 37.071 11.9001 37.056 11.7901C37.0355 11.6808 36.9892 11.5779 36.921 11.4901C36.7012 11.232 36.4327 11.0196 36.131 10.8651C35.943 10.7593 35.7493 10.6639 35.551 10.5791C35.409 10.5211 35.334 10.4961 35.334 10.4961Z" fill="white" style="fill:white;fill-opacity:1;"/>
<path d="M57.49 29.1771C57.1733 29.1771 57.015 29.0517 57.015 28.8011V28.7171C57.0742 28.4419 57.2133 28.1904 57.415 27.9941C57.6594 27.7246 57.8011 27.3776 57.815 27.0141V17.2741C57.8011 16.9105 57.6594 16.5635 57.415 16.2941C57.2133 16.0977 57.0742 15.8462 57.015 15.5711V15.4971C57.015 15.2464 57.1733 15.1211 57.49 15.1211H62.163C64.477 14.9793 66.7647 15.6751 68.608 17.0811C69.3587 17.7072 69.9567 18.4964 70.3564 19.3885C70.7562 20.2805 70.9472 21.252 70.915 22.2291C70.9495 23.1719 70.7769 24.1108 70.4092 24.9797C70.0415 25.8486 69.4878 26.6263 68.787 27.2581C67.2215 28.591 65.2067 29.2773 63.153 29.1771H57.49ZM63.073 27.7911H63.865C64.3108 27.8068 64.7547 27.7245 65.1652 27.5499C65.5757 27.3754 65.943 27.113 66.241 26.7811C66.8964 25.9657 67.2215 24.9339 67.152 23.8901C67.1604 22.6607 66.9595 21.439 66.558 20.2771C66.2217 19.2453 65.644 18.3087 64.873 17.5451C64.5588 17.2213 64.1837 16.9628 63.7692 16.7845C63.3548 16.6062 62.9092 16.5116 62.458 16.5061H62.242C61.648 16.5061 61.351 16.8227 61.351 17.4561V25.7561C61.3182 26.2944 61.4796 26.8267 61.806 27.2561C61.963 27.4352 62.1586 27.5765 62.378 27.6692C62.5975 27.7618 62.8351 27.8035 63.073 27.7911ZM80.179 26.0471C80.2378 25.9797 80.3154 25.9314 80.4019 25.9086C80.4883 25.8858 80.5796 25.8894 80.664 25.9191C80.748 25.9444 80.8196 25.9999 80.8652 26.0748C80.9108 26.1497 80.9271 26.2388 80.911 26.3251C80.89 26.657 80.799 26.9808 80.644 27.2751C80.4593 27.6338 80.2235 27.9639 79.944 28.2551C79.5888 28.6112 79.1592 28.8843 78.686 29.0551C78.1074 29.2742 77.4926 29.3817 76.874 29.3721C76.2072 29.4064 75.5405 29.3003 74.9173 29.0608C74.294 28.8212 73.728 28.4534 73.2558 27.9813C72.7836 27.5091 72.4159 26.9431 72.1763 26.3198C71.9367 25.6965 71.8307 25.0299 71.865 24.3631C71.8415 23.71 71.9564 23.0594 72.2021 22.454C72.4479 21.8485 72.819 21.3019 73.291 20.8501C74.2264 19.9529 75.477 19.4594 76.773 19.4761C77.782 19.4162 78.7831 19.6872 79.624 20.2481C79.9665 20.4792 80.2457 20.7926 80.4359 21.1594C80.6261 21.5262 80.7214 21.9349 80.713 22.3481C80.7083 22.6974 80.6271 23.0416 80.475 23.3562C80.323 23.6708 80.1038 23.9483 79.833 24.1691C79.1869 24.7237 78.3912 25.0751 77.546 25.1791C76.8931 25.2975 76.2291 25.3441 75.566 25.3181C75.7769 25.8017 76.1265 26.2119 76.5707 26.4967C77.0148 26.7816 77.5335 26.9282 78.061 26.9181C78.4582 26.9547 78.8583 26.8947 79.2273 26.7432C79.5963 26.5917 79.9232 26.3532 80.18 26.0481L80.179 26.0471ZM76.358 20.5231C76.1539 20.525 75.9543 20.5834 75.7814 20.6918C75.6084 20.8001 75.4688 20.9542 75.378 21.1371C75.1134 21.6296 74.987 22.1845 75.012 22.7431C75.0086 23.2568 75.0684 23.7689 75.19 24.2681C75.5206 24.2828 75.8517 24.2694 76.18 24.2281C77.0773 24.0694 77.526 23.3561 77.526 22.0881C77.5255 21.6919 77.4049 21.3052 77.18 20.9791C77.0921 20.8405 76.9707 20.7263 76.8271 20.6469C76.6834 20.5676 76.5221 20.5257 76.358 20.5251V20.5231ZM86.832 29.3731C86.147 29.3966 85.4645 29.2778 84.8277 29.0243C84.1908 28.7708 83.6135 28.388 83.132 27.9001C82.6683 27.445 82.3013 26.9009 82.053 26.3005C81.8047 25.7001 81.6802 25.0557 81.687 24.4061C81.6575 23.7397 81.7732 23.075 82.0262 22.4578C82.2792 21.8407 82.6633 21.286 83.152 20.8321C84.0473 20.0627 85.1622 19.5951 86.3384 19.4957C87.5146 19.3962 88.6923 19.67 89.704 20.2781C90.0764 20.4949 90.3857 20.8054 90.6011 21.1787C90.8165 21.552 90.9306 21.9751 90.932 22.4061C90.9352 22.5609 90.9061 22.7146 90.8466 22.8576C90.787 23.0005 90.6982 23.1294 90.586 23.2361C90.4331 23.3596 90.257 23.4513 90.0681 23.5058C89.8792 23.5602 89.6812 23.5763 89.486 23.5531C89.0456 23.5303 88.6308 23.3387 88.328 23.0181C88.023 22.7142 87.7846 22.3501 87.628 21.9491C87.4867 21.5733 87.2861 21.2225 87.034 20.9101C86.9379 20.7719 86.811 20.658 86.6633 20.5773C86.5156 20.4966 86.3512 20.4513 86.183 20.4451C85.9737 20.4565 85.771 20.5229 85.5955 20.6375C85.42 20.7522 85.2777 20.911 85.183 21.0981C84.9118 21.5739 84.7782 22.1157 84.797 22.6631C84.7414 23.7677 85.051 24.8599 85.678 25.7711C85.9437 26.1428 86.2965 26.4437 86.7055 26.6473C87.1145 26.8509 87.5673 26.9511 88.024 26.9391C88.4567 26.9412 88.8833 26.8376 89.2668 26.6371C89.6502 26.4367 89.9788 26.1455 90.224 25.7891C90.2768 25.7166 90.3505 25.6618 90.4351 25.6322C90.5198 25.6025 90.6115 25.5994 90.698 25.6231C90.7842 25.641 90.8605 25.6906 90.9118 25.7621C90.9631 25.8336 90.9856 25.9217 90.975 26.0091C90.9638 26.4621 90.8575 26.9077 90.663 27.317C90.4685 27.7263 90.1902 28.0902 89.846 28.3851C89.0058 29.0857 87.9301 29.4397 86.838 29.3751L86.832 29.3731ZM92.692 20.6831C92.5947 20.7485 92.4761 20.7746 92.3603 20.7561C92.2445 20.7375 92.14 20.6757 92.068 20.5831C92.0234 20.5499 91.987 20.507 91.9616 20.4576C91.9363 20.4081 91.9226 20.3536 91.9216 20.298C91.9206 20.2425 91.9324 20.1874 91.9561 20.1372C91.9797 20.0869 92.0146 20.0427 92.058 20.0081C92.3703 19.7087 92.6613 19.3879 92.929 19.0481C93.0872 18.8305 93.183 18.574 93.206 18.3061C93.232 18.0167 93.1464 17.8721 92.949 17.8721C92.7511 17.8708 92.5563 17.8226 92.3807 17.7313C92.2051 17.64 92.0537 17.5083 91.939 17.3471C91.6528 16.9691 91.5062 16.5038 91.524 16.0301C91.5 15.467 91.697 14.9169 92.073 14.4971C92.2598 14.3015 92.4863 14.1482 92.7373 14.0474C92.9882 13.9467 93.2579 13.9009 93.528 13.9131C93.8092 13.9103 94.0877 13.9671 94.3454 14.0797C94.603 14.1922 94.8339 14.358 95.023 14.5661C95.4561 15.0476 95.6805 15.6813 95.647 16.3281C95.643 18.0441 94.658 19.4957 92.692 20.6831ZM99.8 29.3551C98.7205 29.3957 97.647 29.1751 96.671 28.7121C96.3261 28.5823 96.0265 28.3551 95.8084 28.058C95.5904 27.761 95.4634 27.407 95.443 27.0391C95.4301 26.8617 95.4582 26.6837 95.5251 26.519C95.5921 26.3543 95.696 26.2071 95.829 26.0891C96.121 25.8664 96.4823 25.7541 96.849 25.7721C97.0473 25.7626 97.2453 25.7957 97.4297 25.8691C97.6141 25.9426 97.7806 26.0548 97.918 26.1981C98.1697 26.46 98.3534 26.7797 98.453 27.1291C98.5475 27.4689 98.7101 27.786 98.931 28.0611C99.0318 28.1962 99.1635 28.3054 99.315 28.3795C99.4664 28.4536 99.6334 28.4904 99.802 28.4871C99.9491 28.507 100.099 28.4923 100.239 28.4442C100.38 28.3962 100.507 28.3159 100.611 28.21C100.715 28.1041 100.793 27.9753 100.838 27.834C100.884 27.6927 100.896 27.5428 100.873 27.3961C100.881 27.1778 100.835 26.961 100.741 26.7643C100.646 26.5676 100.505 26.3969 100.329 26.2671C99.9341 25.9742 99.4872 25.759 99.012 25.6331C98.4953 25.4891 97.9823 25.3244 97.473 25.1391C96.9615 24.952 96.51 24.6303 96.166 24.2081C95.7848 23.7175 95.5918 23.1066 95.622 22.4861C95.6193 22.0554 95.7251 21.631 95.9296 21.2519C96.134 20.8728 96.4306 20.5514 96.792 20.3171C97.6802 19.7242 98.7341 19.4296 99.801 19.4761C100.845 19.4317 101.882 19.6712 102.801 20.1691C103.129 20.3181 103.409 20.5535 103.613 20.85C103.817 21.1464 103.937 21.4929 103.959 21.8521C103.962 22.0158 103.93 22.1782 103.863 22.3278C103.796 22.4773 103.697 22.6103 103.573 22.7171C103.315 22.948 102.979 23.0717 102.633 23.0631C102.441 23.0729 102.25 23.0409 102.072 22.9692C101.894 22.8976 101.734 22.7879 101.603 22.6481C101.363 22.3869 101.191 22.0705 101.103 21.7271C101.02 21.4004 100.885 21.0894 100.703 20.8061C100.63 20.6787 100.525 20.5731 100.398 20.5001C100.271 20.4271 100.127 20.3895 99.98 20.3911C99.8471 20.386 99.7151 20.4142 99.5958 20.4731C99.4766 20.5319 99.3739 20.6195 99.297 20.7281C99.1304 20.958 99.0436 21.2362 99.05 21.5201C99.0429 21.7448 99.0864 21.9682 99.1773 22.1738C99.2681 22.3795 99.4041 22.562 99.575 22.7081C99.9456 23.0231 100.377 23.259 100.842 23.4011C101.337 23.5597 101.832 23.7314 102.327 23.9161C102.821 24.0999 103.258 24.4103 103.594 24.8161C103.808 25.0981 103.961 25.4209 104.045 25.7646C104.129 26.1082 104.142 26.4655 104.083 26.8143C104.023 27.1631 103.893 27.496 103.7 27.7925C103.507 28.0889 103.255 28.3427 102.96 28.5381C102.017 29.1305 100.913 29.4163 99.801 29.3561L99.8 29.3551ZM109.739 29.1771C109.422 29.1771 109.264 29.0517 109.264 28.8011V28.7171C109.323 28.4419 109.462 28.1904 109.664 27.9941C109.908 27.7246 110.05 27.3776 110.064 27.0141V17.2741C110.05 16.9105 109.908 16.5635 109.664 16.2941C109.462 16.0977 109.323 15.8462 109.264 15.5711V15.4971C109.264 15.2464 109.422 15.1211 109.739 15.1211H114.673C116.284 15.0418 117.882 15.442 119.266 16.2711C119.837 16.6609 120.296 17.1933 120.597 17.8153C120.899 18.4373 121.033 19.1274 120.985 19.8171C121.013 20.4905 120.888 21.1615 120.621 21.7802C120.353 22.3989 119.95 22.9495 119.441 23.3911C118.279 24.3271 116.812 24.8027 115.322 24.7271H113.673V27.0271C113.691 27.3988 113.851 27.7495 114.12 28.0071C114.418 28.3304 114.567 28.5714 114.567 28.7301V28.8091C114.567 29.0597 114.409 29.1851 114.092 29.1851L109.739 29.1771ZM114.59 23.3361H115.323C115.609 23.3463 115.893 23.2802 116.146 23.1445C116.398 23.0089 116.61 22.8085 116.76 22.5641C117.112 21.9871 117.286 21.3193 117.26 20.6441C117.308 19.5856 117.028 18.5382 116.46 17.6441C116.282 17.3173 116.026 17.0401 115.714 16.8379C115.402 16.6356 115.044 16.5147 114.673 16.4861H114.396C113.921 16.4861 113.683 16.8027 113.683 17.4361V22.3861C113.68 23.0201 113.983 23.3371 114.59 23.3371V23.3361ZM129.538 26.0481C129.597 25.9807 129.674 25.9324 129.761 25.9096C129.847 25.8868 129.939 25.8904 130.023 25.9201C130.107 25.9454 130.179 26.0009 130.224 26.0758C130.27 26.1507 130.286 26.2398 130.27 26.3261C130.249 26.658 130.158 26.9818 130.003 27.2761C129.818 27.6348 129.582 27.9649 129.303 28.2561C128.948 28.612 128.519 28.8852 128.046 29.0561C127.287 29.3828 126.457 29.5118 125.634 29.431C124.811 29.3502 124.022 29.0622 123.341 28.594C122.659 28.1257 122.108 27.4924 121.738 26.7533C121.367 26.0141 121.19 25.1932 121.223 24.3671C121.199 23.714 121.314 23.0634 121.56 22.458C121.806 21.8525 122.177 21.3059 122.649 20.8541C123.585 19.9555 124.837 19.4612 126.134 19.4781C127.143 19.4182 128.144 19.6892 128.985 20.2501C129.328 20.4812 129.607 20.7946 129.797 21.1614C129.987 21.5282 130.082 21.9369 130.074 22.3501C130.069 22.6994 129.988 23.0433 129.835 23.3578C129.683 23.6722 129.464 23.9495 129.193 24.1701C128.547 24.7247 127.751 25.0761 126.906 25.1801C126.253 25.2985 125.589 25.3451 124.926 25.3191C125.137 25.8027 125.487 26.2129 125.931 26.4977C126.375 26.7826 126.893 26.9292 127.421 26.9191C127.818 26.9546 128.218 26.8937 128.587 26.7415C128.956 26.5894 129.282 26.3505 129.539 26.0451L129.538 26.0481ZM125.717 20.5241C125.513 20.526 125.313 20.5844 125.14 20.6928C124.967 20.8011 124.828 20.9552 124.737 21.1381C124.473 21.6288 124.347 22.1815 124.371 22.7381C124.368 23.2518 124.427 23.7639 124.549 24.2631C124.88 24.2778 125.211 24.2644 125.539 24.2231C126.436 24.0644 126.885 23.3511 126.885 22.0831C126.885 21.6869 126.764 21.3002 126.539 20.9741C126.451 20.8357 126.33 20.7217 126.186 20.6425C126.042 20.5633 125.881 20.5216 125.717 20.5211V20.5241ZM135.26 29.3751C134.82 29.398 134.381 29.3249 133.972 29.1608C133.564 28.9968 133.196 28.7457 132.894 28.4251C132.276 27.6629 131.969 26.696 132.032 25.7171V21.0171H131.279C131.219 21.0191 131.159 21.0088 131.102 20.9867C131.046 20.9646 130.995 20.9311 130.953 20.8884C130.91 20.8458 130.877 20.7948 130.854 20.7386C130.832 20.6825 130.822 20.6224 130.824 20.5621V20.1261C130.815 20.0642 130.82 20.0009 130.84 19.9415C130.859 19.8821 130.892 19.828 130.937 19.7838C130.981 19.7395 131.035 19.7063 131.094 19.6867C131.154 19.6671 131.217 19.6618 131.279 19.6711H131.655C132.225 19.6848 132.781 19.492 133.22 19.1281C133.662 18.7546 133.962 18.2411 134.071 17.6731C134.138 17.3297 134.316 17.1581 134.606 17.1581H135.061C135.418 17.1581 135.596 17.3297 135.596 17.6731V19.6731H137.635C137.695 19.671 137.755 19.6813 137.812 19.7034C137.868 19.7255 137.919 19.759 137.961 19.8017C138.004 19.8443 138.038 19.8953 138.06 19.9515C138.082 20.0076 138.092 20.0677 138.09 20.1281V20.5641C138.092 20.6244 138.082 20.6845 138.06 20.7406C138.038 20.7968 138.004 20.8478 137.961 20.8904C137.919 20.9331 137.868 20.9666 137.812 20.9887C137.755 21.0108 137.695 21.0211 137.635 21.0191H135.596V25.7711C135.58 26.0548 135.672 26.334 135.853 26.5531C135.931 26.6446 136.028 26.7177 136.138 26.7673C136.248 26.8169 136.367 26.8418 136.487 26.8401C136.751 26.8481 137.012 26.7841 137.242 26.6549C137.472 26.5258 137.662 26.3364 137.793 26.1071C137.868 25.9994 137.981 25.9249 138.11 25.8991C138.163 25.8879 138.218 25.8883 138.271 25.9002C138.324 25.9121 138.374 25.9352 138.417 25.9681C138.459 26.0005 138.493 26.0426 138.515 26.0909C138.537 26.1391 138.548 26.192 138.545 26.2451C138.551 27.062 138.235 27.8483 137.664 28.4331C137.353 28.7517 136.978 29.0004 136.563 29.1629C136.149 29.3253 135.705 29.3976 135.26 29.3751ZM143.437 29.3551C142.357 29.3957 141.284 29.1751 140.308 28.7121C139.963 28.5823 139.663 28.3551 139.445 28.058C139.227 27.761 139.1 27.407 139.08 27.0391C139.067 26.8617 139.095 26.6837 139.162 26.519C139.229 26.3543 139.333 26.2071 139.466 26.0891C139.758 25.8664 140.119 25.7541 140.486 25.7721C140.684 25.7626 140.882 25.7957 141.067 25.8691C141.251 25.9426 141.418 26.0548 141.555 26.1981C141.807 26.46 141.99 26.7797 142.09 27.1291C142.184 27.4683 142.345 27.7851 142.565 28.0601C142.666 28.1952 142.797 28.3044 142.949 28.3785C143.1 28.4526 143.267 28.4894 143.436 28.4861C143.583 28.5056 143.732 28.4907 143.872 28.4425C144.012 28.3944 144.139 28.3143 144.243 28.2087C144.346 28.103 144.424 27.9747 144.47 27.8338C144.515 27.693 144.527 27.5434 144.505 27.3971C144.513 27.1789 144.468 26.9622 144.373 26.7655C144.278 26.5688 144.137 26.3981 143.962 26.2681C143.567 25.9752 143.12 25.76 142.645 25.6341C142.13 25.4887 141.619 25.3237 141.112 25.1391C140.601 24.952 140.149 24.6303 139.805 24.2081C139.424 23.7173 139.231 23.1065 139.262 22.4861C139.259 22.0555 139.365 21.6311 139.569 21.2521C139.773 20.873 140.07 20.5515 140.431 20.3171C141.319 19.7242 142.373 19.4296 143.44 19.4761C144.484 19.4317 145.521 19.6712 146.44 20.1691C146.768 20.3181 147.048 20.5535 147.252 20.85C147.456 21.1464 147.576 21.4929 147.598 21.8521C147.601 22.0153 147.568 22.1772 147.501 22.3262C147.435 22.4752 147.336 22.6076 147.212 22.7141C146.954 22.945 146.618 23.0687 146.272 23.0601C146.08 23.0699 145.889 23.0379 145.711 22.9662C145.533 22.8946 145.373 22.7849 145.242 22.6451C145.002 22.3839 144.83 22.0675 144.742 21.7241C144.659 21.3974 144.524 21.0864 144.342 20.8031C144.269 20.6757 144.164 20.5701 144.037 20.4971C143.91 20.4241 143.766 20.3865 143.619 20.3881C143.486 20.383 143.354 20.4112 143.235 20.4701C143.116 20.5289 143.013 20.6165 142.936 20.7251C142.769 20.955 142.683 21.2332 142.689 21.5171C142.682 21.7418 142.725 21.9652 142.816 22.1708C142.907 22.3765 143.043 22.559 143.214 22.7051C143.585 23.0201 144.016 23.256 144.481 23.3981C144.976 23.5567 145.471 23.7284 145.966 23.9131C146.46 24.0969 146.897 24.4073 147.233 24.8131C147.447 25.0951 147.6 25.4179 147.684 25.7616C147.768 26.1052 147.781 26.4625 147.722 26.8113C147.662 27.1601 147.532 27.493 147.339 27.7895C147.146 28.0859 146.894 28.3397 146.599 28.5351C145.655 29.1283 144.55 29.4147 143.437 29.3551Z" fill="black" style="fill:black;fill-opacity:1;"/>
</svg>
