<svg width="79" height="36" viewBox="0 0 79 36" fill="none" xmlns="http://www.w3.org/2000/svg">
<path d="M18.1479 10.0764C19.4708 9.88122 20.8611 10.3802 22.2706 10.7152C22.7474 10.8289 23.1971 11.0754 23.6438 11.2947C24.0452 11.4919 24.1076 11.8792 23.8903 12.2675C23.4185 13.1086 22.9708 13.9637 22.512 14.8128C22.2032 15.3822 21.9014 15.9567 21.5754 16.516C21.3772 16.8571 21.0814 16.9013 20.676 16.8681C19.6136 16.7816 18.5442 16.7736 17.4778 16.7645C16.9577 16.7605 16.6509 17.1538 16.4638 17.5552C16.3722 17.7514 16.4537 18.1589 16.6116 18.3118C16.8873 18.5794 17.2636 18.8379 17.6308 18.8993C18.669 19.0754 19.7273 19.2021 20.7082 18.6106C21.0311 18.4164 21.3088 18.5522 21.4758 18.846C21.8138 19.4416 22.1358 20.0462 22.4356 20.6609C22.9245 21.6639 23.3822 22.683 23.8672 23.688C24.1076 24.187 23.9959 24.4647 23.4698 24.6377C22.6509 24.9073 21.839 25.1981 21.0191 25.4667C19.8249 25.857 18.5945 25.8892 17.3531 25.8399C16.2394 25.7957 15.1509 25.6075 14.1358 25.1548C13.0513 24.6709 12.0573 24.0401 11.2646 23.1186C10.5292 22.2635 10.0433 21.2635 9.7354 20.2162C9.49597 19.4003 9.49194 18.5019 9.46679 17.6377C9.4346 16.5331 9.72333 15.4637 10.2092 14.4899C10.7565 13.3933 11.5503 12.4466 12.5483 11.7182C14.1609 10.5422 15.9688 9.95567 18.1469 10.0744L18.1479 10.0764Z" fill="black" style="fill:black;fill-opacity:1;"/>
<path d="M25.9355 28.2626C25.9355 25.9859 25.9386 23.7083 25.9335 21.4316C25.9315 20.5695 26.0814 20.4115 26.9547 20.4115C30.4033 20.4125 33.853 20.4145 37.3017 20.4165C37.4687 20.4165 37.6367 20.4196 37.8037 20.4135C38.5814 20.3833 38.7122 20.5051 38.7142 21.2717C38.7162 22.0584 38.7242 22.8451 38.7122 23.6318C38.7031 24.2284 38.5442 24.3481 37.9506 24.3411C36.511 24.325 35.0713 24.3179 33.6317 24.322C33.0371 24.324 32.7695 24.6318 32.7736 25.2546C32.7786 26.0212 32.9607 26.2314 33.6488 26.2344C34.5029 26.2375 35.357 26.2214 36.2102 26.2324C36.7957 26.2405 36.9446 26.4276 36.9325 27.001C36.9164 27.7546 36.9255 28.5081 36.9134 29.2606C36.9013 29.999 36.7675 30.1368 36.022 30.1449C35.2524 30.1539 34.4818 30.1348 33.7112 30.1378C32.8742 30.1399 32.4084 30.8843 32.8299 31.6197C32.9355 31.8038 33.3068 31.9165 33.5583 31.9215C35.014 31.9497 36.4717 31.9366 37.9285 31.9366C38.683 31.9366 38.7192 31.9829 38.7122 32.7304C38.7041 33.5845 38.7011 34.4386 38.7303 35.2918C38.7434 35.662 38.6357 35.7877 38.2544 35.7867C34.3198 35.7747 30.3852 35.7787 26.4506 35.7807C26.1448 35.7807 25.9023 35.7837 25.9054 35.3451C25.9215 32.9849 25.9134 30.6238 25.9134 28.2636C25.9194 28.2636 25.9265 28.2636 25.9325 28.2636L25.9355 28.2626Z" fill="black" style="fill:black;fill-opacity:1;"/>
<path d="M0.00604015 0.00307888C1.05634 0.00307888 2.05734 0.00307888 3.05734 0.00307888C4.19617 0.00307888 5.33399 0.0101212 6.47282 6.09003e-05C6.79274 -0.0029572 6.90944 0.105694 6.90743 0.439697C6.8853 3.82098 6.87423 7.20326 6.86719 10.5845C6.86417 11.8904 6.87524 13.1962 6.88328 14.502C6.88731 15.1529 6.66196 15.3763 6.02011 15.3763C4.19516 15.3763 2.37022 15.3803 0.545274 15.3944C0.219319 15.3964 -0.0010026 15.3632 3.43101e-06 14.9497C0.00704566 9.994 0.00503391 5.03928 0.00503391 0.00307888H0.00604015Z" fill="black" style="fill:black;fill-opacity:1;"/>
<path d="M64.519 4.09774C64.519 4.90156 64.52 5.70437 64.519 6.50819C64.519 6.87137 64.5924 7.26976 64.197 7.49511C63.9284 7.64803 63.1035 7.46896 62.8389 7.18626C62.2353 6.53838 61.6458 5.87741 61.0623 5.21142C60.679 4.77379 60.3228 4.31102 59.9375 3.8754C59.8631 3.7919 59.6548 3.7084 59.6015 3.74864C59.4848 3.83617 59.3631 4.00116 59.359 4.13798C59.3399 4.73959 59.361 5.3422 59.3671 5.94381C59.3691 6.14502 59.3671 6.34522 59.3711 6.54642C59.3983 7.58968 59.0653 7.55447 58.19 7.51523C57.7957 7.49813 57.6759 7.15306 57.6749 6.82107C57.6669 4.99713 57.6659 3.17219 57.6961 1.34925C57.7001 1.1229 57.8963 0.716459 58.023 0.70841C58.4486 0.681247 59.0381 0.640001 59.2866 0.885473C60.3258 1.91666 61.2625 3.05146 62.2433 4.142C62.3349 4.24361 62.4727 4.30498 62.5884 4.38446C62.6749 4.23758 62.8329 4.09271 62.8369 3.94381C62.856 3.1581 62.8309 2.37139 62.8319 1.58467C62.8339 0.667165 63.2685 0.340202 64.1407 0.661127C64.3178 0.726519 64.4858 1.06656 64.4958 1.28688C64.5351 2.22249 64.5119 3.16112 64.5119 4.09774C64.514 4.09774 64.517 4.09774 64.519 4.09774Z" fill="black" style="fill:black;fill-opacity:1;"/>
<path d="M31.7404 14.4174C31.7404 13.6136 31.7404 12.8108 31.7404 12.0069C31.7404 11.5914 31.6548 11.1327 32.1589 10.9285C32.6941 10.7112 33.189 10.9224 33.5401 11.2816C34.3902 12.1528 35.181 13.0824 35.9949 13.9878C36.017 14.013 36.0311 14.0492 36.0572 14.0653C36.3027 14.2102 36.5502 14.352 36.7977 14.4949C36.8419 14.2323 36.9204 13.9707 36.9254 13.7071C36.9385 13.021 36.9013 12.3349 36.9194 11.6488C36.9345 11.0804 37.179 10.848 37.6699 10.856C38.3741 10.8681 38.6025 11.0512 38.6055 11.675C38.6156 13.4496 38.6216 15.2232 38.5955 16.9979C38.5914 17.2454 38.4526 17.6488 38.2866 17.7021C37.9687 17.8037 37.4979 17.8349 37.2494 17.6639C36.7514 17.3208 36.343 16.8379 35.9275 16.3852C35.3188 15.7212 34.7494 15.02 34.1337 14.3631C33.9939 14.2132 33.7313 14.179 33.5251 14.0914C33.4667 14.2856 33.3611 14.4788 33.357 14.6749C33.341 15.4949 33.3631 16.3148 33.357 17.1357C33.353 17.6508 33.1277 17.8379 32.5482 17.8399C31.9768 17.8419 31.7484 17.6498 31.7434 17.1287C31.7353 16.2252 31.7414 15.3208 31.7404 14.4174Z" fill="black" style="fill:black;fill-opacity:1;"/>
<path d="M47.022 24.6047C47.022 25.4417 47.026 26.2787 47.02 27.1158C47.018 27.4155 47.1749 27.8139 46.7484 27.9316C46.3027 28.0544 45.8037 28.1691 45.4284 27.7616C44.525 26.7787 43.6407 25.7777 42.7504 24.7838C42.684 24.7093 42.6377 24.6017 42.5562 24.5594C42.3439 24.4488 42.1166 24.3663 41.8953 24.2717C41.851 24.484 41.7695 24.6952 41.7685 24.9075C41.7645 25.7606 41.8077 26.6147 41.7796 27.4669C41.7735 27.6379 41.5602 27.8904 41.3902 27.9457C41.1347 28.0292 40.8289 28.0021 40.5522 27.9669C40.2433 27.9276 40.1196 27.7184 40.1206 27.3954C40.1317 25.5554 40.1327 23.7143 40.1256 21.8743C40.1246 21.492 40.2987 21.2576 40.6528 21.1912C41.1669 21.0956 41.6518 21.154 42.0321 21.5775C42.8248 22.4588 43.6126 23.3461 44.4274 24.2063C44.6407 24.4317 44.9476 24.5695 45.2111 24.7475C45.2594 24.4477 45.3419 24.15 45.348 23.8492C45.362 23.163 45.3278 22.4769 45.3359 21.7908C45.3409 21.3371 45.5733 21.1459 46.0492 21.151C46.8037 21.158 47.028 21.3119 47.0311 21.8441C47.0361 22.7647 47.0321 23.6852 47.0321 24.6057C47.029 24.6057 47.025 24.6057 47.022 24.6057V24.6047Z" fill="black" style="fill:black;fill-opacity:1;"/>
<path d="M31.6789 4.02529C31.6789 4.91261 31.68 5.80094 31.6789 6.68826C31.6779 7.40455 31.1397 7.78383 30.4999 7.43976C30.0723 7.21039 29.7001 6.84621 29.3641 6.48504C28.5331 5.59369 27.7403 4.66714 26.9244 3.76171C26.846 3.67418 26.7122 3.63696 26.6035 3.5766C26.5512 3.70637 26.4536 3.83615 26.4546 3.96593C26.4607 4.82005 26.4918 5.67317 26.5069 6.52629C26.522 7.42769 26.0371 7.77679 25.177 7.48202C24.7856 7.34822 24.8148 6.9951 24.8128 6.68222C24.8077 5.56049 24.8168 4.43776 24.8178 3.31603C24.8178 2.74662 24.7846 2.17519 24.8248 1.60879C24.846 1.31503 24.9104 0.883444 25.1025 0.774792C25.4818 0.560507 25.9848 0.477008 26.3802 0.811011C26.7997 1.16513 27.1971 1.55145 27.5673 1.95688C28.1629 2.6098 28.7142 3.30295 29.3148 3.94983C29.4546 4.10074 29.7192 4.13495 29.9254 4.22247C29.9717 4.03233 30.0552 3.84219 30.0582 3.65104C30.0703 2.84722 30.0472 2.0434 30.0582 1.23958C30.0643 0.79793 30.3027 0.62791 30.847 0.62288C31.4194 0.61785 31.6588 0.789884 31.6649 1.26071C31.6769 2.18223 31.6689 3.10276 31.6689 4.02428C31.6719 4.02428 31.6749 4.02428 31.6779 4.02428L31.6789 4.02529Z" fill="black" style="fill:black;fill-opacity:1;"/>
<path d="M48.528 4.06758C48.4134 2.4368 49.8208 1.04545 51.362 0.694349C52.8308 0.360346 54.1669 0.652095 55.3228 1.68429C56.4304 2.67422 56.6236 4.72854 55.7896 5.95087C54.9988 7.10882 53.8308 7.44986 52.5824 7.62894C50.9133 7.86837 49.014 6.53638 48.6216 4.90862C48.5562 4.63699 48.5582 4.34826 48.529 4.06657L48.528 4.06758ZM52.4063 2.09575C51.1498 2.04646 50.2373 2.83317 50.2564 4.06858C50.2745 5.26677 50.9757 6.23156 52.3751 6.23558C53.4888 6.2386 54.5361 5.62592 54.5502 4.20138C54.5612 3.06657 54.029 2.05149 52.4063 2.09575Z" fill="black" style="fill:black;fill-opacity:1;"/>
<path d="M54.03 24.326C54.9536 24.3286 55.4144 24.7968 55.4123 25.7304C55.4123 25.7636 55.4123 25.7978 55.4123 25.831C55.4797 27.3873 55.2584 27.4064 53.9305 27.8612C52.4888 28.3541 50.9526 28.2253 49.7152 27.2988C47.7182 25.8028 47.86 22.9366 49.9194 21.7274C51.4254 20.8431 52.9757 20.9467 54.5572 21.3853C54.9948 21.507 55.2675 22.2636 55.0582 22.6569C54.9013 22.9517 54.6226 23.003 54.3741 22.836C53.5562 22.2897 52.6417 22.4567 51.7886 22.5573C50.8299 22.67 50.022 23.6841 50.0371 24.5926C50.0522 25.5624 50.8359 26.4376 51.8359 26.5664C52.2292 26.6177 52.6468 26.6328 53.029 26.5513C53.2383 26.507 53.3973 26.2264 53.5793 26.0523C53.4244 25.9266 53.2886 25.7555 53.1125 25.6851C52.7101 25.5251 52.5924 25.2455 52.6578 24.8491C52.7252 24.4386 52.9918 24.3028 53.3791 24.3239C53.5964 24.336 53.8138 24.326 54.0311 24.326H54.03Z" fill="black" style="fill:black;fill-opacity:1;"/>
<path d="M40.1025 5.32308C40.1277 5.95889 40.2303 6.62891 39.5391 7.01221C39.2363 7.18022 38.9053 7.32609 38.5693 7.39752C36.8621 7.76271 35.2534 7.69933 33.9305 6.32509C32.4547 4.7919 32.8641 1.85528 35.0995 1.01323C36.2001 0.598746 37.2635 0.480034 38.3812 0.655084C38.7997 0.720476 39.2082 0.916653 39.5955 1.1078C39.9214 1.26876 39.9607 2.14804 39.6639 2.36232C39.5804 2.42268 39.4094 2.41766 39.2997 2.37943C38.2645 2.01826 37.2162 1.9076 36.1518 2.21745C35.2565 2.47802 34.4265 3.68626 34.9235 4.85427C35.3762 5.91865 36.8098 6.51121 37.8852 6.07962C38.0251 6.02328 38.188 5.8261 38.1941 5.68727C38.2011 5.52127 38.0965 5.27881 37.9617 5.19129C37.6247 4.97197 37.1689 4.83515 37.3269 4.31503C37.4909 3.77781 37.9909 3.91463 38.3943 3.90256C38.7454 3.8925 39.0975 3.88948 39.4486 3.90457C39.9868 3.92771 40.1206 4.08566 40.1045 4.61886C40.0975 4.85326 40.1035 5.08767 40.1035 5.32107L40.1025 5.32308Z" fill="black" style="fill:black;fill-opacity:1;"/>
<path d="M47.4344 14.4265C47.4344 13.5392 47.4314 12.6519 47.4344 11.7645C47.4375 11.0814 47.6598 10.8662 48.3419 10.8692C48.9948 10.8722 49.6477 10.8843 50.3006 10.8722C51.2362 10.8561 51.9867 11.1861 52.529 11.9698C52.86 12.4476 52.8097 13.4094 52.4093 13.8511C51.7473 14.5814 51.7644 14.5714 52.2624 15.3873C52.5924 15.9265 52.8882 16.4899 53.1608 17.0613C53.4113 17.5885 53.2101 17.8551 52.6306 17.8279C51.6688 17.7826 51.358 17.515 51.028 16.5865C50.8791 16.169 50.69 15.7273 50.3952 15.4134C50.1829 15.1871 49.7544 15.0382 49.4415 15.0653C49.0461 15.0995 49.02 15.508 49.0381 15.8661C49.0582 16.2675 49.0552 16.67 49.0511 17.0714C49.0451 17.6579 48.853 17.84 48.2594 17.839C47.6588 17.838 47.4475 17.6508 47.4435 17.0885C47.4365 16.2011 47.4415 15.3138 47.4415 14.4265C47.4395 14.4265 47.4365 14.4265 47.4344 14.4265ZM50.9576 12.8501C50.9445 12.4466 50.4777 12.1549 49.8851 12.18C49.3298 12.2032 49.0602 12.4527 49.0803 12.9215C49.1035 13.4527 49.4063 13.7293 49.9586 13.7243C50.4576 13.7203 50.9707 13.2716 50.9566 12.8501H50.9576Z" fill="black" style="fill:black;fill-opacity:1;"/>
<path d="M78.9938 24.6137C78.9938 25.6007 78.9827 26.5886 78.9998 27.5755C79.0059 27.9296 78.8841 28.0685 78.533 28.0202C78.3519 27.995 78.1648 28.0061 77.9827 27.985C77.6477 27.9457 77.4817 27.7687 77.4978 27.4125C77.522 26.8944 77.5079 26.3753 77.5401 25.8572C77.5652 25.4407 77.4123 25.2093 76.9837 25.2073C76.2312 25.2043 75.4777 25.2053 74.7252 25.2123C74.2805 25.2164 74.1085 25.4508 74.1387 25.8934C74.1729 26.3934 74.1568 26.8964 74.1799 27.3984C74.198 27.8029 73.9968 27.987 73.6186 28.0101C73.4355 28.0212 73.2503 28.0111 73.0672 28.0031C72.6165 27.9829 72.4415 27.7757 72.4495 27.2958C72.4777 25.5393 72.4677 23.7817 72.4596 22.0252C72.4566 21.325 72.6437 21.1479 73.4626 21.1479C73.9938 21.1479 74.1799 21.3803 74.1689 22.0011C74.1608 22.4528 74.1618 22.9045 74.1689 23.3562C74.1759 23.7606 74.3942 23.9749 74.7976 23.9819C75.5169 23.995 76.2363 24.0111 76.9556 24.0021C77.3157 23.997 77.4998 23.7717 77.5049 23.4155C77.5109 22.9135 77.4767 22.4095 77.5179 21.9115C77.536 21.6902 77.6487 21.3451 77.8006 21.2928C78.1296 21.1791 78.5129 21.2003 78.8721 21.2133C78.9183 21.2154 78.9867 21.498 78.9888 21.652C78.9998 22.6389 78.9938 23.6268 78.9938 24.6137Z" fill="black" style="fill:black;fill-opacity:1;"/>
<path d="M25.2505 14.3853C25.2505 13.498 25.2465 12.6106 25.2515 11.7233C25.2555 10.9939 25.4135 10.8642 26.1378 10.8702C27.2927 10.8803 28.4477 10.8722 29.6026 10.8622C30.1106 10.8571 30.3219 11.0623 30.3118 11.5895C30.3018 12.0794 30.0996 12.2364 29.5724 12.2183C28.8873 12.1941 28.2002 12.1972 27.5141 12.1851C27.0412 12.177 26.9094 12.4758 26.9135 12.8722C26.9175 13.2605 27.0312 13.5694 27.511 13.5633C28.1801 13.5553 28.8501 13.5603 29.5191 13.5573C29.9446 13.5553 30.1821 13.7414 30.18 14.1871C30.178 14.6348 29.9436 14.8088 29.511 14.7978C28.8923 14.7817 28.2706 14.8149 27.6539 14.7716C27.1972 14.7394 26.9869 14.9336 26.9497 15.3481C26.9275 15.5945 26.9326 15.8511 26.9758 16.0935C27.0292 16.3913 27.2213 16.5402 27.5513 16.5251C28.2535 16.4939 28.9557 16.4869 29.6579 16.4718C30.1187 16.4617 30.3249 16.6961 30.3098 17.2082C30.2957 17.6639 30.0966 17.842 29.6599 17.839C28.4054 17.8309 27.1509 17.8239 25.8974 17.844C25.4205 17.8521 25.2676 17.5996 25.2636 17.1971C25.2545 16.2595 25.2605 15.3219 25.2605 14.3853H25.2495H25.2505Z" fill="black" style="fill:black;fill-opacity:1;"/>
<path d="M54.2957 14.3411C54.2957 13.4879 54.2936 12.6348 54.2957 11.7807C54.2977 11.0714 54.521 10.8642 55.2232 10.8702C56.3278 10.8793 57.4325 10.8521 58.5351 10.8914C58.7936 10.9004 59.1447 11.0483 59.2785 11.2495C59.5582 11.668 59.2755 12.1499 58.7634 12.1761C58.0964 12.2103 57.4254 12.1861 56.7564 12.1892C56.2051 12.1912 55.9586 12.3954 55.9506 12.8511C55.9415 13.33 56.2041 13.5594 56.7645 13.5574C57.3329 13.5553 57.9023 13.5413 58.4707 13.5483C58.853 13.5533 59.183 13.6519 59.1689 14.1368C59.1558 14.5946 58.8892 14.7988 58.4566 14.8008C57.8882 14.8028 57.3188 14.7887 56.7504 14.7827C56.2121 14.7767 55.9717 15.0372 55.9596 15.6378C55.9486 16.2324 56.191 16.505 56.7343 16.503C57.353 16.501 57.9727 16.4819 58.5914 16.496C59.1417 16.5081 59.355 16.7032 59.361 17.1408C59.3681 17.5805 59.1538 17.7887 58.6085 17.7988C57.3882 17.8219 56.1669 17.829 54.9455 17.833C54.4647 17.835 54.3138 17.5101 54.3097 17.0996C54.2997 16.1791 54.3067 15.2596 54.3067 14.339C54.3027 14.339 54.2977 14.339 54.2936 14.339L54.2957 14.3411Z" fill="black" style="fill:black;fill-opacity:1;"/>
<path d="M68.687 28.1891C68.0039 27.9979 67.3097 27.838 66.6417 27.6056C66.1709 27.4416 65.9787 26.7384 66.2856 26.345C66.364 26.2444 66.6799 26.2273 66.8268 26.2977C67.4667 26.6036 68.0954 26.8933 68.8379 26.7766C69.185 26.7223 69.4556 26.6026 69.525 26.2313C69.5934 25.8641 69.3157 25.7444 69.0522 25.6197C68.3942 25.3078 67.7323 25.003 67.0824 24.675C66.3469 24.3038 66.029 23.6971 66.1025 22.8662C66.1679 22.1207 66.697 21.5181 67.4023 21.2555C68.4405 20.8702 69.4415 21.0392 70.4425 21.3611C70.8168 21.4819 71.1347 22.2042 70.9174 22.5241C70.8308 22.6509 70.5159 22.6901 70.3218 22.6609C69.863 22.5935 69.4163 22.4517 68.9606 22.3601C68.8007 22.3279 68.6256 22.3289 68.4646 22.3571C68.19 22.4054 67.859 22.4275 67.8439 22.8128C67.8288 23.2032 68.0673 23.4064 68.4234 23.5281C69.3057 23.8269 70.2021 24.0996 70.8469 24.845C71.4455 25.5392 71.4204 26.5835 70.7976 27.2565C70.2312 27.8692 69.521 28.0804 68.7141 28.0633C68.7051 28.1056 68.697 28.1468 68.688 28.1891H68.687Z" fill="black" style="fill:black;fill-opacity:1;"/>
<path d="M11.4808 0.536377C12.1177 0.752674 12.7827 0.802973 13.3994 1.06756C13.7887 1.23557 13.8973 1.62088 13.6881 2.00317C13.4738 2.39452 13.1267 2.25367 12.8038 2.142C12.4879 2.03335 12.174 1.8744 11.8501 1.85025C11.5362 1.82711 11.18 1.88245 10.8984 2.01927C10.513 2.20639 10.5211 2.63898 10.8933 2.84723C11.2545 3.04945 11.666 3.16313 12.0261 3.36635C12.5553 3.66413 13.1328 3.93073 13.5573 4.34622C14.7344 5.49813 13.6992 7.13696 12.4829 7.4609C11.4175 7.7436 10.4396 7.50517 9.45067 7.20738C9.05329 7.08766 8.80379 6.04038 9.11667 5.78787C9.21023 5.71242 9.47381 5.73958 9.59051 5.82006C10.337 6.33414 11.1529 6.34924 11.9889 6.18324C12.336 6.11483 12.4668 5.76473 12.2364 5.48203C12.0573 5.26272 11.7786 5.11081 11.5201 4.97399C10.834 4.6098 10.0996 4.3261 9.45168 3.90759C8.67603 3.40759 8.67502 1.81806 9.40641 1.24362C9.96476 0.804985 10.5935 0.538385 11.3098 0.538385C11.3933 0.538385 11.4305 0.536377 11.4808 0.536377Z" fill="black" style="fill:black;fill-opacity:1;"/>
<path d="M44.3208 0.622711C45.2403 0.622711 46.1598 0.63579 47.0793 0.617682C47.528 0.608627 47.6809 0.846053 47.684 1.23237C47.687 1.61869 47.5834 1.94061 47.0984 1.92754C46.8147 1.92049 46.53 1.91245 46.2463 1.90239C45.5129 1.87623 45.3298 2.05027 45.3298 2.79876C45.3298 4.03618 45.3339 5.27361 45.3439 6.51103C45.352 7.43758 44.692 7.87319 43.8711 7.4235C43.6799 7.31887 43.526 6.97078 43.52 6.73135C43.4908 5.47783 43.5109 4.22331 43.522 2.96878C43.53 2.09051 43.3198 1.88025 42.4234 1.90339C42.1397 1.91043 41.855 1.91748 41.5713 1.92754C41.0934 1.94464 40.9677 1.64182 40.9697 1.24746C40.9727 0.868185 41.1085 0.610639 41.5622 0.617682C42.4818 0.632772 43.4013 0.622711 44.3208 0.622711Z" fill="black" style="fill:black;fill-opacity:1;"/>
<path d="M43.0844 10.8813C43.9708 10.8813 44.8581 10.8773 45.7444 10.8834C46.177 10.8864 46.4436 11.0785 46.4426 11.5483C46.4416 11.9226 46.2836 12.163 45.8883 12.1781C45.4708 12.1942 45.0522 12.1821 44.6347 12.1992C43.9647 12.2264 43.846 12.3723 43.851 13.0685C43.8601 14.3562 43.8631 15.6449 43.8591 16.9326C43.8561 17.7284 43.0482 18.2063 42.3742 17.7767C42.2022 17.667 42.1086 17.32 42.1036 17.0805C42.0794 15.7425 42.0875 14.4035 42.0975 13.0654C42.1026 12.2938 42.003 12.1781 41.2514 12.1912C40.9838 12.1962 40.7172 12.2123 40.4496 12.2204C39.9768 12.2355 39.7414 12.0272 39.7333 11.5896C39.7243 11.1188 39.9607 10.8652 40.4255 10.8642C40.8772 10.8622 41.3289 10.8743 41.7806 10.8773C42.2152 10.8793 42.6508 10.8773 43.0855 10.8773V10.8803L43.0844 10.8813Z" fill="black" style="fill:black;fill-opacity:1;"/>
<path d="M15.173 4.03116C15.173 3.14485 15.166 2.25853 15.176 1.37222C15.18 0.968799 15.2203 0.600592 15.7947 0.615683C16.7907 0.640833 16.9346 0.693145 16.9436 1.37725C16.9617 2.73137 16.9456 4.08549 16.9315 5.43961C16.9245 6.04323 17.0734 6.24142 17.672 6.2545C18.3742 6.26959 19.0764 6.23639 19.7786 6.25651C20.3732 6.27361 20.6317 6.59454 20.4124 7.08548C20.3259 7.27965 20.0291 7.49393 19.8229 7.49997C18.4366 7.54122 17.0482 7.54625 15.6609 7.52613C15.17 7.51908 15.175 7.0875 15.17 6.73941C15.1569 5.837 15.166 4.93358 15.166 4.03116C15.169 4.03116 15.172 4.03116 15.175 4.03116H15.173Z" fill="black" style="fill:black;fill-opacity:1;"/>
<path d="M56.7675 24.6146C56.7675 23.7112 56.7685 22.8078 56.7675 21.9044C56.7675 21.3068 56.9929 21.1388 57.7866 21.1489C58.2735 21.1549 58.4707 21.3943 58.4647 21.9295C58.4486 23.2344 58.4345 24.5392 58.4355 25.844C58.4355 26.6378 58.5874 26.7826 59.3762 26.7887C59.9446 26.7927 60.514 26.7716 61.0824 26.7756C61.2635 26.7766 61.5009 26.7635 61.6116 26.8661C61.7876 27.0291 61.9778 27.2857 61.9737 27.4989C61.9707 27.6639 61.689 27.836 61.51 27.9778C61.4436 28.0301 61.3158 28.012 61.2162 28.013C59.9778 28.013 58.7403 28.0221 57.5019 28.006C56.854 27.9979 56.7655 27.8712 56.7736 27.2253C56.7836 26.3551 56.7766 25.4849 56.7766 24.6156C56.7746 24.6156 56.7725 24.6156 56.7705 24.6156L56.7675 24.6146Z" fill="black" style="fill:black;fill-opacity:1;"/>
<path d="M71.3439 15.4154C71.3781 17.0704 70.0964 17.8541 68.7121 17.8782C67.4887 17.9003 66.0793 16.9134 66.1487 15.3883C66.2091 14.0684 67.4545 13.008 68.7101 13.01C70.0913 13.013 71.4163 13.9084 71.3429 15.4144L71.3439 15.4154ZM67.7483 15.4215C67.7312 15.4255 67.7654 15.4175 67.7483 15.4215C67.8167 15.7434 67.7966 16.0925 67.9093 16.3983C68.0561 16.7967 68.4143 16.9084 68.8097 16.8853C69.1638 16.8641 69.4907 16.7454 69.5863 16.3682C69.7201 15.844 69.8942 15.334 69.6779 14.7595C69.4354 14.1156 69.3046 13.9668 68.5994 13.9979C68.0531 14.0221 67.8871 14.1981 67.7926 14.8722C67.7674 15.0533 67.7634 15.2384 67.7493 15.4205L67.7483 15.4215Z" fill="black" style="fill:black;fill-opacity:1;"/>
<path d="M63.5129 15.9537C63.5129 15.6358 63.5089 15.3189 63.5139 15.001C63.521 14.6156 63.4576 14.2857 63.0763 14.0643C62.7775 13.8903 62.7835 13.5975 62.9445 13.3179C63.2473 12.7907 63.5662 12.2736 63.865 11.7444C64.2735 11.0231 64.9344 10.7726 65.7071 10.7686C66.0934 10.7666 66.3821 10.9758 66.4284 11.3933C66.4757 11.8138 66.1688 11.9235 65.8449 12.01C65.6678 12.0563 65.4807 12.0915 65.3238 12.178C65.0018 12.3551 64.9686 12.7414 65.2272 13.0311C65.7835 13.6519 65.7574 13.6468 65.2202 14.2183C65.0411 14.4094 64.9707 14.7575 64.9566 15.0382C64.9214 15.7213 64.9646 16.4074 64.9455 17.0925C64.9304 17.6549 64.7483 17.8118 64.2101 17.8048C63.697 17.7987 63.5371 17.6478 63.5139 17.1066C63.4978 16.7233 63.5109 16.338 63.5109 15.9537C63.5109 15.9537 63.5119 15.9537 63.5129 15.9537Z" fill="black" style="fill:black;fill-opacity:1;"/>
<path d="M23.1257 4.06956C23.1257 4.92267 23.1236 5.77579 23.1257 6.6289C23.1277 7.29389 22.9416 7.5283 22.4033 7.53132C21.6015 7.53534 21.4526 7.40556 21.4506 6.67619C21.4456 4.96996 21.4396 3.26372 21.4446 1.55649C21.4466 0.848238 21.5492 0.722482 22.1005 0.649042C22.9164 0.54039 23.1166 0.715442 23.1216 1.5595C23.1267 2.39552 23.1226 3.23253 23.1226 4.06855C23.1236 4.06855 23.1247 4.06855 23.1257 4.06855V4.06956Z" fill="black" style="fill:black;fill-opacity:1;"/>
<path d="M63.1266 24.6237C63.1266 23.7203 63.1266 22.8169 63.1266 21.9135C63.1266 21.3934 63.3871 21.1519 63.9545 21.1499C64.5129 21.1479 64.7885 21.4054 64.7885 21.9115C64.7865 23.7515 64.7996 25.5916 64.7755 27.4306C64.7734 27.6076 64.5843 27.8763 64.4223 27.9346C64.1708 28.0262 63.864 28.002 63.5863 27.9748C63.2523 27.9426 63.1145 27.7324 63.1215 27.3833C63.1386 26.4638 63.1276 25.5433 63.1276 24.6227L63.1266 24.6237Z" fill="black" style="fill:black;fill-opacity:1;"/>
<path d="M72.361 15.4971C72.361 14.9619 72.3237 14.4226 72.3771 13.8924C72.4042 13.6259 72.5672 13.1772 72.7161 13.157C73.0612 13.1098 73.5431 13.1601 73.7714 13.3774C74.1587 13.7476 74.3791 13.7305 74.7111 13.3673C75.0762 12.9679 75.4495 12.9397 75.877 13.2023C76.1638 13.3784 76.3167 13.6098 76.2352 13.9538C76.1497 14.313 75.9183 14.481 75.5501 14.4931C75.2704 14.5021 74.9555 14.4629 74.7201 14.5766C74.2654 14.7959 73.9636 15.1782 73.9555 15.7244C73.9475 16.2264 73.9646 16.7295 73.9264 17.2285C73.8901 17.7003 73.5722 17.8723 72.9042 17.8492C72.4787 17.8341 72.3791 17.5504 72.374 17.2023C72.367 16.6339 72.372 16.0645 72.372 15.4961C72.369 15.4961 72.366 15.4961 72.363 15.4961L72.361 15.4971Z" fill="black" style="fill:black;fill-opacity:1;"/>
</svg>
