<svg id="Layer_1" data-name="Layer 1" xmlns="http://www.w3.org/2000/svg" viewBox="0 0 762.83 174.22"><title>jennifer-cooper (1)</title><path d="M481.23,535.92a1.13,1.13,0,0,1-1.12-.94,1.14,1.14,0,0,1,.92-1.32c15.23-2.65,35-3.63,52.4-4.49,11.92-.59,22.22-1.1,28.32-2a1.14,1.14,0,0,1,1.3,1,1.13,1.13,0,0,1-.95,1.29c-6.23,1-16.57,1.47-28.55,2.07-17.36.86-37,1.83-52.13,4.46Z" transform="translate(-118.59 -412.31)"/><path d="M533.76,511.8c-13.36,18.55-27,37.51-36.93,58.1-8.24,18.51-.26,15.66,11.57,6A255.32,255.32,0,0,0,533,551.83a1.14,1.14,0,1,1,1.7,1.51c-9.75,10.71-19.6,21.66-31.61,30-3.16,2-8.71,5.37-11.75,1.18-5.05-9,14.44-37.59,19.57-46.38q9.34-14.67,19.47-28.81a2.08,2.08,0,0,1,3.36,2.46Z" transform="translate(-118.59 -412.31)"/><path d="M520.57,586.43a4.47,4.47,0,0,1-3.62-1.52c-5.45-6.54,13-29.81,16.73-34.41a1.12,1.12,0,0,1,1.59-.16,1.14,1.14,0,0,1,.17,1.6c-8.23,10.08-20,27.56-16.75,31.51a2.53,2.53,0,0,0,2.27.7c8.15-.63,27.15-17.48,35.68-31.64a1.13,1.13,0,0,1,1.56-.38,1.12,1.12,0,0,1,.38,1.55c-9,14.92-28.58,32.05-37.44,32.73Z" transform="translate(-118.59 -412.31)"/><path d="M640,585.27a5.83,5.83,0,0,1-3.22-.89c-2.22-1.43-3.8-5.11-1-10.78l.06-.12c-.91.7-1.81,1.34-2.69,1.92-11.45,7.48-19.69,10.09-24.48,7.75-2.61-1.28-4.1-3.95-4.43-7.93-.78-9.53.4-10.68,6.29-11.84a45.49,45.49,0,0,0,5.76-1.45c6.28-2.1,10.34-7.47,11-11.46A3.1,3.1,0,0,0,627,548c-2.31.49-12.08,9-20,15.84-14.32,12.43-23.31,20-26.65,19.69a1.9,1.9,0,0,1-1.38-.68c-2.16-2.59.58-8.25,3.75-14.8,1.94-4,5.17-10.66,3.84-11.54-1.95-1.2-14.8,8.92-28.12,22.15a1.13,1.13,0,0,1-1.74-1.44c3.67-5.43,9.08-15.32,8-18.76a1.27,1.27,0,0,0-.81-.9c-3.32-1.3-14.68,11.8-23.75,25.2a1.14,1.14,0,0,1-1.9-1.25L555.07,555a1.14,1.14,0,0,1,1.92,1.22l-4.2,6.62c4.57-4.87,9.11-8.42,11.89-7.35a3.57,3.57,0,0,1,2.16,2.35c1,3.1-1.36,8.66-3.81,13.25,8.88-8.34,21.16-18.79,24.75-16.43,3,2,.2,7.75-3,14.43-2,4.23-5.12,10.57-4.14,12.24h0c2.79,0,16-11.5,24.84-19.16C621.8,548,626.17,544.59,628.13,546c1.27.94,1.78,2.64,1.44,4.79-.74,4.65-5.37,10.88-12.51,13.26a45.86,45.86,0,0,1-6,1.53c-4.57.9-5.16,1-4.47,9.43.26,3.17,1.3,5.15,3.17,6.06,3.92,1.92,11.81-.79,22.23-7.6,12-7.82,26.78-27.81,29.63-31.74a1.34,1.34,0,0,1,1.52-.4,1.25,1.25,0,0,1,.69,1.42,191.7,191.7,0,0,1-6.59,22.3,135.54,135.54,0,0,1,16.55-.82,1.14,1.14,0,0,1,0,2.27h0a134.3,134.3,0,0,0-17.47,1c-1.9,4.71-4.06,9-6.4,11.9C646.46,583.62,642.86,585.26,640,585.27Zm13.61-17.36c-7.35,1.16-14,3.21-15.77,6.7s-1.71,6.65.17,7.87c2.09,1.35,6.22.24,10.06-4.48A43,43,0,0,0,653.64,567.91Zm6.73-20.73A185.23,185.23,0,0,1,641.13,569c3.66-1.78,8.59-2.91,13.51-3.61A174.93,174.93,0,0,0,660.37,547.18Z" transform="translate(-118.59 -412.31)"/><path d="M669.14,584.27a4.43,4.43,0,0,1-1.38-.2c-1.24-.41-3.09-1.74-1.7-6.12,2.86-9,21.43-31.81,27.15-30,3,1,3.47,4.57,2.79,9.19a1.07,1.07,0,0,1,.44.19,1.14,1.14,0,0,1,.26,1.59c-.25.34-.74,1-1.42,1.91-.65,2.84-1.54,5.86-2.4,8.76-.55,1.86-1.07,3.63-1.47,5.17-.33,1.27-.71,3.5.45,4.24,1.93,1.22,8.2-.66,19.59-10a46,46,0,0,0,9.46-11.15c.53-.81,1.05-1.59,1.57-2.35a1.14,1.14,0,0,1,1.87,1.3c-.51.74-1,1.51-1.55,2.3a47.37,47.37,0,0,1-9.91,11.65c-10.77,8.85-18.68,12.45-22.26,10.17-1.24-.79-2.49-2.6-1.42-6.72.41-1.57.94-3.36,1.49-5.24.33-1.12.69-2.33,1-3.58C685.61,572.94,675.42,584.27,669.14,584.27Zm23.15-34.22c-3.59,0-20.77,18.3-24.06,28.59-.42,1.32-.72,3,.23,3.27,4.78,1.54,17-11.89,24.7-22.06,1.08-4.84,1.46-9.11-.63-9.77A.88.88,0,0,0,692.29,550.05Z" transform="translate(-118.59 -412.31)"/><path d="M763.84,586.29a7.63,7.63,0,0,1-1.28-.1,7.16,7.16,0,0,1-5.43-4.43c-2.09-4.46-1.57-9.45.25-14.2-9.81-.07-13.88-3.82-15.41-6-6.7,8.39-21.35,25.68-27.41,24.5a3.32,3.32,0,0,1-2.58-2.58c-3.07-10.34,13.28-32,14-33a1.13,1.13,0,0,1,1.8,1.38c-.16.21-16.35,21.68-13.6,30.92.26.89.66,1,.83,1,3.78.71,16.1-12.18,25.85-24.5a1.53,1.53,0,0,1,1.35-.58,1.55,1.55,0,0,1,1.23.84c.78,1.51,4,5.93,14.93,5.7,3.46-7.3,9.58-13.69,13.28-16.2,2.61-1.76,4.47-2.08,5.54-.93A10.41,10.41,0,0,1,779,558.22c-1.21,3.36-4.87,7.63-15.45,8.95-1.29.16-2.51.27-3.65.33-1.92,4.59-2.57,9.33-.72,13.3a5,5,0,0,0,3.75,3.15c8.55,1.39,25.84-16.63,34.12-25.3l1.66-1.73a24.32,24.32,0,0,0,6.78-12.51,11.76,11.76,0,0,1-6.43-1.61,3.59,3.59,0,0,1-1.4-4.72c1.53-3.11,3.14-4.92,4.78-5.4a3.07,3.07,0,0,1,2.55.37c1.52.93,2.6,3.1,3,6a16,16,0,0,1,.1,2.84c.3-.06.61-.13.93-.22,4.5-1.18,7.88-.62,9.51,1.57,1.17,1.57,1.87,4.6-1.47,10.11l-1.48,2.42c-4.63,7.55-14.27,23.25-11,27.42a.81.81,0,0,0,.69.29c4.46.17,18.35-12,26-19.86a1.14,1.14,0,0,1,1.62,1.6c-2.11,2.14-20.74,20.93-27.79,20.53a3.12,3.12,0,0,1-2.35-1.16c-3.9-5,3.24-17.56,10.88-30l1.47-2.41c2.06-3.41,2.64-6.17,1.59-7.58s-3.68-1.63-7.12-.73a17.37,17.37,0,0,1-1.73.37,26.29,26.29,0,0,1-7.47,14.31l-1.65,1.72C789.87,569.45,773.77,586.29,763.84,586.29Zm11.58-36.59c-.94,0-4.65,2.28-8.88,7.24a43.49,43.49,0,0,0-5.55,8.21c.73-.06,1.49-.13,2.28-.23,7.47-.93,12.17-3.52,13.6-7.47a8.16,8.16,0,0,0-1.35-7.74Zm27.91-14.87a.78.78,0,0,0-.26,0c-.94.27-2.21,1.84-3.37,4.21a1.35,1.35,0,0,0,.51,1.77,10.06,10.06,0,0,0,5.56,1.28,15.58,15.58,0,0,0-.07-2.84c-.32-2.52-1.22-3.9-1.9-4.31A.89.89,0,0,0,803.33,534.83Z" transform="translate(-118.59 -412.31)"/><path d="M544.78,543.83a1.5,1.5,0,0,1-1.08-.44L541,540.66a1.24,1.24,0,0,1,.11-1.87,1.54,1.54,0,0,1,2,.1l2.71,2.73a1.24,1.24,0,0,1-.11,1.87A1.51,1.51,0,0,1,544.78,543.83Z" transform="translate(-118.59 -412.31)"/><path d="M157.12,458.53l-2.36-.4v-.2H173.3v.2l-2.37.4a3.88,3.88,0,0,0-3.38,3.62c0,9.4.06,32.1.06,43.24,0,18.87-9.4,22.5-16.17,22.5-4.13,0-6.9-1.85-6.9-4.62a3,3,0,0,1,3.18-3.1c3.52,0,1.83,5.54,5.34,5.54,3.12,0,7.38-1.18,7.38-7.26,0-14.65,0-45.07.06-56.27A3.87,3.87,0,0,0,157.12,458.53Z" transform="translate(-118.59 -412.31)"/><path d="M219.11,468.16h-.2l-1.56-3.63a8.6,8.6,0,0,0-7.71-5.28H194.21v24.16h11.23a7.33,7.33,0,0,0,7-5.28l1.08-3.63h.21v19.34h-.21l-1.08-3.63a7.33,7.33,0,0,0-7-5.28H194.21v23.49c0,2.18.54,3.63,5.07,3.63h10.49a12.55,12.55,0,0,0,10.7-6.93l.6-1.32h.21c-.52,3-1.18,6.72-1.76,9.57H180v-.2l2.37-.33a5.21,5.21,0,0,0,4.73-5.28V463.74a5.22,5.22,0,0,0-4.73-5.28l-2.37-.33v-.2h37.83C218.15,461,218.67,465,219.11,468.16Z" transform="translate(-118.59 -412.31)"/><path d="M265.67,458.53l-2.37-.4v-.2h13.6v.2l-2.37.4a4,4,0,0,0-3.42,3.41l-.5,51.43h-1.42q-16.78-22.83-33.59-45.63l.2,41.14a4,4,0,0,0,3.41,3.9l2.37.39v.2H227.91v-.2l2.37-.39a3.9,3.9,0,0,0,3.39-3.9l.05-43.7-2.23-3a9.9,9.9,0,0,0-5.61-3.56l-3.12-.46v-.2h14.42c10.65,14,21.24,28.11,32,42.07l-.09-37.58A3.9,3.9,0,0,0,265.67,458.53Z" transform="translate(-118.59 -412.31)"/><path d="M322.24,458.53l-2.37-.4v-.2h13.61v.2l-2.37.4a4,4,0,0,0-3.43,3.41l-.5,51.43h-1.42Q309,490.54,292.18,467.74l.2,41.14a3.93,3.93,0,0,0,3.4,3.9l2.37.39v.2H284.48v-.2l2.37-.39a3.9,3.9,0,0,0,3.39-3.9l.05-43.7-2.23-3a9.86,9.86,0,0,0-5.61-3.56l-3.11-.46v-.2h14.41C304.41,472,315,486,325.73,500l-.09-37.58A3.92,3.92,0,0,0,322.24,458.53Z" transform="translate(-118.59 -412.31)"/><path d="M341.12,513.37v-.2l2.37-.39a3.89,3.89,0,0,0,3.38-3.9V462.42a3.88,3.88,0,0,0-3.38-3.89l-2.37-.4v-.2h18.54v.2l-2.37.4a3.88,3.88,0,0,0-3.38,3.89v46.46a3.89,3.89,0,0,0,3.38,3.9l2.37.39v.2Z" transform="translate(-118.59 -412.31)"/><path d="M405.48,467.9h-.21l-1.55-3.63A8.6,8.6,0,0,0,396,459H380.57v24.42h10.56a7.33,7.33,0,0,0,7-5.28l1.08-3.63h.2v19.34h-.2l-1.08-3.63a7.33,7.33,0,0,0-7-5.28H380.57v22.63a5.22,5.22,0,0,0,4.74,5.28l2.37.33v.2H366.36v-.2l2.37-.33a5.22,5.22,0,0,0,4.74-5.28V463.74a5.23,5.23,0,0,0-4.74-5.28l-2.37-.33v-.2h37.83C404.58,461,405,464.86,405.48,467.9Z" transform="translate(-118.59 -412.31)"/><path d="M450.82,468.16h-.21l-1.55-3.63a8.62,8.62,0,0,0-7.72-5.28H425.91v24.16h11.24a7.31,7.31,0,0,0,7-5.28l1.09-3.63h.2v19.34h-.2l-1.09-3.63a7.31,7.31,0,0,0-7-5.28H425.91v23.49c0,2.18.54,3.63,5.08,3.63h10.49a12.55,12.55,0,0,0,10.69-6.93l.61-1.32h.2c-.52,3-1.17,6.72-1.76,9.57H411.7v-.2l2.37-.33a5.22,5.22,0,0,0,4.74-5.28V463.74a5.23,5.23,0,0,0-4.74-5.28l-2.37-.33v-.2h37.83C449.85,461,450.37,465,450.82,468.16Z" transform="translate(-118.59 -412.31)"/><path d="M495.28,507.63c-6.85-10.16-11.87-18-13.24-20.66h-9.1v21.91a3.89,3.89,0,0,0,3.39,3.9l2.37.39v.2H460.09v-.2l2.36-.39a3.89,3.89,0,0,0,3.39-3.9V462.42a3.88,3.88,0,0,0-3.39-3.89l-2.36-.4v-.2h22.26c11.17,0,18.61,6.27,18.61,15.64,0,7.18-4.49,11.29-11.72,12.77,2.09,3.1,7.34,10.87,14.36,21.29,3,4.35,3.32,4.55,9.47,4.55v1.19C499.67,513.37,499,513.17,495.28,507.63Zm-12.93-22.37c6.5,0,10.83-4,10.83-13.07,0-7.72-5.15-12.87-12.93-12.87h-7.31v25.94Z" transform="translate(-118.59 -412.31)"/><path d="M584.53,512.32c-.13-.4-.33-.86-.47-1.26-.74-1.85-2.71-2.18-4.94-.72v0c-3.65,2.33-8.74,3.71-16.16,3.71-15.5,0-25.79-11.35-25.79-28.38s10.7-28.38,26.67-28.38c6.83,0,11.3,1.43,14.87,3.85v0c2.37,1.65,4.54,1.32,5.28-.72.14-.4.34-.93.48-1.32h.2v14.65h-.27c-.27-.53-.61-1.26-.88-1.79-2.15-4.38-5.44-8.41-8.34-10.29a19.48,19.48,0,0,0-10.74-2.84c-11.64,0-19.43,10.76-19.43,26.86s7.45,26.93,18.55,26.93c5.39,0,9.39-1.1,12.48-3,2.43-1.65,5.38-5.54,7.55-10,.27-.52.61-1.32.88-1.84h.27v14.52Zm-1-8.55,0,0Zm.08-36.22v0Z" transform="translate(-118.59 -412.31)"/><path d="M617.56,457.27c16.51,0,27.47,11.36,27.47,28.38S633.8,514,616.88,514c-15.7,0-26.12-11.35-26.12-28.38S601.45,457.27,617.56,457.27Zm-.34,55.18c12,0,20.1-10.69,20.1-26.8s-8-26.79-20-26.79c-11.24,0-18.75,10.69-18.75,26.79S606,512.45,617.22,512.45Z" transform="translate(-118.59 -412.31)"/><path d="M678.8,457.27c16.51,0,27.47,11.36,27.47,28.38S695,514,678.12,514c-15.7,0-26.12-11.35-26.12-28.38S662.69,457.27,678.8,457.27Zm-.34,55.18c12,0,20.1-10.69,20.1-26.8s-8-26.79-20-26.79c-11.24,0-18.75,10.69-18.75,26.79S667.23,512.45,678.46,512.45Z" transform="translate(-118.59 -412.31)"/><path d="M715.75,513.37v-.2l2.36-.39a3.89,3.89,0,0,0,3.39-3.9V462.42a3.88,3.88,0,0,0-3.39-3.89l-2.36-.4v-.2h20.91c11.43,0,19.08,6.21,19.08,15.58,0,9.9-9.2,14.32-23.08,14.32H728.6v21.05a3.89,3.89,0,0,0,3.39,3.9l2.37.39v.2Zm16.91-27c9.82,0,16.38-4.36,16.38-14,0-8-5.68-13.27-14.14-13.27-1.9,0-6.3-.06-6.3-.06v27.32Z" transform="translate(-118.59 -412.31)"/><path d="M798.85,468.16h-.21l-1.55-3.63a8.62,8.62,0,0,0-7.72-5.28H773.94v24.16h11.24a7.31,7.31,0,0,0,7-5.28l1.09-3.63h.2v19.34h-.2l-1.09-3.63a7.31,7.31,0,0,0-7-5.28H773.94v23.49c0,2.18.54,3.63,5.08,3.63h10.49a12.55,12.55,0,0,0,10.69-6.93l.61-1.32h.2c-.52,3-1.17,6.72-1.76,9.57H759.73v-.2l2.37-.33a5.22,5.22,0,0,0,4.74-5.28V463.74a5.23,5.23,0,0,0-4.74-5.28l-2.37-.33v-.2h37.83C797.88,461,798.4,465,798.85,468.16Z" transform="translate(-118.59 -412.31)"/><path d="M843.31,507.63c-6.85-10.16-11.87-18-13.24-20.66H821v21.91a3.89,3.89,0,0,0,3.39,3.9l2.37.39v.2H808.12v-.2l2.36-.39a3.89,3.89,0,0,0,3.39-3.9V462.42a3.88,3.88,0,0,0-3.39-3.89l-2.36-.4v-.2h22.26c11.17,0,18.61,6.27,18.61,15.64,0,7.18-4.49,11.29-11.72,12.77,2.09,3.1,7.34,10.87,14.36,21.29,3,4.35,3.32,4.55,9.47,4.55v1.19C847.7,513.37,847,513.17,843.31,507.63Zm-12.93-22.37c6.5,0,10.83-4,10.83-13.07,0-7.72-5.14-12.87-12.93-12.87H821v25.94Z" transform="translate(-118.59 -412.31)"/><polygon points="762.83 151.9 728.08 151.9 728.08 150.01 760.93 150.01 760.93 1.89 1.89 1.89 1.89 150.01 360.38 150.01 360.38 151.9 0 151.9 0 0 762.83 0 762.83 151.9"/></svg>