<?xml version="1.0" standalone="no"?>
<!DOCTYPE svg PUBLIC "-//W3C//DTD SVG 20010904//EN"
 "http://www.w3.org/TR/2001/REC-SVG-20010904/DTD/svg10.dtd">
<svg version="1.0" xmlns="http://www.w3.org/2000/svg"
 width="700.000000pt" height="700.000000pt" viewBox="0 0 700.000000 700.000000"
 preserveAspectRatio="xMidYMid meet">
<metadata>
Created by potrace 1.14, written by Peter Selinger 2001-2017
</metadata>
<g transform="translate(0.000000,700.000000) scale(0.100000,-0.100000)"
fill="#000000" stroke="none">
<path d="M3110 6010 c-234 -19 -250 -21 -430 -45 -365 -49 -731 -139 -1064
-260 -123 -44 -162 -60 -301 -123 -90 -40 -263 -131 -323 -169 -29 -18 -55
-33 -57 -33 -7 0 -158 -105 -235 -162 -155 -118 -334 -297 -430 -433 -27 -38
-55 -76 -61 -83 -31 -37 -142 -271 -173 -363 l-36 -107 0 -830 0 -830 31 -89
c221 -627 896 -1163 1829 -1455 105 -33 101 -31 185 -53 33 -9 67 -18 75 -20
128 -34 438 -92 580 -109 122 -15 168 -20 310 -32 91 -8 783 -8 895 0 186 13
279 23 465 47 87 11 109 14 210 34 41 8 86 17 100 19 318 61 690 178 959 302
365 168 642 355 886 599 225 225 354 436 441 723 l35 115 -4 771 -3 771 -32
105 c-90 286 -220 496 -452 731 -207 208 -367 326 -658 481 -281 150 -736 304
-1127 382 -44 9 -91 19 -105 21 -24 5 -316 51 -375 60 -16 2 -86 9 -155 15
-69 6 -143 14 -165 16 -71 9 -717 11 -815 4z"/>
</g>
</svg>
