<?xml version="1.0" standalone="no"?>
<!DOCTYPE svg PUBLIC "-//W3C//DTD SVG 20010904//EN"
 "http://www.w3.org/TR/2001/REC-SVG-20010904/DTD/svg10.dtd">
<svg version="1.0" xmlns="http://www.w3.org/2000/svg"
 width="700.000000pt" height="700.000000pt" viewBox="0 0 700.000000 700.000000"
 preserveAspectRatio="xMidYMid meet">
<metadata>
Created by potrace 1.14, written by Peter Selinger 2001-2017
</metadata>
<g transform="translate(0.000000,700.000000) scale(0.100000,-0.100000)"
fill="#000000" stroke="none">
<path d="M2895 4654 c-76 -12 -243 -58 -323 -90 -228 -92 -409 -230 -473 -360
-35 -72 -34 -172 3 -235 39 -67 115 -131 210 -177 144 -71 282 -93 451 -72
146 17 264 49 618 166 334 109 430 134 529 134 177 0 357 -94 376 -196 25
-134 -165 -294 -452 -380 -68 -20 -119 -27 -218 -31 -169 -7 -260 9 -432 78
-31 12 -35 10 -125 -51 -137 -92 -134 -85 -58 -119 295 -133 643 -146 975 -36
203 67 452 216 543 324 68 82 95 145 96 226 0 85 -20 130 -85 196 -124 125
-318 192 -550 193 -182 0 -292 -23 -642 -135 -489 -156 -543 -171 -638 -172
-133 -2 -244 44 -297 122 -66 98 27 230 232 332 146 72 238 92 394 87 124 -5
183 -18 306 -68 30 -12 35 -10 143 61 61 41 112 76 112 79 0 10 -178 79 -260
100 -66 17 -120 23 -245 25 -88 2 -173 1 -190 -1z"/>
</g>
</svg>
