<svg width="1728" height="271" viewBox="0 0 1728 271" fill="none" xmlns="http://www.w3.org/2000/svg">
<mask id="mask0_323_38" style="mask-type:alpha" maskUnits="userSpaceOnUse" x="0" y="0" width="1728" height="271">
<rect width="1728" height="271" fill="#D9D9D9" style="fill:#D9D9D9;fill:color(display-p3 0.8510 0.8510 0.8510);fill-opacity:1;"/>
</mask>
<g mask="url(#mask0_323_38)">
<g opacity="0.3" filter="url(#filter0_f_323_38)">
<path d="M1205.96 -489.875C909.274 -442.051 733.209 -258.593 812.705 -80.1107C892.201 98.3718 1197.15 204.291 1493.84 156.467C1790.52 108.643 1966.58 -74.8151 1887.09 -253.298C1807.59 -431.78 1502.64 -537.7 1205.96 -489.875Z" fill="url(#paint0_linear_323_38)" style=""/>
<path d="M472.065 69.7586C796.293 69.7586 1059.13 -85.5446 1059.13 -277.121C1059.13 -468.697 796.293 -624 472.065 -624C147.838 -624 -115 -468.697 -115 -277.121C-115 -85.5446 147.838 69.7586 472.065 69.7586Z" fill="url(#paint1_linear_323_38)" style=""/>
</g>
</g>
<defs>
<filter id="filter0_f_323_38" x="-235" y="-744" width="2261.17" height="1031.95" filterUnits="userSpaceOnUse" color-interpolation-filters="sRGB">
<feFlood flood-opacity="0" result="BackgroundImageFix"/>
<feBlend mode="normal" in="SourceGraphic" in2="BackgroundImageFix" result="shape"/>
<feGaussianBlur stdDeviation="60" result="effect1_foregroundBlur_323_38"/>
</filter>
<linearGradient id="paint0_linear_323_38" x1="845.462" y1="-93.4826" x2="1858.5" y2="46.134" gradientUnits="userSpaceOnUse">
<stop stop-color="#001AFF" style="stop-color:#001AFF;stop-color:color(display-p3 0.0000 0.1000 1.0000);stop-opacity:1;"/>
<stop offset="1" stop-color="#6EE5C2" style="stop-color:#6EE5C2;stop-color:color(display-p3 0.4314 0.8980 0.7608);stop-opacity:1;"/>
<stop offset="1" stop-color="#6EE5C2" style="stop-color:#6EE5C2;stop-color:color(display-p3 0.4314 0.8980 0.7608);stop-opacity:1;"/>
</linearGradient>
<linearGradient id="paint1_linear_323_38" x1="-35.3593" y1="-215.109" x2="776.77" y2="-558.818" gradientUnits="userSpaceOnUse">
<stop stop-color="#FFC83A" style="stop-color:#FFC83A;stop-color:color(display-p3 1.0000 0.7842 0.2292);stop-opacity:1;"/>
<stop offset="0.504191" stop-color="#FF008A" style="stop-color:#FF008A;stop-color:color(display-p3 1.0000 0.0000 0.5412);stop-opacity:1;"/>
<stop offset="1" stop-color="#6100FF" style="stop-color:#6100FF;stop-color:color(display-p3 0.3804 0.0000 1.0000);stop-opacity:1;"/>
</linearGradient>
</defs>
</svg>
