<svg width="200" height="200" viewBox="0 0 200 200" fill="none" xmlns="http://www.w3.org/2000/svg">
<g opacity="0.81" clip-path="url(#clip0_330_44)">
<path d="M200 85.9512V119.049C200 151.055 155.23 177 100.002 177C44.7743 177 0 151.047 0 119.049V85.9512C0 117.957 44.7743 143.902 100.002 143.902C155.23 143.902 200 117.957 200 85.9512Z" fill="url(#paint0_linear_330_44)" style=""/>
<path d="M178.383 73.9194C180.163 77.6827 181.086 81.7922 181.086 85.9532C181.086 90.1143 180.163 94.2238 178.383 97.987V73.9194Z" fill="#767676" style="fill:#767676;fill:color(display-p3 0.4627 0.4627 0.4627);fill-opacity:1;"/>
<path d="M178.383 73.9194V97.9869C176.813 101.343 174.756 104.451 172.278 107.208C171.053 104.915 166.239 96.4718 156.561 86.6191L178.383 73.9153V73.9194Z" fill="url(#paint1_linear_330_44)" style=""/>
<path d="M178.383 73.9155L156.561 86.6193C153.062 83.0585 149.342 79.7215 145.422 76.6282L170.126 62.4214C173.548 65.7269 176.345 69.6205 178.383 73.9155Z" fill="#E2E2E2" style="fill:#E2E2E2;fill:color(display-p3 0.8863 0.8863 0.8863);fill-opacity:1;"/>
<path d="M136.81 127.663C144.294 125.533 151.481 122.475 158.202 118.56C163.817 115.22 168.578 111.4 172.278 107.208C174.756 104.451 176.813 101.343 178.383 97.9871C180.163 94.2238 181.086 90.1143 181.086 85.9533C181.086 81.7922 180.163 77.6827 178.383 73.9195C176.345 69.6244 173.548 65.7308 170.126 62.4254C163.376 55.7293 153.833 50.0962 142.428 46.0599C135.532 43.6467 128.422 41.8862 121.195 40.8016C114.333 39.7517 107.401 39.2289 100.459 39.2375C88.4719 39.1845 76.5347 40.7854 64.987 43.9948C57.6503 46.0253 50.5855 48.9299 43.9454 52.646C37.6569 56.2262 32.3771 60.3848 28.3754 65.0199C22.92 71.3168 19.8493 78.4243 19.8493 85.9472C19.864 90.0137 20.7465 94.0305 22.4382 97.7305C24.3778 102.068 27.3709 106.158 31.246 109.905C37.3711 115.823 45.6604 120.902 55.5095 124.735C56.759 125.224 58.0344 125.689 59.3356 126.132C66.0766 128.434 73.0146 130.116 80.0629 131.158C86.8209 132.171 93.6458 132.676 100.48 132.669C100.774 132.669 101.072 132.669 101.366 132.669C113.356 132.652 125.286 130.967 136.81 127.663ZM100.002 28C155.23 28 200 53.9493 200 85.9512C200 117.953 155.23 143.902 100.002 143.902C44.7743 143.902 0 117.957 0 85.9512C0 53.9453 44.7743 28 100.002 28Z" fill="#E2E2E2" style="fill:#E2E2E2;fill:color(display-p3 0.8863 0.8863 0.8863);fill-opacity:1;"/>
<path d="M170.126 62.4214L145.422 76.6282C144.455 75.8624 143.457 75.0994 142.428 74.3391V46.0559C153.833 50.0923 163.376 55.7375 170.126 62.4214Z" fill="#A8A8A8" style="fill:#A8A8A8;fill:color(display-p3 0.6588 0.6588 0.6588);fill-opacity:1;"/>
<path d="M156.561 86.6191C166.239 96.4718 171.061 104.915 172.278 107.208C168.578 111.4 163.817 115.22 158.202 118.56C158.202 118.56 154.85 107.563 142.686 94.7L156.561 86.6191Z" fill="#E2E2E2" style="fill:#E2E2E2;fill:color(display-p3 0.8863 0.8863 0.8863);fill-opacity:1;"/>
<path d="M142.694 116.792C152.147 118.279 158.211 118.556 158.211 118.556C151.489 122.471 144.302 125.529 136.818 127.659C130.611 126.845 117.92 124.588 101.362 118.76L115.384 110.614C124.337 113.287 133.461 115.352 142.694 116.792Z" fill="#E2E2E2" style="fill:#E2E2E2;fill:color(display-p3 0.8863 0.8863 0.8863);fill-opacity:1;"/>
<path d="M156.561 86.6191L142.677 94.6959C139.231 91.0521 135.509 87.6765 131.546 84.5989L145.405 76.6279C149.331 79.7208 153.057 83.0578 156.561 86.6191Z" fill="#E2E2E2" style="fill:#E2E2E2;fill:color(display-p3 0.8863 0.8863 0.8863);fill-opacity:1;"/>
<path d="M142.694 94.696C154.85 107.575 158.211 118.556 158.211 118.556C158.211 118.556 152.155 118.279 142.694 116.792V94.696Z" fill="#979696" style="fill:#979696;fill:color(display-p3 0.5922 0.5882 0.5882);fill-opacity:1;"/>
<path d="M142.428 74.339C143.457 75.0965 144.455 75.8596 145.422 76.628L131.563 84.5989C126.182 80.4284 120.443 76.7402 114.412 73.5773C110.79 71.663 107.181 69.9116 103.616 68.3434L117.953 60.1118C123.039 62.3962 127.984 64.9804 132.763 67.8506C136.246 69.9564 139.46 72.1354 142.428 74.339Z" fill="#E2E2E2" style="fill:#E2E2E2;fill:color(display-p3 0.8863 0.8863 0.8863);fill-opacity:1;"/>
<path d="M142.694 94.696V116.792C133.458 115.348 124.331 113.28 115.376 110.601L142.694 94.696Z" fill="url(#paint2_linear_330_44)" style=""/>
<path d="M103.624 100.667L131.563 84.5989C135.526 87.6765 139.247 91.0521 142.694 94.696L115.376 110.601C109.308 108.789 103.344 106.646 97.5112 104.182L103.624 100.667Z" fill="#E2E2E2" style="fill:#E2E2E2;fill:color(display-p3 0.8863 0.8863 0.8863);fill-opacity:1;"/>
<path d="M142.428 46.0559V74.3391C139.46 72.1356 136.246 69.9565 132.771 67.8507C127.993 64.9805 123.047 62.3964 117.961 60.112L142.428 46.0559Z" fill="#BDBCBD" style="fill:#BDBCBD;fill:color(display-p3 0.7412 0.7373 0.7412);fill-opacity:1;"/>
<path d="M142.428 46.0559L117.961 60.1079C111.913 57.3627 105.792 55.0207 99.9612 53.0412L121.195 40.7976C128.422 41.8822 135.532 43.6427 142.428 46.0559Z" fill="#E2E2E2" style="fill:#E2E2E2;fill:color(display-p3 0.8863 0.8863 0.8863);fill-opacity:1;"/>
<path d="M131.563 84.5989L103.624 100.667V68.3638C107.189 69.9441 110.798 71.6833 114.42 73.5976C120.448 76.7544 126.184 80.4358 131.563 84.5989Z" fill="#A3A3A3" style="fill:#A3A3A3;fill:color(display-p3 0.6392 0.6392 0.6392);fill-opacity:1;"/>
<path d="M101.354 118.764C117.912 124.592 130.603 126.836 136.81 127.663C125.282 130.967 113.348 132.651 101.354 132.665V118.764Z" fill="#969696" style="fill:#969696;fill:color(display-p3 0.5882 0.5882 0.5882);fill-opacity:1;"/>
<path d="M121.203 40.7975L99.9694 53.0411C88.5569 49.1577 76.8689 46.1325 65.0034 43.9908C76.551 40.7814 88.4883 39.1804 100.476 39.2335C107.415 39.2252 114.344 39.7481 121.203 40.7975Z" fill="url(#paint3_linear_330_44)" style=""/>
<path d="M117.961 60.1077L103.624 68.3394C97.703 65.7148 91.6517 63.3929 85.4938 61.3826L99.9612 53.041C105.792 55.0205 111.913 57.3666 117.961 60.1077Z" fill="#E2E2E2" style="fill:#E2E2E2;fill:color(display-p3 0.8863 0.8863 0.8863);fill-opacity:1;"/>
<path d="M115.376 110.601L101.354 118.747C95.984 116.857 90.206 114.589 84.1136 111.872L97.5112 104.166C103.344 106.635 109.308 108.783 115.376 110.601Z" fill="#E2E2E2" style="fill:#E2E2E2;fill:color(display-p3 0.8863 0.8863 0.8863);fill-opacity:1;"/>
<path d="M103.624 68.3395L69.2705 88.0693C65.0856 84.8767 61.1975 81.3147 57.6533 77.4264L85.4938 61.3787C91.6518 63.3903 97.703 65.7135 103.624 68.3395Z" fill="#E2E2E2" style="fill:#E2E2E2;fill:color(display-p3 0.8863 0.8863 0.8863);fill-opacity:1;"/>
<path d="M103.624 68.3638V100.687L97.4989 104.202C92.2084 101.975 87.0567 99.4334 82.0719 96.5899C77.6128 94.0504 73.3317 91.2118 69.2582 88.0936L103.624 68.3638Z" fill="url(#paint4_linear_330_44)" style=""/>
<path d="M101.354 118.764V132.665C101.06 132.665 100.762 132.665 100.468 132.665C93.6336 132.672 86.8087 132.167 80.0506 131.154L101.354 118.764Z" fill="#ACACAD" style="fill:#ACACAD;fill:color(display-p3 0.6745 0.6745 0.6784);fill-opacity:1;"/>
<path d="M101.354 118.764L80.0629 131.162C73.0119 130.121 66.0711 128.438 59.3275 126.136L84.1054 111.88C90.206 114.605 95.984 116.874 101.354 118.764Z" fill="#E2E2E2" style="fill:#E2E2E2;fill:color(display-p3 0.8863 0.8863 0.8863);fill-opacity:1;"/>
<path d="M99.9612 53.041L85.4938 61.3826C62.3002 53.7905 44.4272 52.6704 43.9535 52.6419C50.5937 48.9258 57.6585 46.0212 64.9952 43.9907C76.8607 46.1325 88.5487 49.1577 99.9612 53.041Z" fill="#E2E2E2" style="fill:#E2E2E2;fill:color(display-p3 0.8863 0.8863 0.8863);fill-opacity:1;"/>
<path d="M97.5112 104.182L84.1136 111.888C80.8986 110.455 77.6006 108.892 74.2196 107.2C67.6967 103.955 61.4406 100.202 55.5095 95.9749L69.2705 88.0732C73.3439 91.1915 77.625 94.0301 82.0842 96.5696C87.069 99.413 92.2206 101.955 97.5112 104.182Z" fill="#E2E2E2" style="fill:#E2E2E2;fill:color(display-p3 0.8863 0.8863 0.8863);fill-opacity:1;"/>
<path d="M85.4938 61.3827L57.6533 77.4305C45.5461 64.0546 43.9821 52.9311 43.9454 52.646C44.4272 52.6704 62.3002 53.7905 85.4938 61.3827Z" fill="#9E9E9F" style="fill:#9E9E9F;fill:color(display-p3 0.6196 0.6196 0.6235);fill-opacity:1;"/>
<path d="M84.1136 111.888L59.3356 126.144C58.0371 125.704 56.7617 125.239 55.5095 124.747V95.9751C61.4406 100.202 67.6967 103.955 74.2196 107.2C77.5979 108.895 80.8959 110.457 84.1136 111.888Z" fill="#999A99" style="fill:#999A99;fill:color(display-p3 0.6000 0.6039 0.6000);fill-opacity:1;"/>
<path d="M69.2705 88.0733L55.5095 95.975C51.1734 92.8759 47.0783 89.4543 43.2594 85.7394L57.6696 77.4304C61.2087 81.3179 65.0913 84.8799 69.2705 88.0733Z" fill="#E2E2E2" style="fill:#E2E2E2;fill:color(display-p3 0.8863 0.8863 0.8863);fill-opacity:1;"/>
<path d="M57.6533 77.4305L43.243 85.7395C31.5645 74.3146 28.453 65.2481 28.3754 65.024C32.3771 60.4093 37.6569 56.2303 43.9454 52.6501C43.9821 52.9312 45.546 64.0547 57.6533 77.4305Z" fill="#E2E2E2" style="fill:#E2E2E2;fill:color(display-p3 0.8863 0.8863 0.8863);fill-opacity:1;"/>
<path d="M55.5095 95.9751V124.739C45.6604 120.906 37.3548 115.827 31.246 109.909L55.5095 95.9751Z" fill="#ADADAD" style="fill:#ADADAD;fill:color(display-p3 0.6784 0.6784 0.6784);fill-opacity:1;"/>
<path d="M28.3754 94.309L43.243 85.7556C47.062 89.4705 51.157 92.8921 55.4931 95.9912L31.246 109.909C27.3709 106.162 24.3778 102.072 22.4382 97.7344L28.3754 94.309Z" fill="#E2E2E2" style="fill:#E2E2E2;fill:color(display-p3 0.8863 0.8863 0.8863);fill-opacity:1;"/>
<path d="M43.243 85.7394L28.3754 94.2928V65.0239C28.453 65.2479 31.5605 74.3145 43.243 85.7394Z" fill="url(#paint5_linear_330_44)" style=""/>
<path d="M28.3754 65.0239V94.3091L22.4382 97.7345C20.7465 94.0346 19.864 90.0177 19.8493 85.9512C19.8493 78.4283 22.92 71.3208 28.3754 65.0239Z" fill="url(#paint6_linear_330_44)" style=""/>
<g style="mix-blend-mode:overlay">
<path d="M200 102.5C209.5 148 159.5 177.5 100 177C44.5 178.5 -12 148 8.34465e-07 102.5C-11 54.5 44.7715 28 100 28C171.5 29.5 207.5 61.5 200 102.5Z" fill="url(#paint7_linear_330_44)" style=""/>
</g>
</g>
<defs>
<linearGradient id="paint0_linear_330_44" x1="72.8475" y1="131.476" x2="-97.4458" y2="131.476" gradientUnits="userSpaceOnUse">
<stop stop-color="#B4B4B4" style="stop-color:#B4B4B4;stop-color:color(display-p3 0.7059 0.7059 0.7059);stop-opacity:1;"/>
<stop offset="1" stop-color="#828282" style="stop-color:#828282;stop-color:color(display-p3 0.5098 0.5098 0.5098);stop-opacity:1;"/>
</linearGradient>
<linearGradient id="paint1_linear_330_44" x1="165.279" y1="81.1368" x2="179.288" y2="94.3404" gradientUnits="userSpaceOnUse">
<stop stop-color="#B4B3B4" style="stop-color:#B4B3B4;stop-color:color(display-p3 0.7059 0.7020 0.7059);stop-opacity:1;"/>
<stop offset="1" stop-color="#767676" style="stop-color:#767676;stop-color:color(display-p3 0.4627 0.4627 0.4627);stop-opacity:1;"/>
</linearGradient>
<linearGradient id="paint2_linear_330_44" x1="126.642" y1="102.056" x2="144.803" y2="106.938" gradientUnits="userSpaceOnUse">
<stop stop-color="#B4B4B4" style="stop-color:#B4B4B4;stop-color:color(display-p3 0.7059 0.7059 0.7059);stop-opacity:1;"/>
<stop offset="1" stop-color="#828282" style="stop-color:#828282;stop-color:color(display-p3 0.5098 0.5098 0.5098);stop-opacity:1;"/>
</linearGradient>
<linearGradient id="paint3_linear_330_44" x1="64.9952" y1="46.1373" x2="121.203" y2="46.1373" gradientUnits="userSpaceOnUse">
<stop stop-color="#B2B2B2" style="stop-color:#B2B2B2;stop-color:color(display-p3 0.6980 0.6980 0.6980);stop-opacity:1;"/>
<stop offset="1" stop-color="#A3A3A3" style="stop-color:#A3A3A3;stop-color:color(display-p3 0.6392 0.6392 0.6392);stop-opacity:1;"/>
</linearGradient>
<linearGradient id="paint4_linear_330_44" x1="69.2705" y1="86.2607" x2="103.624" y2="86.2607" gradientUnits="userSpaceOnUse">
<stop stop-color="#BBBBBB" style="stop-color:#BBBBBB;stop-color:color(display-p3 0.7333 0.7333 0.7333);stop-opacity:1;"/>
<stop offset="1" stop-color="#9C9C9C" style="stop-color:#9C9C9C;stop-color:color(display-p3 0.6118 0.6118 0.6118);stop-opacity:1;"/>
</linearGradient>
<linearGradient id="paint5_linear_330_44" x1="23.1814" y1="82.0248" x2="30.1701" y2="78.8345" gradientUnits="userSpaceOnUse">
<stop stop-color="#1F1F1F" style="stop-color:#1F1F1F;stop-color:color(display-p3 0.1216 0.1216 0.1216);stop-opacity:1;"/>
<stop offset="1" stop-color="#888888" style="stop-color:#888888;stop-color:color(display-p3 0.5333 0.5333 0.5333);stop-opacity:1;"/>
</linearGradient>
<linearGradient id="paint6_linear_330_44" x1="20.0862" y1="79.3162" x2="31.41" y2="83.7264" gradientUnits="userSpaceOnUse">
<stop stop-color="#B0B0B0" style="stop-color:#B0B0B0;stop-color:color(display-p3 0.6902 0.6902 0.6902);stop-opacity:1;"/>
<stop offset="1" stop-color="#272828" style="stop-color:#272828;stop-color:color(display-p3 0.1529 0.1569 0.1569);stop-opacity:1;"/>
</linearGradient>
<linearGradient id="paint7_linear_330_44" x1="12.1284" y1="115.85" x2="160.362" y2="65.417" gradientUnits="userSpaceOnUse">
<stop stop-color="#FFC83A" style="stop-color:#FFC83A;stop-color:color(display-p3 1.0000 0.7842 0.2292);stop-opacity:1;"/>
<stop offset="0.29" stop-color="#FF008A" style="stop-color:#FF008A;stop-color:color(display-p3 1.0000 0.0000 0.5412);stop-opacity:1;"/>
<stop offset="1" stop-color="#6100FF" style="stop-color:#6100FF;stop-color:color(display-p3 0.3804 0.0000 1.0000);stop-opacity:1;"/>
</linearGradient>
<clipPath id="clip0_330_44">
<rect width="200" height="149" fill="white" style="fill:white;fill-opacity:1;" transform="translate(0 28)"/>
</clipPath>
</defs>
</svg>
