<svg width="458" height="669" viewBox="0 0 458 669" fill="none" xmlns="http://www.w3.org/2000/svg">
<mask id="mask0_292_65" style="mask-type:alpha" maskUnits="userSpaceOnUse" x="0" y="0" width="458" height="669">
<rect width="458" height="669" fill="#D9D9D9" style="fill:#D9D9D9;fill:color(display-p3 0.8510 0.8510 0.8510);fill-opacity:1;"/>
</mask>
<g mask="url(#mask0_292_65)">
<path d="M198 74.3L263 37.15M198 74.3L263 111.45M198 74.3L133 111.45M198 74.3V148.6M198 74.3L133 37.15M198 74.3L68 148.6M198 74.3L328 148.6M198 74.3V222.9M198 74.3L68 0M198 74.3L328 0M198 74.3L458 222.9M198 74.3V371.5M263 37.15L328 74.3M263 37.15V111.45M328 74.3L263 111.45M328 74.3L393 111.45M328 74.3V148.6M328 74.3L393 37.15M263 111.45L328 148.6M263 111.45L198 148.6M263 111.45V185.75M393 111.45L328 148.6M393 111.45L458 74.3M393 111.45V37.15M393 111.45L458 148.6L393 185.75M393 111.45V185.75M328 148.6L263 185.75M328 148.6L393 185.75M328 148.6V222.9M328 148.6L198 222.9M328 148.6L458 222.9M328 148.6V297.2M328 148.6L458 74.3M328 148.6V0M393 37.15L458 74.3M458 74.3L328 0M458 74.3V222.9M3 185.75L68 222.9M3 185.75V260.05M3 185.75L68 148.6M3 185.75V111.45M68 222.9L3 260.05M68 222.9L133 260.05M68 222.9V297.2M68 222.9L133 185.75M68 222.9V148.6M3 260.05L68 297.2M3 260.05V334.35M198 222.9L263 185.75M198 222.9L263 260.05M198 222.9L133 185.75M198 222.9V148.6M198 222.9L133 260.05M198 222.9V297.2M198 222.9L68 148.6M198 222.9L68 297.2M198 222.9L328 297.2M198 222.9V371.5M263 185.75L328 222.9M263 185.75V260.05M263 185.75L198 148.6M328 222.9L263 260.05M328 222.9L393 260.05M328 222.9V297.2M328 222.9L393 185.75M263 260.05L328 297.2M263 260.05L198 297.2M263 260.05V334.35M68 148.6L133 111.45M68 148.6L133 185.75M68 148.6L3 111.45M68 148.6V74.3M68 148.6V297.2M68 148.6L68 0M133 111.45L198 148.6M133 111.45V185.75M133 111.45L68 74.3M133 111.45V37.15M198 148.6L133 185.75M133 185.75V260.05M133 260.05L68 297.2M133 260.05L198 297.2M133 260.05V334.35M68 297.2L3 334.35M68 297.2L133 334.35M68 297.2V371.5M68 297.2L198 371.5M68 297.2V445.8M393 260.05L328 297.2M393 260.05L458 222.9M393 260.05V185.75M393 260.05L458 297.2L393 334.35M393 260.05V334.35M328 297.2L393 334.35M328 297.2L263 334.35M328 297.2V371.5M328 297.2L458 222.9M328 297.2L198 371.5M328 297.2L458 371.5M328 297.2V445.8M393 185.75L458 222.9M458 222.9V371.5M458 222.9L198 371.5M393 334.35L328 371.5M393 334.35L458 371.5M393 334.35V408.65M263 334.35L328 371.5M263 334.35L198 297.2M263 334.35L198 371.5M263 334.35V408.65M328 371.5L263 408.65M328 371.5L393 408.65M328 371.5V445.8M3 334.35L68 371.5M3 334.35V408.65M133 334.35L68 371.5M133 334.35L198 297.2M133 334.35L198 371.5M133 334.35V408.65M68 371.5L133 408.65M68 371.5L3 408.65M68 371.5V445.8M3 111.45L68 74.3M3 111.45V37.15M68 0L3 37.15M3 37.15L35.5 55.725L68 74.3M68 74.3L133 37.15M198 297.2V371.5M198 371.5L263 408.65M198 371.5L133 408.65M198 371.5L68 445.8M198 371.5L328 445.8M198 371.5V445.8M198 371.5V520.1M198 371.5L458 520.1M263 408.65L328 445.8M263 408.65L198 445.8M263 408.65V482.95M458 371.5L393 408.65M458 371.5L328 445.8M458 371.5V520.1M393 408.65L328 445.8M393 408.65L458 445.8L393 482.95M393 408.65V482.95M133 408.65L68 445.8M133 408.65L198 445.8M133 408.65V482.95M3 408.65L68 445.8M3 408.65V482.95M68 445.8L133 482.95M68 445.8L3 482.95M68 445.8V520.1M68 445.8L198 520.1M68 445.8V594.4M328 445.8L263 482.95M328 445.8L393 482.95M328 445.8V520.1M328 445.8L198 520.1M328 445.8L458 520.1M328 445.8V594.4M3 482.95L68 520.1M3 482.95V557.25M68 520.1L3 557.25M68 520.1L133 557.25M68 520.1V594.4M68 520.1L133 482.95M3 557.25L68 594.4M198 520.1L263 482.95M198 520.1L263 557.25M198 520.1L133 482.95M198 520.1V445.8M198 520.1L133 557.25M198 520.1V594.4M198 520.1L68 594.4M198 520.1L328 594.4M263 482.95L328 520.1M263 482.95V557.25M263 482.95L198 445.8M328 520.1L263 557.25M328 520.1L393 557.25M328 520.1V594.4M328 520.1L393 482.95M263 557.25L328 594.4M263 557.25L198 594.4M198 445.8L133 482.95M133 482.95V557.25M133 557.25L68 594.4M133 557.25L198 594.4M393 557.25L328 594.4M393 557.25L458 520.1M393 557.25V482.95M393 557.25L458 594.4L393 631.55M393 557.25V631.55M328 594.4L393 631.55M328 594.4L458 520.1M328 594.4L458 668.7M393 482.95L458 520.1M458 520.1V668.7M393 631.55L458 668.7" stroke="#D1D1D1" style="stroke:#D1D1D1;stroke:color(display-p3 0.8194 0.8194 0.8194);stroke-opacity:1;"/>
<g clip-path="url(#clip0_292_65)">
<path d="M313.28 355.928C313.739 356.601 313.99 357.396 313.998 358.213C313.998 359.604 313.235 361.085 311.371 362.333C308.415 364.326 276.806 382.806 270.961 385.546C265.116 388.287 258.458 387.1 254.261 384.923C250.065 382.745 214.166 361.346 211.704 359.847C209.242 358.349 209.405 355.516 209.405 355.516L209.116 322.783C209.116 322.783 217.825 322.826 220.941 323.075C224.058 323.324 226.078 325.649 226.689 326.186C227.301 326.724 240.735 339.155 240.735 339.155C240.735 339.155 262.345 326.473 268.254 323.324C274.163 320.176 279.544 320.335 284.68 323.158L294.286 329.17C294.286 329.17 295.232 329.713 297.081 332.324C298.929 334.935 312.056 354.063 313.28 355.928Z" fill="#DDDDDD" style="fill:#DDDDDD;fill:color(display-p3 0.8676 0.8676 0.8676);fill-opacity:1;"/>
<path d="M255.254 405.005V414.798L237.946 425L237.882 404.717L255.254 395.507V405.005Z" fill="#D0D1D1" style="fill:#D0D1D1;fill:color(display-p3 0.8157 0.8196 0.8196);fill-opacity:1;"/>
<path d="M208.615 368.642L255.254 395.508L237.882 404.717L187 375.344L203.941 365.948L208.615 368.642Z" fill="#DDDDDD" style="fill:#DDDDDD;fill:color(display-p3 0.8676 0.8676 0.8676);fill-opacity:1;"/>
<path d="M237.882 404.717L237.946 425L187 395.133V375.344L237.882 404.717Z" fill="url(#paint0_linear_292_65)" style=""/>
<path d="M209.405 355.516C209.405 355.516 209.238 358.355 211.704 359.848C214.17 361.34 250.079 382.753 254.269 384.929C258.46 387.104 265.112 388.289 270.969 385.552C276.826 382.816 308.423 364.332 311.379 362.339C313.243 361.085 314.006 359.604 314.006 358.22V377.384C314.006 379.046 313.598 380.788 310.396 382.692C307.194 384.597 277.664 402.232 274.084 403.976C270.503 405.72 267.676 407.752 262.745 407.21C260.135 406.946 257.595 406.2 255.25 405.011V395.508L208.613 368.634L209.114 322.775L209.405 355.516Z" fill="url(#paint1_linear_292_65)" style=""/>
</g>
</g>
<defs>
<linearGradient id="paint0_linear_292_65" x1="206.828" y1="412.185" x2="215.56" y2="393.977" gradientUnits="userSpaceOnUse">
<stop stop-color="#A2A2A2" style="stop-color:#A2A2A2;stop-color:color(display-p3 0.6353 0.6353 0.6353);stop-opacity:1;"/>
<stop offset="0.92" stop-color="#C4C3C4" style="stop-color:#C4C3C4;stop-color:color(display-p3 0.7686 0.7647 0.7686);stop-opacity:1;"/>
</linearGradient>
<linearGradient id="paint1_linear_292_65" x1="208.615" y1="365.038" x2="314" y2="365.038" gradientUnits="userSpaceOnUse">
<stop stop-color="#C0C0C0" style="stop-color:#C0C0C0;stop-color:color(display-p3 0.7529 0.7529 0.7529);stop-opacity:1;"/>
<stop offset="0.46" stop-color="#A5A5A5" style="stop-color:#A5A5A5;stop-color:color(display-p3 0.6471 0.6471 0.6471);stop-opacity:1;"/>
<stop offset="0.64" stop-color="#D2D2D2" style="stop-color:#D2D2D2;stop-color:color(display-p3 0.8235 0.8235 0.8235);stop-opacity:1;"/>
</linearGradient>
<clipPath id="clip0_292_65">
<rect width="127" height="104" fill="white" style="fill:white;fill-opacity:1;" transform="translate(187 321)"/>
</clipPath>
</defs>
</svg>
