<svg width="576" height="332" fill="none" xmlns="http://www.w3.org/2000/svg">
	<mask id="a" style="mask-type:alpha" maskUnits="userSpaceOnUse" x="0" y="0" width="576" height="332">
		<path fill="#D9D9D9" style="fill:color(display-p3 .851 .851 .851);fill-opacity:1" d="M0 0h576v332H0z"></path>
	</mask>
	<g mask="url(#a)">
		<mask id="b" style="mask-type:alpha" maskUnits="userSpaceOnUse" x="-23" y="-76" width="717" height="408">
			<path fill="#D9D9D9" style="fill:color(display-p3 .851 .851 .851);fill-opacity:1" d="M-23-76h717v408H-23z"></path>
		</mask>
		<g mask="url(#b)" stroke="#2A2A2A" stroke-width="1.5">
			<path d="m645.135-38 54.284 31.029M645.135-38 590.851-6.971M645.135-38v62.058m0-62.058L536.568 24.058M645.135-38l108.568 62.058M645.135-38V86.116m0-124.116L428 86.116M645.135-38 862.27 86.116M645.135-38v248.232M699.419-6.971l54.284 31.029M699.419-6.971l-54.284 31.029m54.284-31.029v62.058m54.284-31.03-54.284 31.03m54.284-31.03 54.284 31.03m-54.284-31.03v62.059m0-62.058L645.135 86.116m108.568-62.058L862.27 86.116M753.703 24.058v124.116M428 86.116l54.284-31.03M428 86.117l54.284 31.029M428 86.115l108.568-62.057M428 86.116l108.568 62.058M428 86.116l217.135 124.116M482.284 55.087l54.284 31.029m-54.284-31.03v62.059m0-62.058 54.284-31.03m0 62.059-54.284 31.029m54.284-31.03 54.283 31.03m-54.283-31.03v62.059m0-62.058 54.283-31.03m-54.283 31.03V24.058m-54.284 93.087 54.284 31.029m108.567-62.058 54.284-31.03m-54.284 31.03 54.284 31.029m-54.284-31.03-54.284-31.028m54.284 31.029V24.058m0 62.058-54.284 31.029m54.284-31.03v62.059m0-62.058L536.568 24.058m108.567 62.058-108.567 62.058m108.567-62.058 108.568 62.058M645.135 86.116v124.116m54.284-155.145 54.284 31.029m-54.284-31.03v62.059m0-62.058-54.284-31.03m108.568 62.059-54.284 31.029m54.284-31.03 54.284 31.03m-54.284-31.03v62.059m0-62.058 54.284-31.03m-108.568 62.059 54.284 31.029m-54.284-31.029-54.284 31.029m54.284-31.029v62.058M536.568 24.058l54.283-31.029m-54.283 31.029 54.283 31.029m-54.283-31.03v124.117M590.851-6.971l54.284 31.029M590.851-6.971v62.058m54.284-31.03-54.284 31.03m0 0v62.058m0 0-54.283 31.029m54.283-31.029 54.284 31.029m-54.284-31.029v62.058m-54.283-31.029 54.283 31.029m-54.283-31.029 108.567 62.058m162.852-93.087-54.284 31.029m54.284-31.029 54.283-31.03m-54.283 31.03V55.087m-54.284 93.087-54.284 31.029m54.284-31.029L862.27 86.116m-108.567 62.058-108.568 62.058M807.987 55.087l54.283 31.029m0 0L645.135 210.232m54.284-31.029-54.284-31.029m54.284 31.029-54.284 31.029m-54.284-31.029 54.284-31.029m-54.284 31.029 54.284 31.029m0-62.058v62.058M265.135 179l54.284 31.029M265.135 179l-54.284 31.029M265.135 179v62.058m0-62.058-108.567 62.058M265.135 179l108.568 62.058M265.135 179v124.116m0-124.116L48 303.116M265.135 179 482.27 303.116M265.135 179v248.232m54.284-217.203 54.284 31.029m-54.284-31.029-54.284 31.029m54.284-31.029v62.058m54.284-31.029-54.284 31.029m54.284-31.029 54.284 31.029m-54.284-31.029v62.058m0-62.058-108.568 62.058m108.568-62.058 108.567 62.058m-108.567-62.058v124.116M48 303.116l54.284-31.029M48 303.116l54.284 31.029M48 303.116l108.568-62.058M48 303.116l108.568 62.058M48 303.116l217.135 124.116M102.284 272.087l54.284 31.029m-54.284-31.029v62.058m0-62.058 54.284-31.029m0 62.058-54.284 31.029m54.284-31.029 54.283 31.029m-54.283-31.029v62.058m0-62.058 54.283-31.029m-54.283 31.029v-62.058m-54.284 93.087 54.284 31.029m108.567-62.058 54.284-31.029m-54.284 31.029 54.284 31.029m-54.284-31.029-54.284-31.029m54.284 31.029v-62.058m0 62.058-54.284 31.029m54.284-31.029v62.058m0-62.058-108.567-62.058m108.567 62.058-108.567 62.058m108.567-62.058 108.568 62.058m-108.568-62.058v124.116m54.284-155.145 54.284 31.029m-54.284-31.029v62.058m0-62.058-54.284-31.029m108.568 62.058-54.284 31.029m54.284-31.029 54.284 31.029m-54.284-31.029v62.058m0-62.058 54.284-31.029m-108.568 62.058 54.284 31.029m-54.284-31.029-54.284 31.029m54.284-31.029v62.058M156.568 241.058l54.283-31.029m-54.283 31.029 54.283 31.029m-54.283-31.029v124.116m54.283-155.145 54.284 31.029m-54.284-31.029v62.058m54.284-31.029-54.284 31.029m0 0v62.058m0 0-54.283 31.029m54.283-31.029 54.284 31.029m-54.284-31.029v62.058m-54.283-31.029 54.283 31.029m-54.283-31.029 108.567 62.058m162.852-93.087-54.284 31.029m54.284-31.029 54.283-31.029m-54.283 31.029v-62.058m-54.284 93.087-54.284 31.029m54.284-31.029 108.567-62.058m-108.567 62.058-108.568 62.058m162.852-155.145 54.283 31.029m0 0L265.135 427.232m54.284-31.029-54.284-31.029m54.284 31.029-54.284 31.029m-54.284-31.029 54.284-31.029m-54.284 31.029 54.284 31.029m0-62.058v62.058M482.135 55l54.284 31.029M482.135 55l-54.284 31.029M482.135 55v62.058m0-62.058-108.567 62.058M482.135 55l108.568 62.058M482.135 55v124.116m0-124.116L265 179.116M482.135 55 699.27 179.116M482.135 55v248.232m54.284-217.203 54.284 31.029m-54.284-31.029-54.284 31.029m54.284-31.029v62.058m54.284-31.029-54.284 31.029m54.284-31.029 54.284 31.029m-54.284-31.029v62.058m0-62.058-108.568 62.058m108.568-62.058 108.567 62.058m-108.567-62.058v124.116M265 179.116l54.284-31.029M265 179.116l54.284 31.029M265 179.116l108.568-62.058M265 179.116l108.568 62.058M265 179.116l217.135 124.116M319.284 148.087l54.284 31.029m-54.284-31.029v62.058m0-62.058 54.284-31.029m0 62.058-54.284 31.029m54.284-31.029 54.283 31.029m-54.283-31.029v62.058m0-62.058 54.283-31.029m-54.283 31.029v-62.058m-54.284 93.087 54.284 31.029m108.567-62.058 54.284-31.029m-54.284 31.029 54.284 31.029m-54.284-31.029-54.284-31.029m54.284 31.029v-62.058m0 62.058-54.284 31.029m54.284-31.029v62.058m0-62.058-108.567-62.058m108.567 62.058-108.567 62.058m108.567-62.058 108.568 62.058m-108.568-62.058v124.116m54.284-155.145 54.284 31.029m-54.284-31.029v62.058m0-62.058-54.284-31.029m108.568 62.058-54.284 31.029m54.284-31.029 54.284 31.029m-54.284-31.029v62.058m0-62.058 54.284-31.029m-108.568 62.058 54.284 31.029m-54.284-31.029-54.284 31.029m54.284-31.029v62.058M373.568 117.058l54.283-31.029m-54.283 31.029 54.283 31.029m-54.283-31.029v124.116m54.283-155.145 54.284 31.029m-54.284-31.029v62.058m54.284-31.029-54.284 31.029m0 0v62.058m0 0-54.283 31.029m54.283-31.029 54.284 31.029m-54.284-31.029v62.058m-54.283-31.029 54.283 31.029m-54.283-31.029 108.567 62.058m162.852-93.087-54.284 31.029m54.284-31.029 54.283-31.029m-54.283 31.029v-62.058m-54.284 93.087-54.284 31.029m54.284-31.029 108.567-62.058m-108.567 62.058-108.568 62.058m162.852-155.145 54.283 31.029m0 0L482.135 303.232m54.284-31.029-54.284-31.029m54.284 31.029-54.284 31.029m-54.284-31.029 54.284-31.029m-54.284 31.029 54.284 31.029m0-62.058v62.058M646.082 209.826l54.284 31.029m-54.284-31.029-54.284 31.029m54.284-31.029v62.058m0-62.058-108.568 62.058m108.568-62.058 108.567 62.058m-108.567-62.058v124.116m0-124.116L428.947 333.942m217.135-124.116 217.135 124.116m-162.851-93.087 54.283 31.029m-54.283-31.029-54.284 31.029m54.284-31.029v62.058m54.283-31.029-54.283 31.029m54.283-31.029 54.284 31.029m-54.284-31.029v62.058m0-62.058-108.567 62.058m108.567-62.058 108.568 62.058m-108.568-62.058V396m-325.702-62.058 54.283-31.029m-54.283 31.029 54.283 31.029m-54.283-31.029 108.567-62.058m-108.567 62.058L537.514 396m-54.284-93.087 54.284 31.029m-54.284-31.029v62.058m0-62.058 54.284-31.029m0 62.058-54.284 31.029m54.284-31.029 54.284 31.029m-54.284-31.029V396m0-62.058 54.284-31.029m-54.284 31.029v-62.058m-54.284 93.087L537.514 396m108.568-62.058 54.284-31.029m-54.284 31.029 54.284 31.029m-54.284-31.029-54.284-31.029m54.284 31.029v-62.058m0 62.058-54.284 31.029m54.284-31.029V396m0-62.058-108.568-62.058m108.568 62.058L537.514 396m108.568-62.058L754.649 396m-54.283-93.087 54.283 31.029m-54.283-31.029v62.058m0-62.058-54.284-31.029m108.567 62.058-54.283 31.029m54.283-31.029 54.284 31.029m-54.284-31.029V396m0-62.058 54.284-31.029m-108.567 62.058L754.649 396m-54.283-31.029L646.082 396M537.514 271.884l54.284-31.029m-54.284 31.029 54.284 31.029m-54.284-31.029V396m54.284-155.145 54.284 31.029m-54.284-31.029v62.058m54.284-31.029-54.284 31.029m0 0v62.058m0 0L537.514 396m54.284-31.029L646.082 396m162.851-31.029L754.649 396m54.284-31.029 54.284-31.029m-54.284 31.029v-62.058M754.649 396l108.568-62.058m-54.284-31.029 54.284 31.029M482.96 116.739l54.284 31.029m-54.284-31.029-54.284 31.029m54.284-31.029v62.058m54.284-31.029-54.284 31.029m54.284-31.029 54.284 31.029m-54.284-31.029v62.058m0-62.058-108.568 62.058m108.568-62.058 108.568 62.058m-108.568-62.058v124.116m-108.568-62.058 54.284-31.029m-54.284 31.029 54.284 31.029m-54.284-31.029v-62.058m0 62.058v62.058m0-62.058 108.568 62.058m-108.568-62.058v124.116m54.284-155.145 54.284 31.029m-54.284-31.029v62.058m0-62.058-54.284-31.029m108.568 62.058-54.284 31.029m54.284-31.029 54.284 31.029m-54.284-31.029v62.058m0-62.058 54.284-31.029M482.96 240.855l54.284 31.029m-54.284-31.029-54.284 31.029m54.284-31.029v62.058m108.568-62.058-54.284 31.029m54.284-31.029 54.284-31.029m-54.284 31.029v-62.058m-54.284 93.087-54.284 31.029m54.284-31.029 108.568-62.058m-108.568 62.058-108.568 62.058m162.852-155.145 54.284 31.029m0 0L428.676 333.942m54.284-31.029-54.284-31.029m54.284 31.029-54.284 31.029m0-62.058v62.058M47.135 303l54.284 31.029M47.135 303l-54.284 31.029M47.135 303v62.058m0-62.058-108.567 62.058M47.135 303l108.568 62.058M47.135 303v124.116m0-124.116L-170 427.116M47.135 303 264.27 427.116M47.135 303v248.232m54.284-217.203 54.284 31.029m-54.284-31.029-54.284 31.029m54.284-31.029v62.058m54.284-31.029-54.284 31.029m54.284-31.029 54.284 31.029m-54.284-31.029v62.058m0-62.058L47.135 427.116m108.568-62.058 108.567 62.058m-108.567-62.058v124.116M-170 427.116l54.284-31.029M-170 427.116l54.284 31.029M-170 427.116l108.568-62.058M-170 427.116l108.568 62.058M-170 427.116 47.135 551.232m-162.851-155.145 54.284 31.029m-54.284-31.029v62.058m0-62.058 54.284-31.029m0 62.058-54.284 31.029m54.284-31.029 54.283 31.029m-54.283-31.029v62.058m0-62.058 54.283-31.029m-54.283 31.029v-62.058m-54.284 93.087 54.284 31.029m108.567-62.058 54.284-31.029m-54.284 31.029 54.284 31.029m-54.284-31.029-54.284-31.029m54.284 31.029v-62.058m0 62.058-54.284 31.029m54.284-31.029v62.058m0-62.058-108.567-62.058m108.567 62.058-108.567 62.058m108.567-62.058 108.568 62.058M47.135 427.116v124.116m54.284-155.145 54.284 31.029m-54.284-31.029v62.058m0-62.058-54.284-31.029m108.568 62.058-54.284 31.029m54.284-31.029 54.284 31.029m-54.284-31.029v62.058m0-62.058 54.284-31.029m-108.568 62.058 54.284 31.029m-54.284-31.029-54.284 31.029m54.284-31.029v62.058M-61.432 365.058l54.283-31.029m-54.283 31.029 54.283 31.029m-54.283-31.029v124.116M-7.15 334.029l54.284 31.029m-54.284-31.029v62.058m54.284-31.029-54.284 31.029m0 0v62.058m0 0-54.283 31.029m54.283-31.029 54.284 31.029m-54.284-31.029v62.058m-54.283-31.029 54.283 31.029m-54.283-31.029 108.567 62.058m162.852-93.087-54.284 31.029m54.284-31.029 54.283-31.029m-54.283 31.029v-62.058m-54.284 93.087-54.284 31.029m54.284-31.029 108.567-62.058m-108.567 62.058L47.135 551.232m162.852-155.145 54.283 31.029m0 0L47.135 551.232m54.284-31.029-54.284-31.029m54.284 31.029-54.284 31.029m-54.284-31.029 54.284-31.029m-54.284 31.029 54.284 31.029m0-62.058v62.058" style="stroke:color(display-p3 .1652 .1652 .1652);stroke-opacity:1"></path>
		</g>
	</g>
	<path d="M471.076 51.277c2.944-1.703 7.717-1.703 10.661 0l37.734 21.831c2.944 1.703 2.944 4.465 0 6.168l-37.734 21.831c-2.944 1.703-7.717 1.703-10.661 0l-37.735-21.831c-2.944-1.703-2.944-4.465 0-6.168l37.735-21.83Z" fill="#F3F3F3" style="fill:color(display-p3 .9549 .9549 .9549);fill-opacity:1"></path>
	<path d="m483.965 86.63-3.563 2.06L453.4 73.07l3.563-2.062 13.801 7.985-1.013-15.383 4.576-2.647.45 13.235 27.301 1.952-4.687 2.712-22.539-1.8.187 4.404 8.926 5.164Z" fill="#151515" style="fill:color(display-p3 .0824 .0824 .0824);fill-opacity:1"></path>
	<path d="m433.167 79.219 37.932 21.945v13.621L433.167 92.84V79.219Z" fill="#E7E7E7" style="fill:color(display-p3 .9039 .9039 .9039);fill-opacity:1"></path>
	<path d="m481.563 101.164 37.931-21.945v13.62l-37.931 21.946v-13.621Z" fill="#CACACA" style="fill:color(display-p3 .7927 .7927 .7927);fill-opacity:1"></path>
	<path d="M431 76.192c0 1.182.828 2.252 2.167 3.027v13.62c-1.339-.774-2.167-1.844-2.167-3.026V76.192Z" fill="#E7E7E7" style="fill:color(display-p3 .9039 .9039 .9039);fill-opacity:1"></path>
	<path d="M471.099 101.164c2.889 1.671 7.574 1.671 10.464 0v13.621c-2.89 1.671-7.575 1.671-10.464 0v-13.621ZM521.662 76.192c0 1.182-.829 2.252-2.168 3.027v13.62c1.339-.774 2.168-1.844 2.168-3.026V76.192Z" fill="#CACACA" style="fill:color(display-p3 .7927 .7927 .7927);fill-opacity:1"></path>
	<path d="M415.186 82.816c2.944-1.7 7.717-1.7 10.661 0l37.734 21.786c2.944 1.7 2.944 4.455 0 6.155l-37.734 21.786c-2.944 1.7-7.717 1.7-10.661 0l-37.735-21.786c-2.944-1.7-2.944-4.455 0-6.155l37.735-21.786Z" fill="#F3F3F3" style="fill:color(display-p3 .9549 .9549 .9549);fill-opacity:1"></path>
	<path d="m377.277 110.7 37.932 21.9v13.593l-37.932-21.9V110.7Z" fill="#E7E7E7" style="fill:color(display-p3 .9039 .9039 .9039);fill-opacity:1"></path>
	<path d="m425.673 132.6 37.932-21.9v13.593l-37.932 21.9V132.6Z" fill="#CACACA" style="fill:color(display-p3 .7927 .7927 .7927);fill-opacity:1"></path>
	<path d="M375.11 107.679c0 1.18.828 2.248 2.167 3.021v13.593c-1.339-.773-2.167-1.841-2.167-3.02v-13.594Z" fill="#E7E7E7" style="fill:color(display-p3 .9039 .9039 .9039);fill-opacity:1"></path>
	<path d="M415.209 132.6c2.889 1.668 7.574 1.668 10.464 0v13.593c-2.89 1.668-7.575 1.668-10.464 0V132.6ZM465.772 107.679c0 1.18-.828 2.248-2.167 3.021v13.593c1.339-.773 2.167-1.841 2.167-3.02v-13.594Z" fill="#CACACA" style="fill:color(display-p3 .7927 .7927 .7927);fill-opacity:1"></path>
	<path d="m422.624 123.059-26.652-15.388 8.884-5.129c5.367-3.099 12.141-4.83 18.064-1.411 4.072 2.351 4.146 5.001.444 8.036 3.48-1.111 7.589-.705 11.217-.149l9.772 1.496-4.22 2.436-6.996-1.133c-5.701-.94-10.18-1.346-14.289 1.026l-3.442 1.988 10.735 6.198-3.517 2.03Zm-19.989-15.601 9.624 5.556 5.738-3.312c4.183-2.415 4.627-4.553 1.407-6.412-3.628-2.094-7.589-1.133-11.106.898l-5.663 3.27Z" fill="#151515" style="fill:color(display-p3 .0824 .0824 .0824);fill-opacity:1"></path>
	<path d="M358.951 115.315c2.944-1.703 7.718-1.703 10.663 0l37.742 21.831c2.944 1.703 2.944 4.465 0 6.168l-37.742 21.831c-2.945 1.703-7.719 1.703-10.663 0l-37.742-21.831c-2.945-1.703-2.945-4.465 0-6.168l37.742-21.831Z" fill="#F3F3F3" style="fill:color(display-p3 .9549 .9549 .9549);fill-opacity:1"></path>
	<path d="m321.11 143.257 37.939 21.945v13.621l-37.939-21.945v-13.621Z" fill="#E7E7E7" style="fill:color(display-p3 .9039 .9039 .9039);fill-opacity:1"></path>
	<path d="m369.515 165.202 37.939-21.945v13.621l-37.939 21.945v-13.621Z" fill="#CACACA" style="fill:color(display-p3 .7927 .7927 .7927);fill-opacity:1"></path>
	<path d="M318.943 140.23c0 1.182.828 2.252 2.167 3.027v13.621c-1.339-.775-2.167-1.845-2.167-3.027V140.23Z" fill="#E7E7E7" style="fill:color(display-p3 .9039 .9039 .9039);fill-opacity:1"></path>
	<path d="M359.049 165.202c2.89 1.671 7.576 1.671 10.466 0v13.621c-2.89 1.671-7.576 1.671-10.466 0v-13.621ZM409.622 140.23c0 1.182-.828 2.252-2.168 3.027v13.621c1.34-.775 2.168-1.845 2.168-3.027V140.23Z" fill="#CACACA" style="fill:color(display-p3 .7927 .7927 .7927);fill-opacity:1"></path>
	<path d="m345.482 134.14 3.592-2.078 36.95 9.466-3.813 2.206-8.886-2.356-11.996 6.939 4.035 5.161-3.591 2.077-16.291-21.415Zm5.813 1.306 8.072 10.365 9.663-5.589-17.735-4.776Z" fill="#151515" style="fill:color(display-p3 .0824 .0824 .0824);fill-opacity:1"></path>
	<path d="M301.851 148.856c2.944-1.703 7.717-1.703 10.661 0l37.735 21.831c2.944 1.703 2.944 4.465 0 6.168l-37.735 21.831c-2.944 1.703-7.717 1.703-10.661 0l-37.735-21.831c-2.944-1.703-2.944-4.465 0-6.168l37.735-21.831Z" fill="#F3F3F3" style="fill:color(display-p3 .9549 .9549 .9549);fill-opacity:1"></path>
	<path d="m263.942 176.798 37.932 21.945v13.621l-37.932-21.945v-13.621Z" fill="#E7E7E7" style="fill:color(display-p3 .9039 .9039 .9039);fill-opacity:1"></path>
	<path d="m312.338 198.743 37.932-21.945v13.621l-37.932 21.945v-13.621Z" fill="#CACACA" style="fill:color(display-p3 .7927 .7927 .7927);fill-opacity:1"></path>
	<path d="M261.775 173.771c0 1.182.828 2.252 2.167 3.027v13.621c-1.339-.775-2.167-1.845-2.167-3.027v-13.621Z" fill="#E7E7E7" style="fill:color(display-p3 .9039 .9039 .9039);fill-opacity:1"></path>
	<path d="M301.874 198.743c2.889 1.671 7.574 1.671 10.464 0v13.621c-2.89 1.671-7.575 1.671-10.464 0v-13.621ZM352.437 173.771c0 1.182-.828 2.252-2.167 3.027v13.621c1.339-.775 2.167-1.845 2.167-3.027v-13.621Z" fill="#CACACA" style="fill:color(display-p3 .7927 .7927 .7927);fill-opacity:1"></path>
	<path d="m331.106 174.506-19.048 11.02-27.54-15.932 3.634-2.103 24.288 14.052 15.415-8.918 3.251 1.881Z" fill="#151515" style="fill:color(display-p3 .0824 .0824 .0824);fill-opacity:1"></path>
	<path d="M246.64 180.397c2.944-1.704 7.717-1.704 10.661 0l37.735 21.83c2.944 1.703 2.944 4.465 0 6.168l-37.735 21.831c-2.944 1.703-7.717 1.703-10.661 0l-37.734-21.831c-2.944-1.703-2.944-4.465 0-6.168l37.734-21.83Z" fill="#F3F3F3" style="fill:color(display-p3 .9549 .9549 .9549);fill-opacity:1"></path>
	<path d="m208.732 208.338 37.931 21.945v13.621l-37.931-21.945v-13.621Z" fill="#E7E7E7" style="fill:color(display-p3 .9039 .9039 .9039);fill-opacity:1"></path>
	<path d="m257.127 230.283 37.932-21.945v13.621l-37.932 21.945v-13.621Z" fill="#CACACA" style="fill:color(display-p3 .7927 .7927 .7927);fill-opacity:1"></path>
	<path d="M206.565 205.311c0 1.182.828 2.252 2.167 3.027v13.621c-1.339-.775-2.167-1.845-2.167-3.027v-13.621Z" fill="#E7E7E7" style="fill:color(display-p3 .9039 .9039 .9039);fill-opacity:1"></path>
	<path d="M246.663 230.283c2.89 1.671 7.575 1.671 10.464 0v13.621c-2.889 1.671-7.574 1.671-10.464 0v-13.621ZM297.226 205.311c0 1.182-.828 2.252-2.167 3.027v13.621c1.339-.775 2.167-1.845 2.167-3.027v-13.621Z" fill="#CACACA" style="fill:color(display-p3 .7927 .7927 .7927);fill-opacity:1"></path>
	<path d="M242.767 210.649c5.935 3.433 13.078 4.564 18.764 1.274 3.837-2.22 3.837-4.975 1.279-7.648l4.122-1.603c3.66 3.433 3.269 7.524-2.559 10.896-7.818 4.523-17.803 3.392-25.159-.863-7.356-4.256-9.311-10.033-1.493-14.556 5.828-3.372 12.829-3.68 18.87-1.46l-2.772 2.385c-4.3-1.624-9.062-1.706-13.255.72-5.33 3.083-3.731 7.421 2.203 10.855Z" fill="#151515" style="fill:color(display-p3 .0824 .0824 .0824);fill-opacity:1"></path>
	<path d="M145.008 237.564c2.945-1.703 7.719-1.703 10.663 0l37.742 21.831c2.945 1.703 2.945 4.465 0 6.168l-37.742 21.831c-2.944 1.703-7.718 1.703-10.663 0l-37.742-21.831c-2.944-1.703-2.944-4.465 0-6.168l37.742-21.831Z" fill="#F3F3F3" style="fill:color(display-p3 .9549 .9549 .9549);fill-opacity:1"></path>
	<path d="m107.167 265.506 37.94 21.945v13.621l-37.94-21.945v-13.621Z" fill="#E7E7E7" style="fill:color(display-p3 .9039 .9039 .9039);fill-opacity:1"></path>
	<path d="m155.573 287.451 37.939-21.945v13.621l-37.939 21.945v-13.621Z" fill="#CACACA" style="fill:color(display-p3 .7927 .7927 .7927);fill-opacity:1"></path>
	<path d="M105 262.479c0 1.182.828 2.252 2.167 3.027v13.621c-1.339-.775-2.167-1.845-2.167-3.027v-13.621Z" fill="#E7E7E7" style="fill:color(display-p3 .9039 .9039 .9039);fill-opacity:1"></path>
	<path d="M145.107 287.451c2.89 1.671 7.576 1.671 10.466 0v13.621c-2.89 1.671-7.576 1.671-10.466 0v-13.621ZM195.679 262.479c0 1.182-.828 2.252-2.167 3.027v13.621c1.339-.775 2.167-1.845 2.167-3.027v-13.621Z" fill="#CACACA" style="fill:color(display-p3 .7927 .7927 .7927);fill-opacity:1"></path>
	<path d="m142.97 271.127 3.057-2.097c4.372 2.2 9.312 1.727 13.329-.596 3.696-2.138 4.087-4.503 1.35-6.086-1.635-.945-3.803-1.254-6.575-.555-1.884.473-7.5 2.488-9.526 3.084-6.078 1.789-8.957.905-11.374-.493-4.869-2.817-2.772-6.785 1.529-9.272 5.686-3.29 11.729-3.865 17.416-.987l-3.164 2.117c-3.589-1.706-7.464-1.768-11.267.432-2.666 1.542-4.443 3.968-1.457 5.695 1.315.761 3.128.987 5.118.452 1.635-.411 6.469-1.973 9.597-3.001 4.798-1.542 9.241-1.933 13.151.329 5.225 3.022 2.701 7.236-1.813 9.847-6.433 3.722-13.186 4.256-19.371 1.131Z" fill="#151515" style="fill:color(display-p3 .0824 .0824 .0824);fill-opacity:1"></path>
	<path d="M214.589 249.348c.779-.464 2.043-.464 2.822 0l9.989 5.951c.78.464.78 1.216 0 1.681l-9.989 5.95c-.779.464-2.043.464-2.822 0l-9.989-5.95c-.78-.465-.78-1.217 0-1.681l9.989-5.951Z" fill="#F3F3F3" style="fill:color(display-p3 .9549 .9549 .9549);fill-opacity:1"></path>
	<path d="m204.574 256.964 10.041 5.982v3.712l-10.041-5.981v-3.713Z" fill="#E7E7E7" style="fill:color(display-p3 .9039 .9039 .9039);fill-opacity:1"></path>
	<path d="m217.385 262.946 10.041-5.982v3.713l-10.041 5.981v-3.712Z" fill="#CACACA" style="fill:color(display-p3 .7927 .7927 .7927);fill-opacity:1"></path>
	<path d="M204 256.139c0 .322.219.614.574.825v3.713c-.355-.211-.574-.503-.574-.825v-3.713Z" fill="#E7E7E7" style="fill:color(display-p3 .9039 .9039 .9039);fill-opacity:1"></path>
	<path d="M214.615 262.946c.765.455 2.005.455 2.77 0v3.712c-.765.456-2.005.456-2.77 0v-3.712ZM228 256.139c0 .322-.219.614-.574.825v3.713c.355-.211.574-.503.574-.825v-3.713Z" fill="#CACACA" style="fill:color(display-p3 .7927 .7927 .7927);fill-opacity:1"></path>
	<g style="mix-blend-mode:soft-light">
		<mask id="c" style="mask-type:alpha" maskUnits="userSpaceOnUse" x="105" y="50" width="417" height="253">
			<path d="M471.076 51.277c2.944-1.703 7.717-1.703 10.661 0l37.734 21.831c2.944 1.703 2.944 4.465 0 6.168l-37.734 21.831c-2.944 1.703-7.717 1.703-10.661 0l-37.735-21.831c-2.944-1.703-2.944-4.465 0-6.168l37.735-21.83Z" fill="#F3F3F3" style="fill:color(display-p3 .9549 .9549 .9549);fill-opacity:1"></path>
			<path d="m483.965 86.63-3.563 2.06L453.4 73.07l3.563-2.062 13.801 7.985-1.013-15.383 4.576-2.647.45 13.235 27.301 1.952-4.687 2.712-22.539-1.8.187 4.404 8.926 5.164Z" fill="#151515" style="fill:color(display-p3 .0824 .0824 .0824);fill-opacity:1"></path>
			<path d="m433.167 79.219 37.932 21.945v13.621L433.167 92.84V79.219Z" fill="#E7E7E7" style="fill:color(display-p3 .9039 .9039 .9039);fill-opacity:1"></path>
			<path d="m481.563 101.164 37.931-21.945v13.62l-37.931 21.946v-13.621Z" fill="#CACACA" style="fill:color(display-p3 .7927 .7927 .7927);fill-opacity:1"></path>
			<path d="M431 76.192c0 1.182.828 2.252 2.167 3.027v13.62c-1.339-.774-2.167-1.844-2.167-3.026V76.192Z" fill="#E7E7E7" style="fill:color(display-p3 .9039 .9039 .9039);fill-opacity:1"></path>
			<path d="M471.099 101.164c2.889 1.671 7.574 1.671 10.464 0v13.621c-2.89 1.671-7.575 1.671-10.464 0v-13.621ZM521.662 76.192c0 1.182-.829 2.252-2.168 3.027v13.62c1.339-.774 2.168-1.844 2.168-3.026V76.192Z" fill="#CACACA" style="fill:color(display-p3 .7927 .7927 .7927);fill-opacity:1"></path>
			<path d="M415.186 82.816c2.944-1.7 7.717-1.7 10.661 0l37.734 21.786c2.944 1.7 2.944 4.455 0 6.155l-37.734 21.786c-2.944 1.7-7.717 1.7-10.661 0l-37.735-21.786c-2.944-1.7-2.944-4.455 0-6.155l37.735-21.786Z" fill="#F3F3F3" style="fill:color(display-p3 .9549 .9549 .9549);fill-opacity:1"></path>
			<path d="m377.277 110.7 37.932 21.9v13.593l-37.932-21.9V110.7Z" fill="#E7E7E7" style="fill:color(display-p3 .9039 .9039 .9039);fill-opacity:1"></path>
			<path d="m425.673 132.6 37.932-21.9v13.593l-37.932 21.9V132.6Z" fill="#CACACA" style="fill:color(display-p3 .7927 .7927 .7927);fill-opacity:1"></path>
			<path d="M375.11 107.679c0 1.18.828 2.248 2.167 3.021v13.593c-1.339-.773-2.167-1.841-2.167-3.02v-13.594Z" fill="#E7E7E7" style="fill:color(display-p3 .9039 .9039 .9039);fill-opacity:1"></path>
			<path d="M415.209 132.6c2.889 1.668 7.574 1.668 10.464 0v13.593c-2.89 1.668-7.575 1.668-10.464 0V132.6ZM465.772 107.679c0 1.18-.828 2.248-2.167 3.021v13.593c1.339-.773 2.167-1.841 2.167-3.02v-13.594Z" fill="#CACACA" style="fill:color(display-p3 .7927 .7927 .7927);fill-opacity:1"></path>
			<path d="m422.624 123.059-26.652-15.388 8.884-5.129c5.367-3.099 12.141-4.83 18.064-1.411 4.072 2.351 4.146 5.001.444 8.036 3.48-1.111 7.589-.705 11.217-.149l9.772 1.496-4.22 2.436-6.996-1.133c-5.701-.94-10.18-1.346-14.289 1.026l-3.442 1.988 10.735 6.198-3.517 2.03Zm-19.989-15.601 9.624 5.556 5.738-3.312c4.183-2.415 4.627-4.553 1.407-6.412-3.628-2.094-7.589-1.133-11.106.898l-5.663 3.27Z" fill="#151515" style="fill:color(display-p3 .0824 .0824 .0824);fill-opacity:1"></path>
			<path d="M358.951 115.315c2.944-1.703 7.718-1.703 10.663 0l37.742 21.831c2.944 1.703 2.944 4.465 0 6.168l-37.742 21.831c-2.945 1.703-7.719 1.703-10.663 0l-37.742-21.831c-2.945-1.703-2.945-4.465 0-6.168l37.742-21.831Z" fill="#F3F3F3" style="fill:color(display-p3 .9549 .9549 .9549);fill-opacity:1"></path>
			<path d="m321.11 143.257 37.939 21.945v13.621l-37.939-21.945v-13.621Z" fill="#E7E7E7" style="fill:color(display-p3 .9039 .9039 .9039);fill-opacity:1"></path>
			<path d="m369.515 165.202 37.939-21.945v13.621l-37.939 21.945v-13.621Z" fill="#CACACA" style="fill:color(display-p3 .7927 .7927 .7927);fill-opacity:1"></path>
			<path d="M318.943 140.23c0 1.182.828 2.252 2.167 3.027v13.621c-1.339-.775-2.167-1.845-2.167-3.027V140.23Z" fill="#E7E7E7" style="fill:color(display-p3 .9039 .9039 .9039);fill-opacity:1"></path>
			<path d="M359.049 165.202c2.89 1.671 7.576 1.671 10.466 0v13.621c-2.89 1.671-7.576 1.671-10.466 0v-13.621ZM409.622 140.23c0 1.182-.828 2.252-2.168 3.027v13.621c1.34-.775 2.168-1.845 2.168-3.027V140.23Z" fill="#CACACA" style="fill:color(display-p3 .7927 .7927 .7927);fill-opacity:1"></path>
			<path d="m345.482 134.14 3.592-2.078 36.95 9.466-3.813 2.206-8.886-2.356-11.996 6.939 4.036 5.161-3.592 2.077-16.291-21.415Zm5.813 1.306 8.072 10.365 9.663-5.589-17.735-4.776Z" fill="#151515" style="fill:color(display-p3 .0824 .0824 .0824);fill-opacity:1"></path>
			<path d="M301.851 148.856c2.944-1.703 7.717-1.703 10.661 0l37.735 21.831c2.944 1.703 2.944 4.465 0 6.168l-37.735 21.831c-2.944 1.703-7.717 1.703-10.661 0l-37.735-21.831c-2.944-1.703-2.944-4.465 0-6.168l37.735-21.831Z" fill="#F3F3F3" style="fill:color(display-p3 .9549 .9549 .9549);fill-opacity:1"></path>
			<path d="m263.942 176.798 37.932 21.945v13.621l-37.932-21.945v-13.621Z" fill="#E7E7E7" style="fill:color(display-p3 .9039 .9039 .9039);fill-opacity:1"></path>
			<path d="m312.338 198.743 37.932-21.945v13.621l-37.932 21.945v-13.621Z" fill="#CACACA" style="fill:color(display-p3 .7927 .7927 .7927);fill-opacity:1"></path>
			<path d="M261.775 173.771c0 1.182.828 2.252 2.167 3.027v13.621c-1.339-.775-2.167-1.845-2.167-3.027v-13.621Z" fill="#E7E7E7" style="fill:color(display-p3 .9039 .9039 .9039);fill-opacity:1"></path>
			<path d="M301.874 198.743c2.889 1.671 7.574 1.671 10.464 0v13.621c-2.89 1.671-7.575 1.671-10.464 0v-13.621ZM352.437 173.771c0 1.182-.828 2.252-2.167 3.027v13.621c1.339-.775 2.167-1.845 2.167-3.027v-13.621Z" fill="#CACACA" style="fill:color(display-p3 .7927 .7927 .7927);fill-opacity:1"></path>
			<path d="m331.106 174.506-19.048 11.02-27.54-15.932 3.634-2.103 24.288 14.052 15.415-8.918 3.251 1.881Z" fill="#151515" style="fill:color(display-p3 .0824 .0824 .0824);fill-opacity:1"></path>
			<path d="M246.64 180.397c2.944-1.704 7.717-1.704 10.661 0l37.735 21.83c2.944 1.703 2.944 4.465 0 6.168l-37.735 21.831c-2.944 1.703-7.717 1.703-10.661 0l-37.734-21.831c-2.944-1.703-2.944-4.465 0-6.168l37.734-21.83Z" fill="#F3F3F3" style="fill:color(display-p3 .9549 .9549 .9549);fill-opacity:1"></path>
			<path d="m208.732 208.338 37.931 21.945v13.621l-37.931-21.945v-13.621Z" fill="#E7E7E7" style="fill:color(display-p3 .9039 .9039 .9039);fill-opacity:1"></path>
			<path d="m257.127 230.283 37.932-21.945v13.621l-37.932 21.945v-13.621Z" fill="#CACACA" style="fill:color(display-p3 .7927 .7927 .7927);fill-opacity:1"></path>
			<path d="M206.565 205.311c0 1.182.828 2.252 2.167 3.027v13.621c-1.339-.775-2.167-1.845-2.167-3.027v-13.621Z" fill="#E7E7E7" style="fill:color(display-p3 .9039 .9039 .9039);fill-opacity:1"></path>
			<path d="M246.663 230.283c2.89 1.671 7.575 1.671 10.464 0v13.621c-2.889 1.671-7.574 1.671-10.464 0v-13.621ZM297.226 205.311c0 1.182-.828 2.252-2.167 3.027v13.621c1.339-.775 2.167-1.845 2.167-3.027v-13.621Z" fill="#CACACA" style="fill:color(display-p3 .7927 .7927 .7927);fill-opacity:1"></path>
			<path d="M242.767 210.649c5.935 3.433 13.078 4.564 18.764 1.274 3.837-2.22 3.837-4.975 1.279-7.648l4.122-1.603c3.66 3.433 3.269 7.524-2.559 10.896-7.818 4.523-17.803 3.392-25.159-.863-7.356-4.256-9.311-10.033-1.493-14.556 5.828-3.372 12.829-3.68 18.87-1.46l-2.772 2.385c-4.3-1.624-9.062-1.706-13.255.72-5.33 3.083-3.731 7.421 2.203 10.855Z" fill="#151515" style="fill:color(display-p3 .0824 .0824 .0824);fill-opacity:1"></path>
			<path d="M145.008 237.564c2.945-1.703 7.719-1.703 10.663 0l37.742 21.831c2.945 1.703 2.945 4.465 0 6.168l-37.742 21.831c-2.944 1.703-7.718 1.703-10.663 0l-37.742-21.831c-2.944-1.703-2.944-4.465 0-6.168l37.742-21.831Z" fill="#F3F3F3" style="fill:color(display-p3 .9549 .9549 .9549);fill-opacity:1"></path>
			<path d="m107.167 265.506 37.94 21.945v13.621l-37.94-21.945v-13.621Z" fill="#E7E7E7" style="fill:color(display-p3 .9039 .9039 .9039);fill-opacity:1"></path>
			<path d="m155.573 287.451 37.939-21.945v13.621l-37.939 21.945v-13.621Z" fill="#CACACA" style="fill:color(display-p3 .7927 .7927 .7927);fill-opacity:1"></path>
			<path d="M105 262.479c0 1.182.828 2.252 2.167 3.027v13.621c-1.339-.775-2.167-1.845-2.167-3.027v-13.621Z" fill="#E7E7E7" style="fill:color(display-p3 .9039 .9039 .9039);fill-opacity:1"></path>
			<path d="M145.107 287.451c2.89 1.671 7.576 1.671 10.466 0v13.621c-2.89 1.671-7.576 1.671-10.466 0v-13.621ZM195.679 262.479c0 1.182-.828 2.252-2.167 3.027v13.621c1.339-.775 2.167-1.845 2.167-3.027v-13.621Z" fill="#CACACA" style="fill:color(display-p3 .7927 .7927 .7927);fill-opacity:1"></path>
			<path d="m142.97 271.127 3.057-2.097c4.372 2.2 9.312 1.727 13.329-.596 3.696-2.138 4.087-4.503 1.35-6.086-1.635-.945-3.803-1.254-6.575-.555-1.884.473-7.5 2.488-9.526 3.084-6.078 1.789-8.957.905-11.374-.493-4.869-2.817-2.772-6.785 1.529-9.272 5.686-3.29 11.729-3.866 17.416-.987l-3.164 2.117c-3.589-1.706-7.464-1.768-11.267.432-2.666 1.542-4.443 3.968-1.457 5.695 1.315.761 3.128.987 5.118.452 1.635-.411 6.469-1.973 9.597-3.001 4.798-1.542 9.241-1.933 13.151.329 5.225 3.022 2.701 7.236-1.813 9.847-6.433 3.721-13.186 4.256-19.371 1.131Z" fill="#151515" style="fill:color(display-p3 .0824 .0824 .0824);fill-opacity:1"></path>
			<path d="M214.589 249.348c.779-.464 2.043-.464 2.822 0l9.989 5.951c.78.464.78 1.216 0 1.681l-9.989 5.95c-.779.464-2.043.464-2.822 0l-9.989-5.95c-.78-.465-.78-1.217 0-1.681l9.989-5.951Z" fill="#F3F3F3" style="fill:color(display-p3 .9549 .9549 .9549);fill-opacity:1"></path>
			<path d="m204.574 256.964 10.041 5.982v3.712l-10.041-5.981v-3.713Z" fill="#E7E7E7" style="fill:color(display-p3 .9039 .9039 .9039);fill-opacity:1"></path>
			<path d="m217.385 262.946 10.041-5.982v3.713l-10.041 5.981v-3.712Z" fill="#CACACA" style="fill:color(display-p3 .7927 .7927 .7927);fill-opacity:1"></path>
			<path d="M204 256.139c0 .322.219.614.574.825v3.713c-.355-.211-.574-.503-.574-.825v-3.713Z" fill="#E7E7E7" style="fill:color(display-p3 .9039 .9039 .9039);fill-opacity:1"></path>
			<path d="M214.615 262.946c.765.455 2.005.455 2.77 0v3.712c-.765.456-2.005.456-2.77 0v-3.712ZM228 256.139c0 .322-.219.614-.574.825v3.713c.355-.211.574-.503.574-.825v-3.713Z" fill="#CACACA" style="fill:color(display-p3 .7927 .7927 .7927);fill-opacity:1"></path>
		</mask>
		<g mask="url(#c)">
			<path fill="url(#d)" d="M77-5h458v314H77z"></path>
		</g>
	</g>
	<g style="mix-blend-mode:soft-light">
		<mask id="e" style="mask-type:alpha" maskUnits="userSpaceOnUse" x="105" y="50" width="417" height="253">
			<path d="M471.076 51.277c2.944-1.703 7.717-1.703 10.661 0l37.734 21.831c2.944 1.703 2.944 4.465 0 6.168l-37.734 21.831c-2.944 1.703-7.717 1.703-10.661 0l-37.735-21.831c-2.944-1.703-2.944-4.465 0-6.168l37.735-21.83Z" fill="#F3F3F3" style="fill:color(display-p3 .9549 .9549 .9549);fill-opacity:1"></path>
			<path d="m483.965 86.63-3.563 2.06L453.4 73.07l3.563-2.062 13.801 7.985-1.013-15.383 4.576-2.647.45 13.235 27.301 1.952-4.687 2.712-22.539-1.8.187 4.404 8.926 5.164Z" fill="#151515" style="fill:color(display-p3 .0824 .0824 .0824);fill-opacity:1"></path>
			<path d="m433.167 79.219 37.932 21.945v13.621L433.167 92.84V79.219Z" fill="#E7E7E7" style="fill:color(display-p3 .9039 .9039 .9039);fill-opacity:1"></path>
			<path d="m481.563 101.164 37.931-21.945v13.62l-37.931 21.946v-13.621Z" fill="#CACACA" style="fill:color(display-p3 .7927 .7927 .7927);fill-opacity:1"></path>
			<path d="M431 76.192c0 1.182.828 2.252 2.167 3.027v13.62c-1.339-.774-2.167-1.844-2.167-3.026V76.192Z" fill="#E7E7E7" style="fill:color(display-p3 .9039 .9039 .9039);fill-opacity:1"></path>
			<path d="M471.099 101.164c2.889 1.671 7.574 1.671 10.464 0v13.621c-2.89 1.671-7.575 1.671-10.464 0v-13.621ZM521.662 76.192c0 1.182-.829 2.252-2.168 3.027v13.62c1.339-.774 2.168-1.844 2.168-3.026V76.192Z" fill="#CACACA" style="fill:color(display-p3 .7927 .7927 .7927);fill-opacity:1"></path>
			<path d="M415.186 82.816c2.944-1.7 7.717-1.7 10.661 0l37.734 21.786c2.944 1.7 2.944 4.455 0 6.155l-37.734 21.786c-2.944 1.7-7.717 1.7-10.661 0l-37.735-21.786c-2.944-1.7-2.944-4.455 0-6.155l37.735-21.786Z" fill="#F3F3F3" style="fill:color(display-p3 .9549 .9549 .9549);fill-opacity:1"></path>
			<path d="m377.277 110.7 37.932 21.9v13.593l-37.932-21.9V110.7Z" fill="#E7E7E7" style="fill:color(display-p3 .9039 .9039 .9039);fill-opacity:1"></path>
			<path d="m425.673 132.6 37.932-21.9v13.593l-37.932 21.9V132.6Z" fill="#CACACA" style="fill:color(display-p3 .7927 .7927 .7927);fill-opacity:1"></path>
			<path d="M375.11 107.679c0 1.18.828 2.248 2.167 3.021v13.593c-1.339-.773-2.167-1.841-2.167-3.02v-13.594Z" fill="#E7E7E7" style="fill:color(display-p3 .9039 .9039 .9039);fill-opacity:1"></path>
			<path d="M415.209 132.6c2.889 1.668 7.574 1.668 10.464 0v13.593c-2.89 1.668-7.575 1.668-10.464 0V132.6ZM465.772 107.679c0 1.18-.828 2.248-2.167 3.021v13.593c1.339-.773 2.167-1.841 2.167-3.02v-13.594Z" fill="#CACACA" style="fill:color(display-p3 .7927 .7927 .7927);fill-opacity:1"></path>
			<path d="m422.624 123.059-26.652-15.388 8.884-5.129c5.367-3.099 12.141-4.83 18.064-1.411 4.072 2.351 4.146 5.001.444 8.036 3.48-1.111 7.589-.705 11.217-.149l9.772 1.496-4.22 2.436-6.996-1.133c-5.701-.94-10.18-1.346-14.289 1.026l-3.442 1.988 10.735 6.198-3.517 2.03Zm-19.989-15.601 9.624 5.556 5.738-3.312c4.183-2.415 4.627-4.553 1.407-6.412-3.628-2.094-7.589-1.133-11.106.898l-5.663 3.27Z" fill="#151515" style="fill:color(display-p3 .0824 .0824 .0824);fill-opacity:1"></path>
			<path d="M358.951 115.315c2.944-1.703 7.718-1.703 10.663 0l37.742 21.831c2.944 1.703 2.944 4.465 0 6.168l-37.742 21.831c-2.945 1.703-7.719 1.703-10.663 0l-37.742-21.831c-2.945-1.703-2.945-4.465 0-6.168l37.742-21.831Z" fill="#F3F3F3" style="fill:color(display-p3 .9549 .9549 .9549);fill-opacity:1"></path>
			<path d="m321.11 143.257 37.939 21.945v13.621l-37.939-21.945v-13.621Z" fill="#E7E7E7" style="fill:color(display-p3 .9039 .9039 .9039);fill-opacity:1"></path>
			<path d="m369.515 165.202 37.939-21.945v13.621l-37.939 21.945v-13.621Z" fill="#CACACA" style="fill:color(display-p3 .7927 .7927 .7927);fill-opacity:1"></path>
			<path d="M318.943 140.23c0 1.182.828 2.252 2.167 3.027v13.621c-1.339-.775-2.167-1.845-2.167-3.027V140.23Z" fill="#E7E7E7" style="fill:color(display-p3 .9039 .9039 .9039);fill-opacity:1"></path>
			<path d="M359.049 165.202c2.89 1.671 7.576 1.671 10.466 0v13.621c-2.89 1.671-7.576 1.671-10.466 0v-13.621ZM409.622 140.23c0 1.182-.828 2.252-2.168 3.027v13.621c1.34-.775 2.168-1.845 2.168-3.027V140.23Z" fill="#CACACA" style="fill:color(display-p3 .7927 .7927 .7927);fill-opacity:1"></path>
			<path d="m345.482 134.14 3.592-2.078 36.95 9.466-3.813 2.206-8.886-2.356-11.996 6.939 4.036 5.161-3.592 2.077-16.291-21.415Zm5.813 1.306 8.072 10.365 9.663-5.589-17.735-4.776Z" fill="#151515" style="fill:color(display-p3 .0824 .0824 .0824);fill-opacity:1"></path>
			<path d="M301.851 148.856c2.944-1.703 7.717-1.703 10.661 0l37.735 21.831c2.944 1.703 2.944 4.465 0 6.168l-37.735 21.831c-2.944 1.703-7.717 1.703-10.661 0l-37.735-21.831c-2.944-1.703-2.944-4.465 0-6.168l37.735-21.831Z" fill="#F3F3F3" style="fill:color(display-p3 .9549 .9549 .9549);fill-opacity:1"></path>
			<path d="m263.942 176.798 37.932 21.945v13.621l-37.932-21.945v-13.621Z" fill="#E7E7E7" style="fill:color(display-p3 .9039 .9039 .9039);fill-opacity:1"></path>
			<path d="m312.338 198.743 37.932-21.945v13.621l-37.932 21.945v-13.621Z" fill="#CACACA" style="fill:color(display-p3 .7927 .7927 .7927);fill-opacity:1"></path>
			<path d="M261.775 173.771c0 1.182.828 2.252 2.167 3.027v13.621c-1.339-.775-2.167-1.845-2.167-3.027v-13.621Z" fill="#E7E7E7" style="fill:color(display-p3 .9039 .9039 .9039);fill-opacity:1"></path>
			<path d="M301.874 198.743c2.889 1.671 7.574 1.671 10.464 0v13.621c-2.89 1.671-7.575 1.671-10.464 0v-13.621ZM352.437 173.771c0 1.182-.828 2.252-2.167 3.027v13.621c1.339-.775 2.167-1.845 2.167-3.027v-13.621Z" fill="#CACACA" style="fill:color(display-p3 .7927 .7927 .7927);fill-opacity:1"></path>
			<path d="m331.106 174.506-19.048 11.02-27.54-15.932 3.634-2.103 24.288 14.052 15.415-8.918 3.251 1.881Z" fill="#151515" style="fill:color(display-p3 .0824 .0824 .0824);fill-opacity:1"></path>
			<path d="M246.64 180.397c2.944-1.704 7.717-1.704 10.661 0l37.735 21.83c2.944 1.703 2.944 4.465 0 6.168l-37.735 21.831c-2.944 1.703-7.717 1.703-10.661 0l-37.734-21.831c-2.944-1.703-2.944-4.465 0-6.168l37.734-21.83Z" fill="#F3F3F3" style="fill:color(display-p3 .9549 .9549 .9549);fill-opacity:1"></path>
			<path d="m208.732 208.338 37.931 21.945v13.621l-37.931-21.945v-13.621Z" fill="#E7E7E7" style="fill:color(display-p3 .9039 .9039 .9039);fill-opacity:1"></path>
			<path d="m257.127 230.283 37.932-21.945v13.621l-37.932 21.945v-13.621Z" fill="#CACACA" style="fill:color(display-p3 .7927 .7927 .7927);fill-opacity:1"></path>
			<path d="M206.565 205.311c0 1.182.828 2.252 2.167 3.027v13.621c-1.339-.775-2.167-1.845-2.167-3.027v-13.621Z" fill="#E7E7E7" style="fill:color(display-p3 .9039 .9039 .9039);fill-opacity:1"></path>
			<path d="M246.663 230.283c2.89 1.671 7.575 1.671 10.464 0v13.621c-2.889 1.671-7.574 1.671-10.464 0v-13.621ZM297.226 205.311c0 1.182-.828 2.252-2.167 3.027v13.621c1.339-.775 2.167-1.845 2.167-3.027v-13.621Z" fill="#CACACA" style="fill:color(display-p3 .7927 .7927 .7927);fill-opacity:1"></path>
			<path d="M242.767 210.649c5.935 3.433 13.078 4.564 18.764 1.274 3.837-2.22 3.837-4.975 1.279-7.648l4.122-1.603c3.66 3.433 3.269 7.524-2.559 10.896-7.818 4.523-17.803 3.392-25.159-.863-7.356-4.256-9.311-10.033-1.493-14.556 5.828-3.372 12.829-3.68 18.87-1.46l-2.772 2.385c-4.3-1.624-9.062-1.706-13.255.72-5.33 3.083-3.731 7.421 2.203 10.855Z" fill="#151515" style="fill:color(display-p3 .0824 .0824 .0824);fill-opacity:1"></path>
			<path d="M145.008 237.564c2.945-1.703 7.719-1.703 10.663 0l37.742 21.831c2.945 1.703 2.945 4.465 0 6.168l-37.742 21.831c-2.944 1.703-7.718 1.703-10.663 0l-37.742-21.831c-2.944-1.703-2.944-4.465 0-6.168l37.742-21.831Z" fill="#F3F3F3" style="fill:color(display-p3 .9549 .9549 .9549);fill-opacity:1"></path>
			<path d="m107.167 265.506 37.94 21.945v13.621l-37.94-21.945v-13.621Z" fill="#E7E7E7" style="fill:color(display-p3 .9039 .9039 .9039);fill-opacity:1"></path>
			<path d="m155.573 287.451 37.939-21.945v13.621l-37.939 21.945v-13.621Z" fill="#CACACA" style="fill:color(display-p3 .7927 .7927 .7927);fill-opacity:1"></path>
			<path d="M105 262.479c0 1.182.828 2.252 2.167 3.027v13.621c-1.339-.775-2.167-1.845-2.167-3.027v-13.621Z" fill="#E7E7E7" style="fill:color(display-p3 .9039 .9039 .9039);fill-opacity:1"></path>
			<path d="M145.107 287.451c2.89 1.671 7.576 1.671 10.466 0v13.621c-2.89 1.671-7.576 1.671-10.466 0v-13.621ZM195.679 262.479c0 1.182-.828 2.252-2.167 3.027v13.621c1.339-.775 2.167-1.845 2.167-3.027v-13.621Z" fill="#CACACA" style="fill:color(display-p3 .7927 .7927 .7927);fill-opacity:1"></path>
			<path d="m142.97 271.127 3.057-2.097c4.372 2.2 9.312 1.727 13.329-.596 3.696-2.138 4.087-4.503 1.35-6.086-1.635-.945-3.803-1.254-6.575-.555-1.884.473-7.5 2.488-9.526 3.084-6.078 1.789-8.957.905-11.374-.493-4.869-2.817-2.772-6.785 1.529-9.272 5.686-3.29 11.729-3.866 17.416-.987l-3.164 2.117c-3.589-1.706-7.464-1.768-11.267.432-2.666 1.542-4.443 3.968-1.457 5.695 1.315.761 3.128.987 5.118.452 1.635-.411 6.469-1.973 9.597-3.001 4.798-1.542 9.241-1.933 13.151.329 5.225 3.022 2.701 7.236-1.813 9.847-6.433 3.721-13.186 4.256-19.371 1.131Z" fill="#151515" style="fill:color(display-p3 .0824 .0824 .0824);fill-opacity:1"></path>
			<path d="M214.589 249.348c.779-.464 2.043-.464 2.822 0l9.989 5.951c.78.464.78 1.216 0 1.681l-9.989 5.95c-.779.464-2.043.464-2.822 0l-9.989-5.95c-.78-.465-.78-1.217 0-1.681l9.989-5.951Z" fill="#F3F3F3" style="fill:color(display-p3 .9549 .9549 .9549);fill-opacity:1"></path>
			<path d="m204.574 256.964 10.041 5.982v3.712l-10.041-5.981v-3.713Z" fill="#E7E7E7" style="fill:color(display-p3 .9039 .9039 .9039);fill-opacity:1"></path>
			<path d="m217.385 262.946 10.041-5.982v3.713l-10.041 5.981v-3.712Z" fill="#CACACA" style="fill:color(display-p3 .7927 .7927 .7927);fill-opacity:1"></path>
			<path d="M204 256.139c0 .322.219.614.574.825v3.713c-.355-.211-.574-.503-.574-.825v-3.713Z" fill="#E7E7E7" style="fill:color(display-p3 .9039 .9039 .9039);fill-opacity:1"></path>
			<path d="M214.615 262.946c.765.455 2.005.455 2.77 0v3.712c-.765.456-2.005.456-2.77 0v-3.712ZM228 256.139c0 .322-.219.614-.574.825v3.713c.355-.211.574-.503.574-.825v-3.713Z" fill="#CACACA" style="fill:color(display-p3 .7927 .7927 .7927);fill-opacity:1"></path>
		</mask>
		<g mask="url(#e)">
			<path fill="url(#f)" d="M77-5h458v314H77z"></path>
		</g>
	</g>
	<defs>
		<linearGradient id="d" x1="108.066" y1="180.067" x2="437.74" y2="59.819" gradientUnits="userSpaceOnUse">
			<stop stop-color="#FFC83A" style="stop-color:color(display-p3 1 .7842 .2292);stop-opacity:1"></stop>
			<stop offset=".363" stop-color="#FF008A" style="stop-color:color(display-p3 1 0 .5412);stop-opacity:1"></stop>
			<stop offset=".665" stop-color="#A69ED7" style="stop-color:color(display-p3 .6517 .6205 .8431);stop-opacity:1"></stop>
			<stop offset="1" stop-color="#001AFF" style="stop-color:color(display-p3 0 .1 1);stop-opacity:1"></stop>
		</linearGradient>
		<linearGradient id="f" x1="108.066" y1="180.067" x2="437.74" y2="59.819" gradientUnits="userSpaceOnUse">
			<stop stop-color="#FFC83A" style="stop-color:color(display-p3 1 .7842 .2292);stop-opacity:1"></stop>
			<stop offset=".363" stop-color="#FF008A" style="stop-color:color(display-p3 1 0 .5412);stop-opacity:1"></stop>
			<stop offset=".665" stop-color="#A69ED7" style="stop-color:color(display-p3 .6517 .6205 .8431);stop-opacity:1"></stop>
			<stop offset="1" stop-color="#001AFF" style="stop-color:color(display-p3 0 .1 1);stop-opacity:1"></stop>
		</linearGradient>
	</defs>
</svg>
