<svg width="123" height="20" viewBox="0 0 123 20" fill="none" xmlns="http://www.w3.org/2000/svg">
<path d="M18.4437 2.59781L18.6921 2.57219C21.306 2.27582 23.9523 2.00871 26.5555 1.77088C26.7463 1.75259 26.9335 1.74527 27.1172 1.74527C28.3927 1.73579 29.6311 2.1812 30.6168 3.00395C31.1757 3.44422 31.6363 3.99995 31.9684 4.63445C32.3004 5.26895 32.4963 5.96779 32.543 6.68486C32.6231 7.70966 32.3999 8.73541 31.9021 9.63033C31.5079 10.3532 30.9607 10.9781 30.2999 11.4598C31.5457 12.9527 32.7914 14.4711 34.0084 15.9786L34.318 16.3445L33.832 16.3811C32.6318 16.4689 31.4317 16.5641 30.2315 16.6665H30.1019L30.0191 16.5641C28.9173 15.2102 27.7832 13.8418 26.6527 12.4916C25.5077 12.5977 24.3412 12.7148 23.1819 12.8356L23.6283 17.2776L23.3799 17.3032C22.3682 17.4056 21.36 17.5154 20.3483 17.6288L20.0999 17.6581L18.4437 2.59781ZM22.8614 9.44739C24.2044 9.31201 25.5653 9.17662 26.9119 9.05221C27.1704 9.03614 27.4232 8.96803 27.6556 8.85182C27.888 8.73562 28.0954 8.57364 28.2657 8.3753C28.4313 8.18892 28.5575 7.96987 28.6362 7.73179C28.715 7.49371 28.7446 7.2417 28.7233 6.99147C28.7021 6.74123 28.6303 6.49813 28.5125 6.27731C28.3948 6.05648 28.2335 5.86267 28.0388 5.70793C27.6896 5.41482 27.2496 5.2567 26.7967 5.26153H26.5771C25.2449 5.38594 23.8696 5.51766 22.4834 5.66036L22.8614 9.44739Z" fill="#375FF0"/>
<path d="M35.7328 1.06843L35.9812 1.05013L39.146 0.852539H39.3944L40.2441 15.9933H39.9957C38.9804 16.0519 37.9675 16.1141 36.9569 16.1799L36.7049 16.1982L35.7328 1.06843Z" fill="#375FF0"/>
<path d="M47.582 3.89336C45.9834 3.9519 44.3632 4.01777 42.7682 4.09827H42.5197L42.3577 0.673474H42.6062C47.0383 0.457595 51.5353 0.307579 55.971 0.263672H56.223L56.2626 3.69578H56.0142C54.4012 3.71408 52.7738 3.74701 51.2004 3.78725L51.4992 15.5142H51.2472C50.2427 15.5398 49.2346 15.5728 48.2265 15.6057H47.9744L47.582 3.89336Z" fill="#375FF0"/>
<path d="M66.009 15.7445C64.9786 15.7573 63.956 15.5613 63.0009 15.168C62.0458 14.7747 61.1774 14.1921 60.4463 13.454C59.6981 12.7296 59.1026 11.8581 58.696 10.8926C58.2893 9.92714 58.0801 8.88772 58.0808 7.8375C58.0572 6.78283 58.2531 5.73496 58.6558 4.76263C59.0584 3.79029 59.6588 2.91542 60.4175 2.19538C61.9189 0.731793 63.7623 0 66.0558 0H66.1818C68.4141 0.0292717 70.2143 0.731792 71.6761 2.11488L72.0361 2.45882L71.8489 2.64543C71.1144 3.37723 70.3823 4.10902 69.6526 4.84081L69.4834 5.01278L69.1234 4.68347C68.3155 3.90194 67.2395 3.47139 66.1242 3.48333H66.0558C65.4844 3.47118 64.9164 3.57604 64.3856 3.79165C63.8549 4.00726 63.3723 4.32923 62.9666 4.73836C62.5475 5.12879 62.2152 5.60551 61.9917 6.13676C61.7682 6.668 61.6587 7.24156 61.6705 7.8192C61.6611 8.39752 61.7698 8.97154 61.9898 9.50497C62.2098 10.0384 62.5363 10.5197 62.9486 10.9183C63.3461 11.3375 63.8233 11.6701 64.3513 11.8959C64.8793 12.1218 65.447 12.2361 66.0198 12.2319H66.081C67.1629 12.2497 68.2109 11.8481 69.0118 11.1086L69.3718 10.7866L69.5374 10.9769C70.2179 11.7489 70.8876 12.5246 71.5573 13.3003L71.7229 13.4906L71.3629 13.8126C69.9152 15.1034 68.0423 15.7931 66.117 15.7445H66.009Z" fill="#375FF0"/>
<path d="M86.2148 16.4767C82.3407 16.1291 78.3982 15.8437 74.5025 15.6242H74.2505L75.075 0.483398H75.3235C79.3739 0.710254 83.4748 1.00662 87.5181 1.36886L87.7665 1.39081L87.4749 4.80828L87.2229 4.78633C84.3425 4.52654 81.4082 4.30335 78.5242 4.11308L78.391 6.24626C80.7493 6.39994 83.1436 6.57923 85.5019 6.78047H85.7539L85.4731 10.2016L85.2211 10.1796C82.8772 9.98206 80.5045 9.81375 78.175 9.64909L78.0058 12.3823C80.8249 12.5653 83.6873 12.7848 86.51 13.0373L86.7584 13.0592L86.4668 16.4767H86.2148Z" fill="#375FF0"/>
<path d="M103.029 18.3057L100.825 18.013H100.71L100.649 17.9142C98.528 14.6687 96.3282 11.4159 94.0995 8.23629L93.1778 17.1166L92.9293 17.091C91.9176 16.9812 90.9095 16.8787 89.8978 16.78L89.6494 16.7544L91.0895 1.66113L91.338 1.68674L93.6387 1.92092H93.7503L93.8151 2.01239C96.0942 5.19569 98.348 8.45216 100.519 11.694L101.599 2.83566L101.848 2.86492L104.994 3.28205L105.243 3.31498L103.263 18.3423L103.029 18.3057Z" fill="#375FF0"/>
<path d="M113.881 19.967C112.882 19.7986 111.885 19.6364 110.889 19.4803L110.64 19.4401L112.422 7.84847C110.802 7.59234 109.182 7.34719 107.652 7.11668L107.403 7.08009L107.879 3.68457L108.127 3.72116C112.534 4.35782 116.984 5.08595 121.359 5.87995L121.603 5.92385L121.013 9.30108L120.765 9.25716C119.195 8.97176 117.596 8.69002 116.005 8.42292L114.129 19.9999L113.881 19.967Z" fill="#375FF0"/>
<path d="M0.625 5.00525L0.869849 4.96865C4.25066 4.42347 7.68547 3.91854 11.0771 3.46849C11.2406 3.44647 11.4054 3.43546 11.5703 3.43555C12.497 3.43815 13.3906 3.78591 14.082 4.413C14.7734 5.04009 15.2146 5.90299 15.322 6.83839C15.3925 7.67379 15.2045 8.51072 14.7843 9.23229C14.3641 9.95387 13.7327 10.5241 12.9781 10.8632C13.7951 10.9963 14.5487 11.3917 15.1285 11.9915C15.7084 12.5913 16.0841 13.3641 16.2005 14.1966C16.3305 15.1969 16.0693 16.2092 15.4728 17.0158C14.8763 17.8225 13.9922 18.3591 13.0105 18.5105C9.77012 18.9422 6.45773 19.4289 3.20653 19.9521L2.95812 19.9924L0.625 5.00525ZM5.96448 16.0077C8.10674 15.6821 10.285 15.3711 12.4453 15.0857C12.4616 15.0843 12.4772 15.078 12.49 15.0675C12.5028 15.0571 12.5123 15.0431 12.5173 15.0271C12.5222 15.0119 12.5221 14.9953 12.5169 14.9801C12.5117 14.9649 12.5017 14.9518 12.4885 14.943C11.1275 13.8892 9.72692 12.8208 8.32995 11.7743L8.12835 11.6243L8.27954 11.4194C9.32726 9.97412 10.4038 8.5142 11.4875 7.06891C11.4963 7.05738 11.501 7.04322 11.501 7.02865C11.501 7.01409 11.4963 6.99994 11.4875 6.98841C11.4797 6.97535 11.4686 6.96471 11.4552 6.95762C11.4419 6.95053 11.427 6.94725 11.4119 6.94815C9.21208 7.24087 6.987 7.55554 4.79434 7.88851L5.96448 16.0077Z" fill="#375FF0"/>
</svg>
