<svg width="142" height="43" viewBox="0 0 142 43" fill="none" xmlns="http://www.w3.org/2000/svg">
<path d="M21.363 16.1871C21.294 16.1284 21.2492 16.045 21.2377 15.9536C20.484 10.0406 16.1102 11.4831 17.0724 9.7092C18.3529 7.34494 17.5297 7.19241 17.5297 7.19241C17.1556 7.23196 16.0919 8.32887 16.0919 8.32887L15.5019 9.79394C17.2324 3.26329 12.8915 8.46728 11.9613 9.42485C10.9769 10.2489 9.912 10.9655 8.7838 11.5631C7.41875 12.3205 6.31367 13.4926 5.61911 14.9198C3.84743 18.6644 4.49043 27.0066 22.7707 36.2677C13.3369 30.0921 14.6696 20.9891 18.1334 21.587C19.0485 21.7794 20.0004 21.5963 20.7864 21.0768C21.5723 20.5573 22.13 19.7423 22.3408 18.8056C23.4082 18.0335 21.8048 16.559 21.363 16.1871Z" fill="#E40D4E" style="fill:#E40D4E;fill:color(display-p3 0.8941 0.0510 0.3059);fill-opacity:1;"/>
<path d="M14.7693 7.44141C14.7693 7.44141 10.5939 10.6521 13.004 14.2828C12.5998 13.0915 12.552 11.8028 12.8667 10.5832C13.1813 9.36361 13.8441 8.26921 14.7693 7.44141Z" fill="white" style="fill:white;fill-opacity:1;"/>
<path d="M17.8269 15.7832C18.3723 15.4896 18.9912 15.3728 19.6022 15.448L19.4001 15.5469C19.4736 15.7134 19.4967 15.8988 19.4663 16.079C19.436 16.2592 19.3536 16.4258 19.23 16.5572C19.2753 16.6194 19.3275 16.6759 19.3855 16.7257C19.3855 16.7257 18.3794 16.4931 18.105 15.7663C18.0134 15.7514 17.9198 15.7572 17.8306 15.7832H17.8269Z" fill="white" style="fill:white;fill-opacity:1;"/>
<path d="M20.4786 19.7065C20.4614 19.695 20.4421 19.6873 20.4219 19.6839C20.3835 19.6726 20.3304 19.6594 20.2545 19.6425C20.1082 19.6086 19.9006 19.5709 19.6499 19.5276C19.3993 19.4843 19.1012 19.4447 18.7893 19.4071C18.4774 19.3694 18.1353 19.3431 17.7959 19.3336C17.4648 19.3189 17.1331 19.3246 16.8026 19.3506C16.5148 19.3709 16.2291 19.4153 15.9483 19.4833C15.7503 19.5321 15.5573 19.6005 15.3721 19.6877C15.3054 19.7197 15.255 19.7479 15.2194 19.7677L15.1672 19.7978L15.2175 19.763C15.2647 19.729 15.3136 19.6976 15.3639 19.6688C15.5451 19.5681 15.7365 19.4882 15.9346 19.4306C16.2163 19.3491 16.5048 19.2945 16.7962 19.2677C17.1307 19.2368 17.4667 19.2268 17.8023 19.2376C18.1444 19.2517 18.4847 19.2828 18.8011 19.3233C19.1176 19.3638 19.4121 19.4174 19.6627 19.4711C19.9134 19.5248 20.1201 19.5784 20.2618 19.6218C20.3332 19.6425 20.389 19.6613 20.4265 19.6754C20.4467 19.6801 20.4657 19.6891 20.4823 19.7018L20.4786 19.7065Z" fill="white" style="fill:white;fill-opacity:1;"/>
<path d="M20.1356 19.3175L20.1246 19.3081L20.0871 19.2893C20.0533 19.2742 20.0039 19.2535 19.9389 19.229C19.8109 19.1772 19.6243 19.1132 19.4002 19.0407C19.288 19.003 19.166 18.9647 19.0343 18.9258L18.6255 18.8091C18.341 18.7309 18.0337 18.6584 17.7246 18.5982C17.57 18.568 17.4154 18.5407 17.2617 18.5191C17.1081 18.4974 16.9572 18.4805 16.8099 18.471C16.7367 18.4654 16.6636 18.4616 16.5931 18.4588C16.5227 18.456 16.4532 18.4532 16.3855 18.4541C16.3178 18.455 16.252 18.4541 16.1889 18.4541C16.1257 18.4541 16.0645 18.4607 16.0059 18.4663C15.9474 18.472 15.8916 18.4776 15.8385 18.4861C15.7855 18.4946 15.7343 18.4993 15.6885 18.5106C15.6428 18.5219 15.5971 18.5285 15.5568 18.5379L15.4471 18.568C15.3803 18.585 15.33 18.6076 15.2952 18.6189L15.2422 18.6377L15.2934 18.6132C15.3413 18.5894 15.3905 18.5683 15.4407 18.5501L15.5495 18.5115C15.5898 18.4993 15.6337 18.488 15.6803 18.4748C15.727 18.4616 15.7773 18.4513 15.8312 18.44C15.8871 18.4276 15.9436 18.4181 16.0004 18.4117C16.059 18.4033 16.1221 18.3957 16.1834 18.391C16.2446 18.3863 16.3142 18.3806 16.3828 18.3788C16.4514 18.3769 16.5218 18.3788 16.5931 18.3788C16.6645 18.3788 16.7395 18.3788 16.8126 18.3863C16.9617 18.3938 17.1154 18.4098 17.27 18.4287C17.4245 18.4475 17.5828 18.4739 17.7392 18.5031C18.0511 18.5652 18.3584 18.6433 18.6447 18.7262C18.931 18.8091 19.1935 18.9042 19.4139 18.987C19.6343 19.0699 19.8164 19.1518 19.9426 19.2111C20.0057 19.2412 20.0533 19.2667 20.0853 19.2845C20.1017 19.294 20.1145 19.3024 20.1219 19.3071L20.1356 19.3175Z" fill="white" style="fill:white;fill-opacity:1;"/>
<path d="M20.1612 19.9069H20.1466C20.1365 19.9069 20.1237 19.9069 20.1054 19.9012C20.0688 19.9012 20.0139 19.8946 19.9453 19.8918C19.8072 19.8852 19.6097 19.8852 19.3728 19.8918C19.2548 19.8918 19.1258 19.8918 18.9904 19.9022L18.5642 19.9257C18.2697 19.9445 17.956 19.9756 17.6441 20.0199C17.4886 20.0415 17.3331 20.0669 17.1813 20.0961C17.0294 20.1253 16.8803 20.1592 16.7386 20.1978C16.6672 20.2166 16.5977 20.2374 16.53 20.2581C16.4623 20.2788 16.3956 20.2986 16.3325 20.3212C16.2694 20.3438 16.2072 20.3654 16.1495 20.3889C16.0919 20.4125 16.0325 20.436 15.9812 20.4605C15.93 20.485 15.877 20.5085 15.8294 20.5339C15.7818 20.5594 15.7379 20.5801 15.695 20.6055C15.652 20.6309 15.6145 20.6526 15.5797 20.6742L15.4882 20.7392C15.4297 20.7769 15.3922 20.8145 15.362 20.8334L15.3181 20.8691L15.3584 20.8296C15.3956 20.7912 15.435 20.7551 15.4764 20.7213L15.5678 20.6498C15.6007 20.6243 15.6392 20.5999 15.6785 20.5726C15.7178 20.5452 15.7626 20.5189 15.8093 20.4906C15.8579 20.4607 15.908 20.4334 15.9593 20.4087C16.0123 20.3814 16.0681 20.3541 16.1276 20.3287C16.187 20.3033 16.2474 20.276 16.3105 20.2524C16.3736 20.2289 16.4395 20.2025 16.5081 20.1809C16.5767 20.1592 16.6462 20.1366 16.7184 20.1168C16.862 20.0754 17.0121 20.0406 17.1657 20.0076C17.3194 19.9747 17.4758 19.9474 17.6331 19.9248C17.9487 19.8814 18.2651 19.8551 18.5615 19.8391C18.8578 19.8231 19.1368 19.8278 19.3746 19.8334C19.6124 19.8391 19.81 19.8579 19.9481 19.872C20.0176 19.8786 20.0706 19.888 20.1072 19.8946L20.1484 19.904L20.1612 19.9069Z" fill="white" style="fill:white;fill-opacity:1;"/>
<path d="M21.8614 18.1553C21.8752 18.1553 21.8907 18.1948 21.9374 18.2494C21.9661 18.2781 21.9967 18.3049 22.0288 18.3295C22.0456 18.343 22.0633 18.3553 22.0819 18.3662C22.1007 18.3775 22.1203 18.3876 22.1404 18.3963C22.1574 18.4019 22.1749 18.406 22.1925 18.4086C22.2127 18.4086 22.2301 18.4133 22.2474 18.4086H22.273H22.2977C22.3142 18.4102 22.3307 18.4102 22.3471 18.4086C22.3623 18.4098 22.3776 18.4098 22.3929 18.4086C22.4056 18.4066 22.4185 18.4066 22.4313 18.4086C22.4366 18.4079 22.442 18.409 22.4467 18.4116C22.4514 18.4142 22.4553 18.4182 22.4578 18.4231C22.4602 18.428 22.4612 18.4335 22.4606 18.439C22.4599 18.4445 22.4577 18.4496 22.4541 18.4537C22.445 18.465 22.4352 18.4757 22.4249 18.4858C22.4102 18.4977 22.3943 18.5078 22.3773 18.5159L22.348 18.531L22.3124 18.5394C22.2862 18.5454 22.259 18.5454 22.2328 18.5394C22.2048 18.5362 22.1775 18.5279 22.1523 18.5149C22.127 18.5025 22.1026 18.4884 22.0791 18.4726C22.0027 18.4167 21.94 18.3432 21.8962 18.2579C21.8367 18.1694 21.8514 18.1562 21.8614 18.1553Z" fill="white" style="fill:white;fill-opacity:1;"/>
<path d="M21.1023 20.8422C21.0526 20.8544 21.0022 20.8639 20.9514 20.8705C20.7283 20.9005 20.5021 20.8967 20.2801 20.8592C20.1812 20.8428 20.0837 20.8189 19.9883 20.7876C19.9389 20.7726 19.8904 20.7518 19.841 20.734C19.7916 20.7161 19.7441 20.6963 19.6947 20.6803C19.5952 20.647 19.4942 20.619 19.3919 20.5965C19.3398 20.5852 19.2877 20.5739 19.2355 20.5664C19.1834 20.5588 19.1313 20.5485 19.0782 20.5438L18.9227 20.5287C18.8715 20.5287 18.8212 20.5212 18.7709 20.5193C18.6712 20.5127 18.5742 20.5108 18.4828 20.5108C18.437 20.5108 18.3913 20.5108 18.3492 20.5108C18.3076 20.5116 18.2661 20.5148 18.2248 20.5202C18.1855 20.5202 18.1471 20.5278 18.1114 20.5353C18.0757 20.5428 18.041 20.5456 18.0099 20.5541L17.9184 20.5758C17.8187 20.6059 17.8352 20.5409 17.8892 20.5108L17.9806 20.4713C18.0148 20.4563 18.05 20.4438 18.0858 20.4336C18.125 20.4201 18.165 20.4094 18.2056 20.4016C18.2959 20.3802 18.3876 20.3664 18.48 20.3602C18.5302 20.3553 18.5806 20.3531 18.6309 20.3536C18.6822 20.3536 18.7352 20.3536 18.7873 20.3536C18.8395 20.3536 18.8944 20.362 18.9474 20.3696C19.0005 20.3771 19.0553 20.3846 19.1093 20.3959C19.1633 20.4072 19.2172 20.4176 19.2712 20.4298C19.3252 20.4421 19.3782 20.4562 19.4313 20.4713C19.537 20.5007 19.6411 20.5359 19.7432 20.5767C19.7935 20.5974 19.8346 20.6181 19.8895 20.6398C19.9444 20.6615 19.981 20.6812 20.0258 20.6982C20.1154 20.7323 20.207 20.7603 20.3002 20.782C20.3843 20.8027 20.4695 20.8181 20.5554 20.8281C20.6863 20.8431 20.8182 20.8462 20.9496 20.8375C20.9999 20.8343 21.0499 20.8283 21.0996 20.8196L21.1023 20.8422Z" fill="white" style="fill:white;fill-opacity:1;"/>
<path d="M18.9941 15.5938C18.8942 15.8695 18.8942 16.173 18.9941 16.4487C19.1001 16.1742 19.1001 15.8683 18.9941 15.5938Z" fill="#E40D4E" style="fill:#E40D4E;fill:color(display-p3 0.8941 0.0510 0.3059);fill-opacity:1;"/>
<path d="M31.3044 21.2743C31.5093 21.2263 33.9569 20.5135 34.1728 20.4438L32.338 21.3929C33.0093 21.4231 35.3691 28.4612 25.8888 36.2696C26.7705 35.6585 36.2417 31.2068 40.7701 25.7345C45.2574 20.312 46.162 11.37 39.421 8.3288C38.1403 7.79248 36.7403 7.63174 35.3762 7.86441C34.0122 8.09709 32.7374 8.71408 31.6931 9.64699C31.3888 9.93298 31.1169 10.2536 30.8828 10.6027C30.3977 11.3672 30.0593 12.2202 29.8858 13.1157C29.746 13.5276 29.5211 13.9035 29.2266 14.2173C28.9321 14.5312 28.575 14.7757 28.18 14.9338C26.7312 15.5176 24.4518 16.4978 24.3878 16.9431C24.4865 18.0832 24.9696 19.1518 25.7534 19.9636C26.5084 20.6249 27.4071 21.0892 28.3733 21.3173C29.3395 21.5455 30.3449 21.5307 31.3044 21.2743Z" fill="#E40D4E" style="fill:#E40D4E;fill:color(display-p3 0.8941 0.0510 0.3059);fill-opacity:1;"/>
<path d="M25.8878 20.0206C26.688 20.375 27.5524 20.5493 28.4233 20.532C29.2942 20.5146 30.1514 20.3059 30.9376 19.9199C30.9977 19.8827 31.0692 19.8702 31.1378 19.8849C31.2065 19.8995 31.2672 19.9403 31.308 19.999C31.3794 20.1355 31.2532 20.4048 30.4903 20.674C29.7202 20.8917 28.9151 20.946 28.1239 20.8337C27.3328 20.7214 26.572 20.4447 25.8878 20.0206Z" fill="white" style="fill:white;fill-opacity:1;"/>
<path d="M25.5933 16.4365C25.5933 16.4365 27.2241 17.3225 25.0161 18.2471C25.0161 18.2471 26.4174 17.364 25.5933 16.4365Z" fill="white" style="fill:white;fill-opacity:1;"/>
<path d="M32.1249 14.0072L30.5864 13.4658L30.7328 13.7229C30.6648 13.8415 30.6326 13.9782 30.6403 14.1156C30.6479 14.2531 30.6951 14.3851 30.7758 14.4949L30.7072 14.7247L32.1249 14.0072Z" fill="white" style="fill:white;fill-opacity:1;"/>
<path d="M33.1913 9.88184C33.4121 10.0198 33.6244 10.1717 33.827 10.3366C33.9311 10.4194 34.0306 10.508 34.1251 10.6021C34.2321 10.7026 34.3244 10.8184 34.3995 10.9458C34.4323 11.0031 34.4512 11.0677 34.4544 11.1341C34.4544 11.2066 34.4462 11.2998 34.4407 11.3893C34.4297 11.5729 34.4178 11.7659 34.4069 11.9664C34.384 12.3704 34.3684 12.8082 34.3776 13.2743C34.3792 13.7647 34.4097 14.2546 34.4691 14.7412C34.526 15.2779 34.6489 15.805 34.8349 16.3099C34.9418 16.593 35.0919 16.8568 35.2794 17.0914C35.3899 17.2262 35.5194 17.3434 35.6636 17.4388C35.8307 17.5524 36.0204 17.626 36.2188 17.6544C36.4262 17.6773 36.6361 17.6545 36.8343 17.5876C37.5427 17.3475 38.1997 16.9697 38.7697 16.4746C38.9559 16.312 39.1302 16.1355 39.2911 15.9464C40.6887 14.3166 40.91 12.2809 41.0024 10.3912C40.6903 12.2217 39.9511 13.9467 38.8484 15.4182C38.316 16.0202 37.6699 16.504 36.9496 16.84C36.7618 16.947 36.5529 17.0089 36.3386 17.0207C36.2478 17.007 36.1611 16.9723 36.0852 16.919C35.9961 16.8604 35.9156 16.7887 35.8465 16.7063C35.6958 16.521 35.5742 16.3126 35.4861 16.0886C35.3062 15.6264 35.175 15.1456 35.0947 14.6546C35.0142 14.1706 34.9538 13.6951 34.9117 13.2423C34.8697 12.7894 34.8431 12.3572 34.8203 11.958C34.8093 11.7574 34.7992 11.5653 34.791 11.3827C34.7837 11.2885 34.78 11.2038 34.7663 11.1002C34.7475 10.9973 34.7052 10.9005 34.6428 10.8177C34.4418 10.5747 34.1963 10.3748 33.9203 10.2293C33.7483 10.1297 33.5712 10.0398 33.3898 9.95999C33.2599 9.90538 33.1913 9.88184 33.1913 9.88184Z" fill="white" style="fill:white;fill-opacity:1;"/>
<path d="M53.4564 27.4714C53.1668 27.4714 53.022 27.3534 53.022 27.1174V27.0383C53.0761 26.7792 53.2034 26.5424 53.3878 26.3575C53.6114 26.1038 53.7409 25.7771 53.7537 25.4348V16.264C53.7409 15.9217 53.6114 15.595 53.3878 15.3413C53.2034 15.1565 53.0761 14.9196 53.022 14.6606V14.5909C53.022 14.3549 53.1668 14.2369 53.4564 14.2369H57.7306C59.8471 14.1034 61.9395 14.7585 63.6255 16.0823C64.3121 16.6719 64.8591 17.4149 65.2247 18.2549C65.5904 19.0948 65.7651 20.0095 65.7356 20.9295C65.7672 21.8172 65.6093 22.7013 65.273 23.5194C64.9367 24.3375 64.4302 25.0698 63.7893 25.6646C62.3573 26.9196 60.5145 27.5658 58.6361 27.4714H53.4564ZM58.5629 26.1664H59.2873C59.6951 26.1812 60.101 26.1037 60.4765 25.9394C60.852 25.7751 61.1879 25.528 61.4605 25.2154C62.06 24.4477 62.3574 23.4762 62.2938 22.4934C62.3015 21.3359 62.1178 20.1856 61.7505 19.0915C61.4429 18.1201 60.9145 17.2382 60.2093 16.5192C59.9219 16.2144 59.5788 15.971 59.1997 15.8031C58.8206 15.6352 58.4131 15.5461 58.0004 15.5409H57.8029C57.2596 15.5409 56.9879 15.8391 56.9879 16.4354V24.2503C56.9579 24.7572 57.1055 25.2584 57.4041 25.6627C57.5476 25.8314 57.7265 25.9644 57.9273 26.0516C58.128 26.1389 58.3453 26.1781 58.5629 26.1664ZM74.209 24.5243C74.2627 24.4609 74.3337 24.4155 74.4128 24.394C74.4919 24.3725 74.5754 24.3759 74.6526 24.4038C74.7294 24.4277 74.7949 24.4799 74.8366 24.5505C74.8783 24.621 74.8932 24.7049 74.8785 24.7861C74.8593 25.0986 74.7761 25.4035 74.6343 25.6806C74.4653 26.0184 74.2496 26.3292 73.994 26.6033C73.6691 26.9386 73.2762 27.1958 72.8434 27.3565C72.3142 27.5628 71.7518 27.6641 71.186 27.655C70.5761 27.6874 69.9664 27.5875 69.3963 27.3619C68.8262 27.1363 68.3085 26.7901 67.8766 26.3455C67.4448 25.9009 67.1084 25.368 66.8893 24.7811C66.6701 24.1943 66.5731 23.5666 66.6045 22.9388C66.583 22.3239 66.6881 21.7113 66.9129 21.1412C67.1377 20.5712 67.4771 20.0565 67.9088 19.6311C68.7644 18.7864 69.9083 18.3217 71.0937 18.3374C72.0166 18.281 72.9321 18.5362 73.7013 19.0642C74.0146 19.2819 74.2699 19.5769 74.4439 19.9223C74.6179 20.2677 74.7051 20.6525 74.6974 21.0415C74.6931 21.3705 74.6188 21.6945 74.4797 21.9907C74.3407 22.287 74.1402 22.5482 73.8925 22.7561C73.3015 23.2783 72.5738 23.6092 71.8007 23.7071C71.2035 23.8186 70.5962 23.8625 69.9897 23.8379C70.1826 24.2933 70.5024 24.6796 70.9086 24.9477C71.3148 25.2159 71.7892 25.354 72.2717 25.3444C72.635 25.3789 73.001 25.3224 73.3385 25.1798C73.676 25.0371 73.9749 24.8126 74.2099 24.5253L74.209 24.5243ZM70.7141 19.3232C70.5274 19.325 70.3449 19.38 70.1867 19.482C70.0284 19.584 69.9008 19.7292 69.8177 19.9013C69.5757 20.365 69.46 20.8875 69.483 21.4134C69.4799 21.8971 69.5346 22.3794 69.6458 22.8493C69.9481 22.8632 70.251 22.8506 70.5513 22.8116C71.372 22.6622 71.7824 21.9906 71.7824 20.7967C71.7819 20.4237 71.6716 20.0596 71.4659 19.7525C71.3855 19.6221 71.2745 19.5145 71.1431 19.4398C71.0117 19.3651 70.8642 19.3256 70.7141 19.325V19.3232ZM80.2941 27.656C79.6676 27.6781 79.0433 27.5663 78.4608 27.3276C77.8784 27.0889 77.3503 26.7284 76.9099 26.269C76.4858 25.8405 76.1501 25.3283 75.923 24.763C75.6959 24.1977 75.582 23.5909 75.5883 22.9792C75.5613 22.3519 75.6671 21.7259 75.8985 21.1449C76.1299 20.5638 76.4812 20.0415 76.9282 19.6141C77.7471 18.8898 78.7669 18.4495 79.8427 18.3558C80.9185 18.2622 81.9956 18.52 82.921 19.0925C83.2617 19.2967 83.5445 19.589 83.7415 19.9405C83.9386 20.292 84.0429 20.6903 84.0442 21.0961C84.0472 21.2419 84.0206 21.3867 83.9661 21.5212C83.9116 21.6558 83.8304 21.7772 83.7277 21.8776C83.5879 21.994 83.4268 22.0803 83.254 22.1316C83.0812 22.1828 82.9002 22.198 82.7216 22.1761C82.3188 22.1547 81.9394 21.9743 81.6625 21.6724C81.3835 21.3863 81.1654 21.0435 81.0222 20.6658C80.8929 20.312 80.7095 19.9817 80.4789 19.6875C80.391 19.5575 80.2749 19.4502 80.1398 19.3742C80.0047 19.2983 79.8544 19.2556 79.7005 19.2497C79.5091 19.2605 79.3237 19.323 79.1632 19.431C79.0026 19.5389 78.8725 19.6884 78.7859 19.8646C78.5378 20.3126 78.4156 20.8227 78.4328 21.3381C78.382 22.3782 78.6651 23.4066 79.2386 24.2645C79.4816 24.6145 79.8043 24.8978 80.1784 25.0895C80.5526 25.2812 80.9666 25.3756 81.3844 25.3642C81.7801 25.3662 82.1704 25.2686 82.5211 25.0799C82.8718 24.8912 83.1724 24.6171 83.3966 24.2814C83.445 24.2131 83.5123 24.1616 83.5898 24.1337C83.6672 24.1058 83.751 24.1028 83.8302 24.1251C83.909 24.142 83.9788 24.1887 84.0257 24.256C84.0726 24.3233 84.0933 24.4063 84.0835 24.4886C84.0733 24.9151 83.9761 25.3347 83.7982 25.7201C83.6203 26.1055 83.3657 26.4481 83.0509 26.7257C82.2824 27.3854 81.2985 27.7187 80.2996 27.6578L80.2941 27.656ZM85.654 19.4738C85.565 19.5355 85.4565 19.56 85.3506 19.5426C85.2447 19.5251 85.1491 19.4669 85.0833 19.3797C85.0425 19.3485 85.0092 19.308 84.986 19.2615C84.9627 19.215 84.9502 19.1636 84.9493 19.1113C84.9484 19.059 84.9592 19.0072 84.9809 18.9598C85.0025 18.9125 85.0344 18.8709 85.0741 18.8383C85.3597 18.5564 85.6259 18.2543 85.8708 17.9344C86.0154 17.7296 86.103 17.488 86.1241 17.2357C86.1479 16.9633 86.0696 16.8271 85.8891 16.8271C85.7081 16.8259 85.5299 16.7805 85.3693 16.6946C85.2087 16.6086 85.0702 16.4846 84.9653 16.3328C84.7035 15.9769 84.5694 15.5388 84.5857 15.0927C84.5637 14.5626 84.7439 14.0446 85.0878 13.6493C85.2587 13.4652 85.4658 13.3208 85.6954 13.226C85.9249 13.1311 86.1715 13.088 86.4186 13.0995C86.6758 13.0969 86.9306 13.1504 87.1662 13.2563C87.4019 13.3623 87.6131 13.5184 87.7861 13.7143C88.1822 14.1677 88.3874 14.7643 88.3568 15.3733C88.3531 16.989 87.4522 18.3559 85.654 19.4738ZM92.1553 27.639C91.1679 27.6773 90.1861 27.4696 89.2934 27.0336C88.978 26.9114 88.7038 26.6975 88.5044 26.4178C88.305 26.1381 88.1889 25.8048 88.1702 25.4584C88.1584 25.2914 88.1841 25.1238 88.2453 24.9687C88.3065 24.8136 88.4016 24.6751 88.5233 24.5639C88.7903 24.3543 89.1208 24.2485 89.4562 24.2654C89.6376 24.2565 89.8187 24.2876 89.9873 24.3568C90.156 24.426 90.3083 24.5316 90.434 24.6665C90.6642 24.9132 90.8322 25.2141 90.9233 25.5431C91.0097 25.8631 91.1585 26.1617 91.3605 26.4206C91.4527 26.5479 91.5731 26.6507 91.7117 26.7204C91.8502 26.7902 92.003 26.8249 92.1572 26.8217C92.2917 26.8405 92.4287 26.8267 92.5571 26.7814C92.6856 26.7361 92.802 26.6606 92.8971 26.5609C92.9922 26.4611 93.0634 26.3399 93.105 26.2069C93.1466 26.0738 93.1575 25.9326 93.1368 25.7945C93.1439 25.589 93.1023 25.3849 93.0156 25.1997C92.9289 25.0145 92.7997 24.8538 92.6392 24.7315C92.278 24.4557 91.8692 24.2532 91.4346 24.1345C90.962 23.9989 90.4928 23.8439 90.0269 23.6694C89.5591 23.4932 89.1461 23.1904 88.8315 22.7928C88.4828 22.3309 88.3063 21.7557 88.3339 21.1714C88.3315 20.7659 88.4282 20.3663 88.6152 20.0094C88.8023 19.6525 89.0735 19.3498 89.4041 19.1292C90.2164 18.571 91.1804 18.2936 92.1563 18.3374C93.1114 18.2956 94.0596 18.5211 94.9002 18.9899C95.1998 19.1302 95.4567 19.3518 95.6433 19.631C95.8299 19.9101 95.9391 20.2363 95.9594 20.5745C95.9625 20.7287 95.9325 20.8816 95.8715 21.0224C95.8104 21.1632 95.7199 21.2884 95.6063 21.3889C95.3705 21.6063 95.063 21.7229 94.7466 21.7147C94.5714 21.724 94.3963 21.6939 94.2336 21.6264C94.0709 21.5589 93.9245 21.4557 93.8045 21.324C93.585 21.0781 93.4279 20.7802 93.3471 20.4568C93.2716 20.1493 93.1481 19.8564 92.9813 19.5896C92.9149 19.4697 92.8186 19.3703 92.7023 19.3016C92.586 19.2329 92.454 19.1974 92.32 19.1989C92.1984 19.1942 92.0777 19.2207 91.9686 19.2761C91.8595 19.3315 91.7656 19.414 91.6953 19.5162C91.5429 19.7327 91.4635 19.9946 91.4694 20.2619C91.4628 20.4735 91.5026 20.6838 91.5857 20.8775C91.6689 21.0711 91.7932 21.243 91.9495 21.3805C92.2885 21.6771 92.6829 21.8992 93.1084 22.033C93.5609 22.1824 94.0136 22.344 94.4667 22.5179C94.9184 22.691 95.318 22.9832 95.6255 23.3653C95.821 23.6308 95.9614 23.9347 96.0383 24.2583C96.1152 24.5819 96.1268 24.9183 96.0725 25.2467C96.0181 25.5751 95.899 25.8886 95.7224 26.1677C95.5458 26.4469 95.3154 26.6858 95.0456 26.8698C94.1829 27.4276 93.1735 27.6967 92.1563 27.64L92.1553 27.639ZM101.246 27.4714C100.956 27.4714 100.812 27.3534 100.812 27.1174V27.0383C100.866 26.7792 100.993 26.5424 101.177 26.3575C101.401 26.1038 101.531 25.7771 101.543 25.4348V16.264C101.531 15.9217 101.401 15.595 101.177 15.3413C100.993 15.1565 100.866 14.9196 100.812 14.6606V14.5909C100.812 14.3549 100.956 14.2369 101.246 14.2369H105.759C107.232 14.1622 108.694 14.539 109.96 15.3197C110.482 15.6867 110.902 16.188 111.178 16.7737C111.453 17.3593 111.576 18.0091 111.532 18.6584C111.557 19.2925 111.444 19.9243 111.199 20.5068C110.955 21.0894 110.586 21.6078 110.12 22.0236C109.057 22.9049 107.716 23.3527 106.353 23.2815H104.844V25.4471C104.861 25.7971 105.007 26.1273 105.253 26.3698C105.526 26.6742 105.662 26.9011 105.662 27.0505V27.1249C105.662 27.3609 105.517 27.4789 105.228 27.4789L101.246 27.4714ZM105.683 21.9718H106.353C106.615 21.9814 106.875 21.9192 107.106 21.7914C107.337 21.6637 107.531 21.4751 107.668 21.2449C107.99 20.7016 108.149 20.0729 108.125 19.4371C108.169 18.4405 107.913 17.4543 107.393 16.6124C107.231 16.3047 106.996 16.0438 106.711 15.8533C106.425 15.6629 106.098 15.549 105.759 15.5221H105.506C105.071 15.5221 104.853 15.8203 104.853 16.4166V21.0773C104.851 21.6742 105.128 21.9727 105.683 21.9727V21.9718ZM119.355 24.5253C119.409 24.4618 119.48 24.4164 119.559 24.3949C119.638 24.3734 119.722 24.3769 119.799 24.4048C119.876 24.4286 119.941 24.4809 119.983 24.5514C120.025 24.6219 120.039 24.7059 120.025 24.787C120.006 25.0996 119.922 25.4044 119.781 25.6815C119.612 26.0193 119.396 26.3301 119.14 26.6042C118.816 26.9394 118.423 27.1966 117.991 27.3575C117.296 27.6651 116.537 27.7866 115.784 27.7105C115.032 27.6344 114.31 27.3633 113.687 26.9224C113.064 26.4815 112.559 25.8853 112.221 25.1893C111.882 24.4933 111.72 23.7203 111.75 22.9425C111.728 22.3277 111.833 21.7151 112.058 21.145C112.283 20.5749 112.622 20.0603 113.054 19.6348C113.91 18.7887 115.055 18.3234 116.242 18.3392C117.165 18.2829 118.08 18.5381 118.849 19.0661C119.163 19.2838 119.418 19.5788 119.592 19.9242C119.766 20.2696 119.853 20.6544 119.846 21.0434C119.841 21.3723 119.766 21.6962 119.627 21.9922C119.488 22.2883 119.287 22.5493 119.04 22.757C118.449 23.2793 117.721 23.6101 116.948 23.708C116.351 23.8195 115.743 23.8634 115.137 23.8389C115.33 24.2943 115.65 24.6805 116.056 24.9487C116.462 25.2169 116.936 25.3549 117.419 25.3454C117.782 25.3788 118.148 25.3215 118.485 25.1782C118.823 25.035 119.121 24.81 119.356 24.5225L119.355 24.5253ZM115.86 19.3241C115.674 19.3259 115.491 19.3809 115.333 19.483C115.175 19.585 115.047 19.7301 114.964 19.9022C114.723 20.3643 114.607 20.8847 114.629 21.4087C114.626 21.8924 114.681 22.3746 114.792 22.8446C115.094 22.8585 115.397 22.8459 115.698 22.8069C116.518 22.6575 116.929 21.9859 116.929 20.792C116.928 20.419 116.818 20.0549 116.612 19.7478C116.532 19.6175 116.421 19.5102 116.289 19.4356C116.158 19.3611 116.01 19.3218 115.86 19.3213V19.3241ZM124.589 27.6578C124.187 27.6794 123.785 27.6106 123.411 27.4561C123.037 27.3017 122.701 27.0653 122.425 26.7634C121.86 26.0458 121.578 25.1354 121.636 24.2136V19.7883H120.948C120.892 19.7903 120.838 19.7805 120.786 19.7597C120.735 19.7389 120.688 19.7074 120.649 19.6672C120.61 19.627 120.58 19.579 120.559 19.5261C120.539 19.4733 120.53 19.4167 120.531 19.3599V18.9494C120.523 18.8911 120.528 18.8316 120.546 18.7756C120.564 18.7196 120.594 18.6688 120.635 18.6271C120.675 18.5854 120.724 18.5541 120.779 18.5357C120.833 18.5172 120.891 18.5122 120.948 18.521H121.292C121.813 18.5339 122.321 18.3523 122.723 18.0097C123.127 17.6581 123.402 17.1746 123.501 16.6397C123.562 16.3165 123.725 16.1548 123.991 16.1548H124.407C124.733 16.1548 124.896 16.3165 124.896 16.6397V18.5228H126.761C126.816 18.5209 126.871 18.5306 126.923 18.5514C126.974 18.5723 127.021 18.6038 127.06 18.6439C127.099 18.6841 127.129 18.7321 127.15 18.785C127.17 18.8379 127.179 18.8945 127.177 18.9512V19.3618C127.179 19.4186 127.17 19.4751 127.15 19.528C127.129 19.5809 127.099 19.6289 127.06 19.6691C127.021 19.7093 126.974 19.7408 126.923 19.7616C126.871 19.7824 126.816 19.7922 126.761 19.7902H124.896V24.2645C124.882 24.5316 124.966 24.7945 125.131 25.0008C125.203 25.0869 125.292 25.1558 125.392 25.2025C125.492 25.2492 125.601 25.2726 125.711 25.271C125.952 25.2785 126.191 25.2183 126.402 25.0967C126.612 24.9751 126.786 24.7967 126.906 24.5808C126.974 24.4795 127.078 24.4093 127.196 24.385C127.244 24.3745 127.294 24.3748 127.343 24.3861C127.391 24.3973 127.437 24.4191 127.476 24.45C127.515 24.4805 127.546 24.5202 127.566 24.5656C127.586 24.611 127.596 24.6608 127.594 24.7108C127.599 25.4799 127.31 26.2203 126.788 26.7709C126.503 27.0709 126.16 27.3051 125.781 27.458C125.402 27.611 124.996 27.6791 124.589 27.6578ZM132.068 27.639C131.081 27.6773 130.099 27.4696 129.206 27.0336C128.891 26.9114 128.617 26.6975 128.417 26.4178C128.218 26.1381 128.102 25.8048 128.083 25.4584C128.071 25.2914 128.097 25.1238 128.158 24.9687C128.219 24.8136 128.314 24.6751 128.436 24.5639C128.703 24.3543 129.033 24.2485 129.369 24.2654C129.55 24.2565 129.731 24.2876 129.9 24.3568C130.069 24.426 130.221 24.5316 130.347 24.6665C130.577 24.9132 130.745 25.2141 130.836 25.5431C130.922 25.8626 131.069 26.1608 131.27 26.4197C131.363 26.547 131.483 26.6497 131.622 26.7195C131.76 26.7893 131.913 26.824 132.067 26.8208C132.201 26.8392 132.338 26.8252 132.466 26.7798C132.594 26.7345 132.71 26.6591 132.805 26.5596C132.9 26.4602 132.971 26.3393 133.012 26.2067C133.054 26.074 133.065 25.9333 133.045 25.7954C133.052 25.5901 133.011 25.386 132.924 25.2008C132.838 25.0156 132.709 24.8548 132.548 24.7324C132.187 24.4567 131.778 24.2541 131.344 24.1355C130.873 23.9986 130.405 23.8433 129.941 23.6694C129.474 23.4932 129.061 23.1904 128.746 22.7928C128.398 22.3308 128.221 21.7556 128.249 21.1714C128.247 20.766 128.343 20.3665 128.53 20.0096C128.717 19.6527 128.988 19.3499 129.319 19.1292C130.131 18.571 131.095 18.2936 132.071 18.3374C133.026 18.2956 133.974 18.5211 134.815 18.9899C135.114 19.1302 135.371 19.3518 135.558 19.631C135.744 19.9101 135.854 20.2363 135.874 20.5745C135.877 20.7282 135.846 20.8806 135.785 21.0209C135.724 21.1612 135.634 21.2859 135.521 21.3861C135.285 21.6035 134.977 21.7201 134.661 21.7119C134.486 21.7212 134.311 21.691 134.148 21.6236C133.985 21.5561 133.839 21.4529 133.719 21.3212C133.499 21.0753 133.342 20.7774 133.262 20.454C133.186 20.1464 133.063 19.8535 132.896 19.5868C132.829 19.4669 132.733 19.3674 132.617 19.2987C132.501 19.23 132.369 19.1946 132.234 19.1961C132.113 19.1913 131.992 19.2179 131.883 19.2733C131.774 19.3287 131.68 19.4112 131.61 19.5134C131.457 19.7299 131.378 19.9918 131.384 20.2591C131.377 20.4706 131.417 20.681 131.5 20.8746C131.583 21.0683 131.708 21.2402 131.864 21.3776C132.203 21.6743 132.597 21.8964 133.023 22.0301C133.475 22.1795 133.928 22.3412 134.381 22.515C134.833 22.6882 135.232 22.9804 135.54 23.3625C135.735 23.628 135.876 23.9319 135.953 24.2555C136.03 24.5791 136.041 24.9155 135.987 25.2439C135.933 25.5723 135.813 25.8858 135.637 26.1649C135.46 26.4441 135.23 26.683 134.96 26.8669C134.097 27.4255 133.086 27.6952 132.068 27.639Z" fill="black" style="fill:black;fill-opacity:1;"/>
</svg>
