<svg width="69" height="32" viewBox="0 0 69 32" fill="none" xmlns="http://www.w3.org/2000/svg">
<path d="M69 11.3745C65.9464 11.3745 62.9418 11.3745 59.8717 11.3745C59.9177 11.8608 59.9461 12.317 60.0063 12.7685C60.1219 13.6419 60.3539 14.48 60.8207 15.239C61.7561 16.7598 63.1283 17.4439 64.8941 17.2993C65.5262 17.2473 66.1595 17.1258 66.7732 16.964C67.6662 16.7286 68.1932 16.3733 68.8902 15.6527C68.6146 16.2647 68.2546 16.7067 67.8084 17.0785C65.8101 18.7434 62.75 18.7452 60.6649 17.0691C59.3323 15.9979 58.6146 14.5886 58.4706 12.8877C58.3756 11.7664 58.4919 10.6657 58.902 9.61575C59.746 7.45452 61.3643 6.29541 63.653 6.07409C64.2154 6.0198 64.7956 6.02157 65.355 6.09357C66.3088 6.21692 67.0913 6.70322 67.7016 7.44212C68.6293 8.56877 68.9852 9.88959 69 11.3745ZM59.9378 10.9944C60.0039 11.0097 60.0316 11.0216 60.0594 11.0216C62.164 11.0221 64.2691 11.0292 66.3737 11.0174C66.919 11.0145 67.328 10.7389 67.5676 10.2407C67.9329 9.4806 67.8574 8.72458 67.4826 8.00102C66.6942 6.48014 65.0428 6.08826 63.7462 6.26826C62.5901 6.42879 61.7225 7.09687 61.0208 7.98509C60.332 8.85737 59.9526 9.85359 59.9378 10.9944Z" fill="black" style="fill:black;fill-opacity:1;"/>
<path d="M35.4142 11.3663C32.3742 11.3663 29.3696 11.3663 26.3072 11.3663C26.3266 11.6832 26.3361 11.9718 26.3632 12.2586C26.4594 13.2631 26.6595 14.2404 27.1741 15.1263C28.0948 16.7115 29.4817 17.4516 31.2989 17.297C32.0254 17.235 32.7507 17.0644 33.456 16.8691C34.1553 16.6761 34.7673 16.296 35.2348 15.7171C35.2578 15.7342 35.2814 15.7507 35.3044 15.7678C35.0618 16.0948 34.8553 16.4571 34.5714 16.7422C33.3916 17.9267 31.9339 18.4366 30.2855 18.305C27.5849 18.0896 25.5075 16.2901 25.0035 13.6243C24.5962 11.469 24.9527 9.43107 26.4842 7.73313C27.3217 6.80478 28.4029 6.31966 29.621 6.12667C30.4402 5.99683 31.2658 5.93722 32.0791 6.1485C33.4241 6.49848 34.297 7.39673 34.86 8.62784C35.207 9.38681 35.3782 10.1906 35.413 11.0234C35.4183 11.1284 35.4142 11.2335 35.4142 11.3663ZM26.3532 10.9838C26.4157 11.0068 26.4335 11.0186 26.4512 11.0186C28.5758 11.0198 30.6998 11.0287 32.8245 11.0145C33.3179 11.0116 33.7021 10.7613 33.9464 10.3169C34.2875 9.69842 34.284 9.05513 34.0739 8.40475C33.6678 7.14472 32.3919 6.28956 30.8976 6.22818C29.5844 6.17447 28.5634 6.74871 27.7065 7.67411C26.8466 8.60305 26.3916 9.7055 26.3532 10.9838Z" fill="black" style="fill:black;fill-opacity:1;"/>
<path d="M2.84584 5.97905C3.61248 5.97905 4.30653 5.97905 4.99939 5.97905C5.09559 6.24227 5.04189 6.34673 4.76981 6.34142C4.15308 6.32843 3.53575 6.33729 2.88066 6.33729C2.88066 6.47421 2.88066 6.57926 2.88066 6.68372C2.88066 9.80045 2.8783 12.9172 2.88479 16.0339C2.88538 16.3066 2.92374 16.5828 2.9739 16.8513C3.08014 17.4214 3.3404 17.8871 3.91465 18.1332C2.77679 18.1332 1.63892 18.1332 0.440272 18.1332C1.29839 17.7897 1.51381 17.0838 1.51912 16.326C1.54154 13.0523 1.52856 9.77802 1.52797 6.50431C1.52797 6.46594 1.52207 6.42699 1.51558 6.35263C1.03045 6.35263 0.545324 6.35263 0.0336401 6.35263C0.0218365 6.22692 0.0129839 6.13426 0 5.99321C0.514635 5.99321 1.00861 5.99321 1.50259 5.99321C1.55158 5.30093 1.55099 4.6482 1.65604 4.01317C1.7723 3.31086 1.90863 2.59438 2.17185 1.9381C2.7756 0.43197 3.99904 -0.205422 5.59842 0.0577976C6.2069 0.158128 6.77465 0.362919 7.26981 0.745944C7.5649 0.973753 7.71775 1.25586 7.67467 1.6377C7.63277 2.01365 7.42089 2.28926 7.114 2.34414C6.65307 2.42736 6.37805 2.30519 6.19096 1.91332C6.08119 1.68374 5.99325 1.44294 5.89705 1.20687C5.69285 0.702861 5.4019 0.324558 4.78575 0.316295C4.16606 0.308033 3.68979 0.552366 3.47438 1.12307C3.2507 1.71443 3.03646 2.33175 2.96918 2.95439C2.86177 3.93703 2.88125 4.93325 2.84584 5.97905Z" fill="black" style="fill:black;fill-opacity:1;"/>
<path d="M37.3648 14.7852C37.7507 15.5742 38.2341 16.2571 38.8691 16.8337C39.8075 17.6871 40.9253 17.9792 42.1647 17.9001C42.844 17.8565 43.5144 17.7839 44.1406 17.4835C45.1215 17.0131 45.5493 16.1526 45.2566 15.226C45.122 14.8005 44.8216 14.5102 44.4752 14.257C43.6696 13.6697 42.736 13.3599 41.8176 13.0099C41.0669 12.7243 40.3192 12.4245 39.5903 12.0875C39.2474 11.9293 38.9405 11.6838 38.6366 11.453C36.9392 10.1641 37.3559 7.64168 38.9016 6.59116C39.7508 6.01456 40.704 5.80976 41.7026 5.85108C42.9443 5.90301 44.153 6.17331 45.3375 6.55162C45.5629 6.62362 45.6668 6.72395 45.6562 6.98481C45.6326 7.58384 45.6485 8.18405 45.6089 8.80255C45.5729 8.73291 45.5328 8.66504 45.5021 8.59363C44.7284 6.78946 42.0661 5.3087 39.7119 6.46309C39.081 6.77234 38.5522 7.18842 38.4406 7.93971C38.3374 8.63494 38.5315 9.24224 39.0568 9.72795C39.8706 10.4804 40.8869 10.8564 41.892 11.2559C42.7484 11.5965 43.6071 11.9352 44.4439 12.3188C44.7856 12.4752 45.1008 12.7196 45.3823 12.9745C46.3962 13.8928 46.542 15.5005 45.7376 16.6838C45.1604 17.5325 44.3224 17.9645 43.3403 18.1504C41.892 18.4254 40.462 18.2501 39.0409 17.9491C38.5422 17.8435 38.0488 17.7101 37.5572 17.5726C37.4798 17.5508 37.3724 17.4404 37.3712 17.3696C37.36 16.5091 37.3648 15.6468 37.3648 14.7852Z" fill="black" style="fill:black;fill-opacity:1;"/>
<path d="M56.1737 8.8443C55.2766 7.00826 53.8484 6.09526 51.8801 6.06339C51.1212 6.05099 50.4059 6.29474 49.7785 6.73678C48.7357 7.47155 48.6584 8.87086 49.5991 9.73901C50.2926 10.3794 51.1383 10.747 51.9988 11.0893C52.8829 11.4411 53.7758 11.7722 54.651 12.1463C54.9992 12.2951 55.328 12.5093 55.6319 12.7383C56.9598 13.7404 57.1675 15.616 56.107 16.9085C55.436 17.7265 54.5265 18.0794 53.5132 18.2116C51.8241 18.4323 50.1851 18.1272 48.5604 17.7123C47.9071 17.5453 47.9094 17.5364 47.9094 16.8518C47.9094 16.1737 47.9094 15.4956 47.9094 14.7331C47.9802 14.8618 48.0157 14.9208 48.0458 14.9822C48.666 16.2569 49.5348 17.2951 50.9406 17.7052C52.2543 18.0883 53.5739 18.0127 54.8145 17.3989C55.7871 16.9179 56.1501 15.9046 55.6974 15.0276C55.5711 14.7833 55.3687 14.559 55.155 14.3813C54.3388 13.7015 53.3373 13.3893 52.3659 13.0151C51.5974 12.7194 50.8326 12.4113 50.0842 12.069C49.7585 11.9203 49.4681 11.6854 49.1795 11.4659C47.3588 10.0801 47.9035 7.23548 49.929 6.30182C50.8379 5.88279 51.7993 5.73466 52.7772 5.9005C53.8289 6.07932 54.8658 6.34608 55.9093 6.57271C56.1117 6.61697 56.1855 6.72498 56.1796 6.94216C56.1631 7.55949 56.1737 8.17799 56.1737 8.8443Z" fill="black" style="fill:black;fill-opacity:1;"/>
<path d="M15.4343 7.72066C16.7073 6.35794 18.2276 5.61077 20.1156 6.03275C21.4618 6.33374 22.1494 7.33704 22.4504 8.61596C22.5643 9.09931 22.6186 9.60627 22.6239 10.1032C22.6463 12.1576 22.6227 14.2126 22.6522 16.267C22.664 17.0584 22.9142 17.7649 23.8184 18.1302C22.5395 18.1302 21.3432 18.1302 20.1504 18.1302C20.1504 18.1296 20.1493 18.1031 20.1581 18.0989C20.9666 17.7425 21.2187 17.0319 21.2287 16.2464C21.257 14.0149 21.247 11.7828 21.2322 9.55139C21.2281 8.93878 21.0953 8.34152 20.8026 7.79207C20.3617 6.96582 19.6724 6.54738 18.734 6.51197C17.5843 6.4683 16.6165 6.93926 15.6922 7.54773C15.6061 7.60439 15.5205 7.66282 15.4343 7.72066Z" fill="black" style="fill:black;fill-opacity:1;"/>
<path d="M11.9287 18.1368C12.8647 17.7538 13.0925 17.0155 13.099 16.1928C13.1167 13.8232 13.1073 11.4536 13.1014 9.08408C13.1008 8.86985 13.0695 8.65148 13.0205 8.44256C12.9302 8.05717 12.7626 7.72077 12.2775 7.59211C13.0099 7.05328 13.7004 6.54514 14.4346 6.00513C14.447 6.12316 14.4618 6.20284 14.4623 6.28192C14.4718 7.4906 14.483 8.69988 14.4865 9.90856C14.493 11.9435 14.4924 13.979 14.5025 16.0139C14.5037 16.2677 14.5314 16.525 14.5798 16.7741C14.699 17.3879 15.0224 17.8559 15.6061 18.1368C14.4139 18.1368 13.2212 18.1368 11.9287 18.1368Z" fill="black" style="fill:black;fill-opacity:1;"/>
<path d="M6.81006 18.1307C7.56431 17.8138 7.76556 17.1587 7.77264 16.4599C7.79861 13.9139 7.7868 11.3673 7.77795 8.82126C7.77677 8.56984 7.71539 8.3137 7.64811 8.06878C7.56903 7.779 7.40024 7.55474 7.00423 7.50457C7.74313 6.98817 8.43777 6.50245 9.18788 5.97778C9.18788 6.13477 9.18788 6.23628 9.18788 6.33779C9.18788 9.62154 9.1867 12.9053 9.19024 16.1884C9.19024 16.3932 9.21031 16.6004 9.24395 16.8028C9.34251 17.4007 9.60691 17.8823 10.2113 18.1301C9.07752 18.1307 7.94379 18.1307 6.81006 18.1307Z" fill="black" style="fill:black;fill-opacity:1;"/>
<path d="M25.6444 25.9796C26.3987 25.9796 27.1393 25.9217 27.8664 25.9955C28.5971 26.0699 28.9771 26.516 29.035 27.154C29.1087 27.972 28.8131 28.4872 28.1049 28.7735C28.0512 28.7953 27.9974 28.8177 27.9077 28.8543C28.3338 29.5891 28.7535 30.3121 29.2014 31.0846C28.9571 31.0846 28.7623 31.1041 28.5746 31.0758C28.4914 31.0634 28.3976 30.9695 28.3504 30.8887C28.0122 30.3127 27.6764 29.7349 27.3589 29.1476C27.255 28.9552 27.1334 28.8785 26.9192 28.898C26.7262 28.9157 26.5303 28.9015 26.303 28.9015C26.303 29.6316 26.303 30.3339 26.303 31.0604C26.0705 31.0604 25.8704 31.0604 25.6444 31.0604C25.6444 29.3725 25.6444 27.6793 25.6444 25.9796ZM26.3072 28.3757C26.5061 28.3757 26.6914 28.3893 26.8737 28.3727C27.2031 28.3421 27.5454 28.3391 27.8552 28.2411C28.2595 28.1131 28.4277 27.743 28.3887 27.265C28.3557 26.8583 28.1538 26.5945 27.7148 26.5296C27.2562 26.4612 26.7864 26.4682 26.3072 26.4411C26.3072 27.1163 26.3072 27.7294 26.3072 28.3757Z" fill="black" style="fill:black;fill-opacity:1;"/>
<path d="M36.6382 28.5575C36.5343 28.9848 36.4759 29.4599 36.3018 29.8883C35.9636 30.7181 35.3139 31.1684 34.4056 31.1802C33.4861 31.192 32.8245 30.7547 32.4544 29.9214C32.072 29.0597 32.062 28.165 32.3653 27.278C32.6876 26.3355 33.4294 25.8326 34.4292 25.8379C35.3375 25.8427 36.0929 26.3874 36.3856 27.3016C36.5096 27.6887 36.5497 28.103 36.6382 28.5575ZM35.9058 28.4985C35.8887 27.9584 35.8167 27.4361 35.4933 26.9841C34.9621 26.2428 33.8679 26.2097 33.3061 26.9168C32.6769 27.7082 32.6864 29.3253 33.3244 30.1037C33.8886 30.7919 34.8978 30.7795 35.4437 30.076C35.8055 29.6103 35.8857 29.0603 35.9058 28.4985Z" fill="black" style="fill:black;fill-opacity:1;"/>
<path d="M21.9829 26.4528C21.8471 26.6163 21.7421 26.7432 21.6813 26.8164C21.3101 26.6747 20.979 26.4682 20.6302 26.431C19.7915 26.3419 19.1689 26.7981 18.9228 27.6102C18.7174 28.2895 18.7286 28.9723 19.0001 29.6321C19.346 30.4725 20.3422 30.8485 21.1696 30.4761C21.3502 30.3946 21.444 30.2884 21.434 30.0736C21.4163 29.713 21.4293 29.3506 21.4293 28.9587C21.0634 28.9587 20.724 28.9587 20.3664 28.9587C20.3664 28.777 20.3664 28.6241 20.3664 28.4494C20.9105 28.4494 21.4553 28.4494 22.0419 28.4494C22.0419 28.9877 22.0419 29.5253 22.0419 30.063C22.0419 30.6691 21.9776 30.7659 21.4169 31.0013C19.9373 31.6222 18.4064 30.757 18.1668 29.1706C18.0535 28.4229 18.1007 27.6987 18.4554 27.0182C19.0143 25.9453 20.3918 25.508 21.4458 26.0716C21.6299 26.1696 21.7905 26.3142 21.9829 26.4528Z" fill="black" style="fill:black;fill-opacity:1;"/>
<path d="M40.0494 25.9524C40.2566 25.9524 40.4566 25.9524 40.6915 25.9524C40.6915 26.0775 40.6915 26.1826 40.6915 26.2882C40.6915 27.1924 40.6815 28.0965 40.6974 29.0001C40.7027 29.2904 40.7399 29.5914 40.8267 29.867C40.986 30.3734 41.3685 30.6154 41.9026 30.6101C42.4331 30.6048 42.8179 30.3528 42.9714 29.8511C43.0564 29.5737 43.1006 29.2751 43.1065 28.9847C43.1236 28.1006 43.1124 27.216 43.1124 26.3319C43.1124 26.2156 43.1124 26.0993 43.1124 25.9577C43.3196 25.9577 43.5002 25.9577 43.6979 25.9577C43.7091 26.0055 43.7333 26.0604 43.7333 26.1153C43.7297 27.2059 43.7427 28.2966 43.7115 29.386C43.6855 30.2872 43.2281 30.9217 42.4921 31.1029C41.4334 31.3631 40.1781 31.081 40.0712 29.4362C39.9986 28.3208 40.0346 27.1983 40.0228 26.0787C40.0223 26.0427 40.0376 26.0055 40.0494 25.9524Z" fill="black" style="fill:black;fill-opacity:1;"/>
<path d="M48.1437 31.0692C47.9194 31.0692 47.7276 31.0692 47.5157 31.0692C47.5157 29.3678 47.5157 27.674 47.5157 25.9377C48.319 25.9654 49.1216 25.8344 49.9107 26.051C50.5221 26.2192 50.8473 26.6417 50.8939 27.2656C50.9411 27.8935 50.7883 28.4689 50.1828 28.7599C49.8416 28.924 49.4362 28.9723 49.0532 29.0266C48.7663 29.0674 48.4689 29.0349 48.1437 29.0349C48.1437 29.7295 48.1437 30.3911 48.1437 31.0692ZM48.1531 28.5433C48.656 28.5008 49.1299 28.5002 49.5861 28.4105C50.0258 28.3237 50.2489 27.946 50.2518 27.4532C50.2548 26.9876 50.0618 26.6453 49.638 26.5644C49.1564 26.4724 48.6577 26.4706 48.1525 26.4281C48.1531 27.1593 48.1531 27.8132 48.1531 28.5433Z" fill="black" style="fill:black;fill-opacity:1;"/>
</svg>
